# File produced by Open Asset Import Library (http://www.assimp.sf.net)
# (assimp v3.2.202087883)

mtllib model_normalized.mtl

# 129 vertex positions
v -0.083315 0.222335 -0.179845
v -0.006494 0.212487 -0.165687
v -0.083315 0.222335 -0.165687
v -0.006494 0.212487 -0.179845
v -0.006494 0.212487 -0.086897
v -0.090824 0.223298 -0.086897
v -0.006494 0.212487 -0.233028
v 0.070326 0.222335 -0.179845
v -0.006494 0.222335 -0.179845
v -0.006494 0.222335 -0.165687
v 0.070326 0.222335 -0.165687
v -0.236955 0.232184 -0.233028
v -0.006494 0.222335 -0.233028
v -0.006494 0.222335 -0.086897
v 0.077836 0.223298 -0.086897
v -0.183772 0.222335 -0.079388
v 0.223967 0.232184 -0.233028
v 0.077836 0.233147 -0.086897
v -0.090824 0.233147 -0.086897
v -0.169615 0.222335 -0.079388
v -0.236955 0.212487 -0.002567
v 0.223967 0.242033 -0.233028
v -0.236955 0.242033 -0.233028
v -0.090824 0.222335 -0.002567
v 0.156626 0.222335 -0.079388
v -0.169615 0.212487 -0.002567
v -0.183772 0.212487 -0.002567
v 0.223967 0.222335 -0.002567
v 0.156626 0.222335 -0.002567
v -0.090824 0.212487 -0.002567
v -0.169615 0.222335 -0.002567
v 0.077836 0.212487 -0.002567
v 0.170783 0.222335 -0.079388
v 0.156626 0.212487 -0.002567
v -0.183772 0.222335 -0.002567
v -0.236955 0.232184 0.227894
v -0.236955 0.222335 -0.002567
v 0.223967 0.212487 -0.002567
v 0.170783 0.222335 -0.002567
v 0.077836 0.222335 -0.002567
v -0.090824 0.233147 0.081763
v 0.170783 0.212487 -0.002567
v -0.169615 0.222335 0.074253
v -0.183772 0.222335 0.074253
v 0.223967 0.242033 0.227894
v -0.090824 0.223298 0.081763
v 0.077836 0.223298 0.081763
v -0.236955 0.242033 0.227894
v 0.223967 0.232184 0.227894
v 0.170783 0.222335 0.074253
v 0.077836 0.233147 0.081763
v -0.006494 0.222335 0.081763
v 0.156626 0.222335 0.074253
v -0.083315 0.222335 0.174711
v -0.006494 0.222335 0.227894
v -0.006494 0.212487 0.081763
v -0.006494 0.222335 0.174711
v -0.006494 0.212487 0.227894
v -0.083315 0.222335 0.160553
v -0.006494 0.212487 0.160553
v 0.070326 0.222335 0.160553
v -0.006494 0.212487 0.174711
v 0.070326 0.222335 0.174711
v -0.006494 0.222335 0.160553
v 0.223967 -0.516322 -0.007492
v 0.170783 -0.516322 0.002357
v 0.170783 -0.516322 -0.007492
v 0.223967 -0.516322 0.002357
v -0.001570 -0.516322 0.002357
v -0.001570 -0.457229 -0.007492
v 0.223967 0.216380 0.002357
v -0.001570 -0.457229 0.002357
v -0.001570 -0.516322 -0.007492
v 0.170783 -0.457229 -0.007492
v 0.223967 0.216380 -0.007492
v 0.170783 -0.457229 0.002357
v -0.011419 -0.516322 0.002357
v -0.001570 -0.457229 0.174711
v -0.011419 -0.516322 -0.007492
v -0.011419 -0.457229 -0.007492
v -0.001570 -0.516322 -0.233028
v 0.146162 -0.457229 -0.007492
v 0.170783 0.216380 0.002357
v 0.160935 -0.457229 0.002357
v -0.011419 -0.516322 0.227894
v -0.001570 -0.516322 0.227894
v -0.011419 -0.457229 -0.179845
v -0.001570 -0.457229 -0.179845
v 0.170783 0.216380 -0.007492
v -0.236955 -0.516322 0.002357
v -0.011419 -0.457229 0.174711
v -0.001570 0.216380 0.174711
v -0.183772 -0.457229 -0.007492
v -0.011419 -0.516322 -0.233028
v -0.011419 -0.457229 0.002357
v -0.001570 0.216380 -0.179845
v -0.236955 -0.516322 -0.007492
v -0.183772 -0.457229 0.002357
v -0.001570 0.216380 0.227894
v -0.011419 0.216380 0.174711
v -0.011419 0.216380 -0.233028
v -0.001570 0.216380 -0.233028
v -0.236955 0.216380 -0.007492
v -0.236955 0.216380 0.002357
v -0.011419 0.216380 0.227894
v -0.011419 0.216380 -0.179845
v -0.183772 0.216380 0.002357
v -0.183772 0.216380 -0.007492
v -0.183772 0.235215 -0.179845
v 0.170783 -0.457229 -0.179845
v -0.183772 -0.457229 -0.179845
v -0.169615 -0.457229 -0.165687
v -0.169615 0.233399 -0.165687
v 0.170783 0.235215 -0.179845
v -0.183772 -0.457229 0.174711
v 0.156626 -0.457229 -0.165687
v 0.156626 0.233399 -0.165687
v -0.169615 -0.457229 0.160553
v 0.156626 -0.457229 -0.007492
v -0.169615 -0.457229 0.002357
v -0.183772 0.235215 0.174711
v 0.170783 -0.457229 0.174711
v 0.156626 -0.457229 0.160553
v 0.156626 -0.457229 0.002357
v -0.011419 -0.457229 0.160553
v 0.170783 0.235215 0.174711
v -0.001570 -0.457229 0.160553
v -0.169615 0.233399 0.160553
v 0.156626 0.233399 0.160553

# 0 UV coordinates

# 106 vertex normals
vn -0.00270528 -0.0252533 0.000337617
vn -0.00322997 -0.0251938 0
vn 0.00322997 0.0251938 0
vn 0.00270528 0.0252533 -0.000337617
vn -0.00119629 -0.0253436 -0.00119629
vn 0.00119629 0.0253436 0.00119629
vn -0.00269634 -0.0252444 0.000780161
vn 0.00269634 0.0252444 -0.000780161
vn 0.00256281 -0.0252674 0.000390093
vn 0.00322997 -0.0251938 0
vn -0.00322997 0.0251938 0
vn -0.00256281 0.0252674 -0.000390093
vn -0.0254 0 -0
vn 0.0254 0 0
vn 0.00244483 -0.025282 3.71856e-05
vn -0.00244483 0.025282 -3.71856e-05
vn -0.000537058 -0.0253886 -0.000537058
vn 0.000537058 0.0253886 0.000537058
vn 0.00269634 -0.0252444 0.000780161
vn -0.00269634 0.0252444 -0.000780161
vn 0 0 0.0254
vn 0 0 -0.0254
vn 0.00119631 -0.0253436 -0.00119631
vn -0.00119631 0.0253436 0.00119631
vn 0.000337617 -0.0252533 -0.00270528
vn -0.000337617 0.0252533 0.00270528
vn 0.000105715 -0.0253802 -0.00099761
vn -0.000105715 0.0253802 0.00099761
vn -0.00113264 0.0253434 0.00126096
vn -0.002697 0.0252545 -0.000312064
vn 0.002697 -0.0252545 0.000312064
vn 0.00113264 -0.0253434 -0.00126096
vn 0.00115011 0.0253435 0.00124341
vn -0.00115011 -0.0253435 -0.00124341
vn 0 -0.0251938 -0.00322997
vn 0 0.0251938 0.00322997
vn 0.000780161 -0.0252444 -0.00269634
vn -0.000780161 0.0252444 0.00269634
vn -0.000428498 0.0253619 0.00132235
vn 0.000428498 -0.0253619 -0.00132235
vn 0.002697 0.0252545 -0.000312064
vn -0.002697 -0.0252545 0.000312064
vn -3.71856e-05 -0.025282 -0.00244483
vn 3.71856e-05 0.025282 0.00244483
vn 0.000451866 0.0253627 0.00129901
vn -0.000451866 -0.0253627 -0.00129901
vn 0.000293573 0.0252644 0.00260414
vn -0.000293573 -0.0252644 -0.00260414
vn -0.00153589 -0.0252106 -0.00268826
vn 0.00153589 0.0252106 0.00268826
vn 0.00153551 -0.0251908 0.00286769
vn 0.000178918 -0.0253768 0.00107152
vn -0 -0.0253077 0.00216306
vn 0 0.0253077 -0.00216306
vn -0.000178918 0.0253768 -0.00107152
vn -0.00153551 0.0251908 -0.00286769
vn 0 0.0253077 0.00216306
vn 0 -0.0253077 -0.00216306
vn -0.000270231 0.0252671 0.00258092
vn 0.000270231 -0.0252671 -0.00258092
vn 0 0.0251938 -0.00322997
vn 0.00119667 0.0253436 -0.00119667
vn 0 -0.0251938 0.00322997
vn -0.00119667 -0.0253436 0.00119667
vn -0.00153551 -0.0251908 -0.00286769
vn 0.00153551 0.0251908 0.00286769
vn 0.00118313 -0.0252134 0.00283604
vn -0.00118313 0.0252134 -0.00283604
vn -0.000156693 0.0253495 -0.00159365
vn 0.000156693 -0.0253495 0.00159365
vn 0.00084775 0.0252424 -0.00269502
vn -0.00084775 -0.0252424 0.00269502
vn 0.00119631 -0.0253436 0.00119631
vn -0.00119631 0.0253436 -0.00119631
vn -0.00119629 -0.0253436 0.00119629
vn 0.00119629 0.0253436 -0.00119629
vn -0.000312064 0.0252545 -0.002697
vn 0.000312064 -0.0252545 0.002697
vn -0.000780161 -0.0252444 0.00269634
vn -0.000390093 -0.0252674 0.00256281
vn 0.000390093 0.0252674 -0.00256281
vn 0.000780161 0.0252444 -0.00269634
vn -0.00123977 0.0253548 -0.000871245
vn 0.00123977 -0.0253548 0.000871245
vn -3.71856e-05 -0.025282 0.00244483
vn 3.71856e-05 0.025282 -0.00244483
vn 0.00077155 0.0253766 -0.00077155
vn -0.00077155 -0.0253766 0.00077155
vn -0.00270528 -0.0252533 -0.000337617
vn 0.00270528 0.0252533 0.000337617
vn 0.000629285 -0.0253844 0.000629285
vn -0.000629285 0.0253844 -0.000629285
vn -0.002697 0.0252545 0.000312064
vn 0.002697 -0.0252545 -0.000312064
vn 0.002697 0.0252545 0.000312064
vn -0.002697 -0.0252545 -0.000312064
vn -0.00269634 -0.0252444 -0.000780161
vn 0.00269634 0.0252444 0.000780161
vn 0.00244483 -0.025282 -3.71856e-05
vn -0.00244483 0.025282 3.71856e-05
vn 0.00269634 -0.0252444 -0.000780161
vn 0.00256281 -0.0252674 -0.000390093
vn -0.00256281 0.0252674 0.000390093
vn -0.00269634 0.0252444 0.000780161
vn 0 -0.0254 0
vn 0 0.0254 0

# Mesh 'mesh1_mesh1-geometry' with 294 faces
g mesh1_mesh1-geometry
usemtl material_0_24
f  1//1 2//2 3//2
f  2//2 1//1 4//2
f  3//3 2//3 1//4
f  4//3 1//4 2//3
f  5//2 3//2 2//2
f  2//3 3//3 5//3
f  1//1 3//2 6//5
f  6//6 3//3 1//4
f  7//7 4//2 1//1
f  1//4 4//3 7//8
f  8//9 2//10 4//10
f  4//11 2//11 8//12
f  2//13 9//13 4//13
f  4//14 9//14 2//14
f  3//2 5//2 6//5
f  6//6 5//3 3//3
f  5//13 10//13 2//13
f  2//14 10//14 5//14
f  11//15 5//10 2//10
f  2//11 5//11 11//16
f  1//1 6//5 12//17
f  12//18 6//6 1//4
f  4//13 13//13 7//13
f  7//14 13//14 4//14
f  8//9 4//10 7//19
f  7//20 4//11 8//12
f  7//7 1//1 12//17
f  12//18 1//4 7//8
f  2//10 8//9 11//15
f  11//16 8//12 2//11
f  9//13 2//13 10//13
f  10//14 2//14 9//14
f  13//13 4//13 9//13
f  9//14 4//14 13//14
f  14//21 6//21 5//21
f  5//22 6//22 14//22
f  10//13 5//13 14//13
f  14//14 5//14 10//14
f  5//10 11//15 15//23
f  15//24 11//16 5//11
f  6//5 16//25 12//17
f  12//18 16//26 6//6
f  13//22 17//22 7//22
f  7//21 17//21 13//21
f  12//22 13//22 7//22
f  7//21 13//21 12//21
f  17//27 8//9 7//19
f  7//20 8//12 17//28
f  17//27 11//15 8//9
f  8//12 11//16 17//28
f  9//11 18//29 13//30
f  13//31 18//32 9//10
f  6//21 14//21 19//21
f  19//22 14//22 6//22
f  15//21 14//21 5//21
f  5//22 14//22 15//22
f  14//3 10//3 19//33
f  19//34 10//2 14//2
f  17//27 15//23 11//15
f  11//16 15//24 17//28
f  6//5 20//35 16//25
f  16//26 20//36 6//6
f  16//25 21//37 12//17
f  12//18 21//38 16//26
f  17//22 13//22 22//22
f  22//21 13//21 17//21
f  13//22 12//22 23//22
f  23//21 12//21 13//21
f  18//29 9//11 14//11
f  14//10 9//10 18//32
f  22//39 13//30 18//29
f  18//32 13//31 22//40
f  24//14 6//14 19//14
f  19//13 6//13 24//13
f  14//21 15//21 18//21
f  18//22 15//22 14//22
f  13//41 19//33 10//3
f  10//2 19//34 13//42
f  17//27 25//43 15//23
f  15//24 25//44 17//28
f  20//35 6//5 26//35
f  26//36 6//6 20//36
f  20//35 27//35 16//25
f  16//26 27//36 20//36
f  27//35 21//37 16//25
f  16//26 21//38 27//36
f  21//13 23//13 12//13
f  12//14 23//14 21//14
f  28//14 17//14 22//14
f  22//13 17//13 28//13
f  13//41 23//45 19//33
f  19//34 23//46 13//42
f  22//39 18//29 29//47
f  29//48 18//32 22//40
f  6//14 24//14 30//14
f  30//13 24//13 6//13
f  19//33 31//36 24//36
f  24//35 31//35 19//34
f  32//13 18//13 15//13
f  15//14 18//14 32//14
f  17//27 33//49 25//43
f  25//44 33//50 17//28
f  34//35 15//23 25//43
f  25//44 15//24 34//36
f  26//35 6//5 30//35
f  30//36 6//6 26//36
f  27//35 20//35 26//35
f  26//36 20//36 27//36
f  35//21 21//21 27//21
f  27//22 21//22 35//22
f  27//51 36//52 21//53
f  21//54 36//55 27//56
f  23//13 21//13 37//13
f  37//14 21//14 23//14
f  17//14 28//14 38//14
f  38//13 28//13 17//13
f  22//39 39//57 28//57
f  28//58 39//58 22//40
f  19//33 23//45 35//59
f  35//60 23//46 19//34
f  29//47 18//29 40//36
f  40//35 18//32 29//48
f  39//57 22//39 29//47
f  29//48 22//40 39//58
f  41//14 30//14 24//14
f  24//13 30//13 41//13
f  24//21 26//21 30//21
f  30//22 26//22 24//22
f  31//36 19//33 35//59
f  35//60 19//34 31//35
f  26//21 24//21 31//21
f  31//22 24//22 26//22
f  31//61 41//62 24//61
f  24//63 41//64 31//63
f  18//13 32//13 40//13
f  40//14 32//14 18//14
f  15//23 34//35 32//35
f  32//36 34//36 15//24
f  17//27 42//65 33//49
f  33//50 42//66 17//28
f  33//49 34//35 25//43
f  25//44 34//36 33//50
f  30//63 43//63 26//63
f  26//61 43//61 30//61
f  31//21 27//21 26//21
f  26//22 27//22 31//22
f  26//63 44//67 27//51
f  27//56 44//68 26//61
f  21//21 35//21 37//21
f  37//22 35//22 21//22
f  27//21 31//21 35//21
f  35//22 31//22 27//22
f  44//67 36//52 27//51
f  27//56 36//55 44//68
f  36//13 37//13 21//13
f  21//14 37//14 36//14
f  35//59 23//45 37//57
f  37//58 23//46 35//60
f  39//21 38//21 28//21
f  28//22 38//22 39//22
f  45//14 38//14 28//14
f  28//13 38//13 45//13
f  38//58 42//65 17//27
f  17//28 42//66 38//57
f  39//54 45//69 28//54
f  28//53 45//70 39//53
f  32//21 29//21 40//21
f  40//22 29//22 32//22
f  45//69 29//54 40//71
f  40//72 29//53 45//70
f  34//21 39//21 29//21
f  29//22 39//22 34//22
f  29//54 45//69 39//54
f  39//53 45//70 29//53
f  30//14 41//14 46//14
f  46//13 41//13 30//13
f  35//61 41//62 31//61
f  31//63 41//64 35//63
f  47//13 40//13 32//13
f  32//14 40//14 47//14
f  29//21 32//21 34//21
f  34//22 32//22 29//22
f  34//63 47//73 32//63
f  32//61 47//74 34//61
f  34//35 33//49 42//65
f  42//66 33//50 34//36
f  43//63 30//63 46//75
f  46//76 30//61 43//61
f  44//67 26//63 43//63
f  43//61 26//61 44//68
f  41//62 35//61 37//77
f  37//78 35//63 41//64
f  46//75 36//52 44//67
f  44//68 36//55 46//76
f  37//13 36//13 48//13
f  48//14 36//14 37//14
f  38//21 39//21 42//21
f  42//22 39//22 38//22
f  38//14 45//14 49//14
f  49//13 45//13 38//13
f  38//79 50//80 42//63
f  42//61 50//81 38//82
f  45//69 40//71 51//83
f  51//84 40//72 45//70
f  39//21 34//21 42//21
f  42//22 34//22 39//22
f  52//22 46//22 41//22
f  41//21 46//21 52//21
f  40//13 47//13 51//13
f  51//14 47//14 40//14
f  47//73 34//63 53//85
f  53//86 34//61 47//74
f  42//63 53//85 34//63
f  34//61 53//86 42//61
f  46//75 44//67 43//63
f  43//61 44//68 46//76
f  41//62 37//77 48//87
f  48//88 37//78 41//64
f  54//89 36//52 46//75
f  46//76 36//55 54//90
f  36//21 55//21 48//21
f  48//22 55//22 36//22
f  55//21 49//21 45//21
f  45//22 49//22 55//22
f  49//91 50//80 38//79
f  38//82 50//81 49//92
f  53//85 42//63 50//80
f  50//81 42//61 53//86
f  45//69 51//83 55//93
f  55//94 51//84 45//70
f  46//22 52//22 56//22
f  56//21 52//21 46//21
f  52//3 41//62 57//3
f  57//2 41//64 52//2
f  47//22 52//22 51//22
f  51//21 52//21 47//21
f  49//91 47//73 53//85
f  53//86 47//74 49//92
f  55//95 41//62 48//87
f  48//88 41//64 55//96
f  58//97 36//52 54//89
f  54//90 36//55 58//98
f  54//89 46//75 59//2
f  59//3 46//76 54//90
f  55//21 36//21 58//21
f  58//22 36//22 55//22
f  49//21 55//21 58//21
f  58//22 55//22 49//22
f  49//91 53//85 50//80
f  50//81 53//86 49//92
f  51//83 52//11 55//93
f  55//94 52//10 51//84
f  52//22 47//22 56//22
f  56//21 47//21 52//21
f  60//13 52//13 56//13
f  56//14 52//14 60//14
f  56//2 59//2 46//75
f  46//76 59//3 56//3
f  55//95 57//3 41//62
f  41//64 57//2 55//96
f  49//91 61//99 47//73
f  47//74 61//100 49//92
f  58//97 54//89 62//2
f  62//3 54//90 58//98
f  60//2 54//89 59//2
f  59//3 54//90 60//3
f  57//13 58//13 55//13
f  55//14 58//14 57//14
f  49//91 58//101 63//102
f  63//103 58//104 49//92
f  47//73 60//10 56//10
f  56//11 60//11 47//74
f  52//13 60//13 64//13
f  64//14 60//14 52//14
f  59//2 56//2 60//2
f  60//3 56//3 59//3
f  49//91 63//102 61//99
f  61//100 63//103 49//92
f  60//10 47//73 61//99
f  61//100 47//74 60//11
f  54//89 60//2 62//2
f  62//3 60//3 54//90
f  58//13 57//13 62//13
f  62//14 57//14 58//14
f  63//102 58//101 62//10
f  62//11 58//104 63//103
f  62//13 64//13 60//13
f  60//14 64//14 62//14
f  62//10 61//99 63//102
f  63//103 61//100 62//11
f  61//99 62//10 60//10
f  60//11 62//11 61//100
f  64//13 62//13 57//13
f  57//14 62//14 64//14

# Mesh 'mesh2_mesh2-geometry' with 69 faces
g mesh2_mesh2-geometry
usemtl material_1_0
l  23 13
l  23 12
l  37 23
l  13 22
l  13 7
l  9 13
l  12 7
l  21 12
l  48 37
l  37 21
l  37 35
l  22 28
l  22 17
l  7 17
l  4 7
l  36 21
l  21 27
l  48 36
l  55 48
l  35 31
l  28 45
l  28 38
l  39 28
l  17 38
l  2 4
l  58 36
l  27 26
l  45 55
l  58 55
l  55 57
l  31 24
l  45 49
l  38 49
l  42 38
l  29 39
l  5 2
l  49 58
l  58 62
l  26 30
l  24 41
l  19 24
l  24 30
l  34 42
l  40 29
l  5 15
l  6 5
l  14 5
l  62 60
l  30 6
l  46 30
l  41 52
l  46 41
l  14 19
l  19 6
l  32 34
l  51 40
l  32 40
l  40 18
l  18 15
l  15 32
l  18 14
l  14 10
l  60 56
l  56 46
l  56 52
l  52 51
l  32 47
l  47 51
l  47 56

# Mesh 'mesh3_mesh3-geometry' with 164 faces
g mesh3_mesh3-geometry
usemtl material_0_24
f  65//105 66//105 67//105
f  66//105 65//105 68//105
f  67//106 66//106 65//106
f  68//106 65//106 66//106
f  69//105 67//105 66//105
f  66//106 67//106 69//106
f  67//22 70//22 65//22
f  65//21 70//21 67//21
f  65//14 71//14 68//14
f  68//13 71//13 65//13
f  72//21 66//21 68//21
f  68//22 66//22 72//22
f  69//105 73//105 67//105
f  67//106 73//106 69//106
f  66//21 72//21 69//21
f  69//22 72//22 66//22
f  70//22 67//22 73//22
f  73//21 67//21 70//21
f  65//22 70//22 74//22
f  74//21 70//21 65//21
f  71//14 65//14 75//14
f  75//13 65//13 71//13
f  76//21 68//21 71//21
f  71//22 68//22 76//22
f  72//21 68//21 76//21
f  76//22 68//22 72//22
f  77//105 73//105 69//105
f  69//106 73//106 77//106
f  78//14 69//14 72//14
f  72//13 69//13 78//13
f  70//21 79//21 73//21
f  73//22 79//22 70//22
f  73//22 80//22 70//22
f  70//21 80//21 73//21
f  81//14 70//14 73//14
f  73//13 70//13 81//13
f  74//22 70//22 82//22
f  82//21 70//21 74//21
f  65//22 74//22 75//22
f  75//21 74//21 65//21
f  83//105 75//105 71//105
f  71//106 75//106 83//106
f  76//21 71//21 83//21
f  83//22 71//22 76//22
f  84//21 72//21 76//21
f  76//22 72//22 84//22
f  77//105 79//105 73//105
f  73//106 79//106 77//106
f  69//105 85//105 77//105
f  77//106 85//106 69//106
f  69//14 78//14 86//14
f  86//13 78//13 69//13
f  70//106 78//106 72//106
f  72//105 78//105 70//105
f  79//21 70//21 80//21
f  80//22 70//22 79//22
f  79//105 81//105 73//105
f  73//106 81//106 79//106
f  80//22 73//22 79//22
f  79//21 73//21 80//21
f  80//106 78//106 70//106
f  70//105 78//105 80//105
f  70//106 87//106 80//106
f  80//105 87//105 70//105
f  70//14 81//14 88//14
f  88//13 81//13 70//13
f  70//106 84//106 82//106
f  82//105 84//105 70//105
f  82//106 84//106 74//106
f  74//105 84//105 82//105
f  75//22 74//22 89//22
f  89//21 74//21 75//21
f  75//105 83//105 89//105
f  89//106 83//106 75//106
f  70//106 72//106 84//106
f  84//105 72//105 70//105
f  74//106 84//106 76//106
f  76//105 84//105 74//105
f  90//105 79//105 77//105
f  77//106 79//106 90//106
f  85//105 69//105 86//105
f  86//106 69//106 85//106
f  91//13 77//13 85//13
f  85//14 77//14 91//14
f  92//14 86//14 78//14
f  78//13 86//13 92//13
f  87//13 79//13 80//13
f  80//14 79//14 87//14
f  80//22 79//22 93//22
f  93//21 79//21 80//21
f  81//105 79//105 94//105
f  94//106 79//106 81//106
f  95//106 78//106 80//106
f  80//105 78//105 95//105
f  87//106 70//106 88//106
f  88//105 70//105 87//105
f  88//14 81//14 96//14
f  96//13 81//13 88//13
f  79//105 90//105 97//105
f  97//106 90//106 79//106
f  98//21 90//21 77//21
f  77//22 90//22 98//22
f  99//21 85//21 86//21
f  86//22 85//22 99//22
f  77//13 91//13 95//13
f  95//14 91//14 77//14
f  85//13 100//13 91//13
f  91//14 100//14 85//14
f  86//14 92//14 99//14
f  99//13 92//13 86//13
f  79//13 87//13 94//13
f  94//14 87//14 79//14
f  97//22 93//22 79//22
f  79//21 93//21 97//21
f  93//106 95//106 80//106
f  80//105 95//105 93//105
f  101//22 81//22 94//22
f  94//21 81//21 101//21
f  78//106 95//106 91//106
f  91//105 95//105 78//105
f  96//14 81//14 102//14
f  102//13 81//13 96//13
f  90//13 103//13 97//13
f  97//14 103//14 90//14
f  90//21 98//21 104//21
f  104//22 98//22 90//22
f  98//21 77//21 95//21
f  95//22 77//22 98//22
f  85//21 99//21 105//21
f  105//22 99//22 85//22
f  100//13 85//13 105//13
f  105//14 85//14 100//14
f  105//105 92//105 99//105
f  99//106 92//106 105//106
f  94//13 87//13 106//13
f  106//14 87//14 94//14
f  93//22 97//22 103//22
f  103//21 97//21 93//21
f  95//106 93//106 98//106
f  98//105 93//105 95//105
f  81//22 101//22 102//22
f  102//21 101//21 81//21
f  94//13 106//13 101//13
f  101//14 106//14 94//14
f  106//105 102//105 96//105
f  96//106 102//106 106//106
f  103//13 90//13 104//13
f  104//14 90//14 103//14
f  104//21 98//21 107//21
f  107//22 98//22 104//22
f  92//105 105//105 100//105
f  100//106 105//106 92//106
f  93//22 103//22 108//22
f  108//21 103//21 93//21
f  108//14 98//14 93//14
f  93//13 98//13 108//13
f  102//105 106//105 101//105
f  101//106 106//106 102//106
f  108//105 104//105 103//105
f  103//106 104//106 108//106
f  98//14 108//14 107//14
f  107//13 108//13 98//13
f  104//105 108//105 107//105
f  107//106 108//106 104//106

# Mesh 'mesh4_mesh4-geometry' with 56 faces
g mesh4_mesh4-geometry
usemtl material_1_0
l  90 77
l  97 90
l  104 90
l  85 77
l  95 77
l  77 69
l  97 79
l  103 97
l  104 103
l  107 104
l  86 85
l  105 85
l  98 95
l  91 95
l  69 86
l  72 69
l  69 66
l  79 94
l  80 79
l  79 73
l  103 108
l  107 98
l  107 108
l  99 86
l  99 105
l  105 100
l  98 93
l  78 72
l  72 84
l  68 66
l  67 66
l  94 81
l  101 94
l  93 80
l  87 80
l  80 70
l  81 73
l  70 73
l  73 67
l  108 93
l  92 99
l  84 76
l  65 68
l  71 68
l  67 65
l  102 81
l  101 102
l  106 101
l  88 70
l  70 82
l  75 65
l  75 71
l  71 83
l  102 96
l  82 74
l  89 75

# Mesh 'mesh5_mesh5-geometry' with 69 faces
g mesh5_mesh5-geometry
usemtl material_2_24
f  109//22 110//22 111//22
f  110//22 109//22 4//22
f  112//105 111//105 110//105
f  111//13 27//13 109//13
f  113//3 4//3 109//3
f  114//22 110//22 4//22
f  111//105 112//105 115//105
f  112//105 110//105 116//105
f  115//13 27//13 111//13
f  27//36 113//36 109//36
f  4//3 113//3 2//3
f  114//14 74//14 110//14
f  4//11 117//11 114//11
f  118//105 115//105 112//105
f  116//105 110//105 119//105
f  117//21 112//21 116//21
f  116//105 120//105 112//105
f  27//13 115//13 121//13
f  113//36 27//36 26//36
f  113//21 112//21 2//21
f  117//11 4//11 2//11
f  42//14 74//14 114//14
f  119//105 110//105 74//105
f  117//36 42//36 114//36
f  115//105 118//105 122//105
f  118//105 112//105 120//105
f  119//13 117//13 116//13
f  123//105 116//105 119//105
f  112//21 117//21 2//21
f  120//105 116//105 118//105
f  26//14 120//14 112//14
f  121//21 115//21 62//21
f  121//61 26//61 27//61
f  26//14 112//14 113//14
f  42//14 76//14 74//14
f  74//105 124//105 119//105
f  42//36 117//36 34//36
f  122//105 118//105 125//105
f  126//21 115//21 122//21
f  26//14 118//14 120//14
f  119//13 34//13 117//13
f  127//105 116//105 123//105
f  123//105 119//105 124//105
f  118//105 116//105 125//105
f  115//21 126//21 62//21
f  62//3 128//3 121//3
f  26//61 121//61 128//61
f  126//14 76//14 42//14
f  124//105 74//105 76//105
f  124//13 34//13 119//13
f  34//61 126//61 42//61
f  128//22 125//22 118//22
f  122//105 125//105 127//105
f  76//14 126//14 122//14
f  118//14 26//14 128//14
f  125//105 116//105 127//105
f  127//22 129//22 123//22
f  122//105 127//105 123//105
f  123//13 34//13 124//13
f  76//105 123//105 124//105
f  126//11 60//11 62//11
f  128//3 62//3 60//3
f  126//61 34//61 129//61
f  125//22 128//22 127//22
f  122//105 123//105 76//105
f  129//22 127//22 60//22
f  34//13 123//13 129//13
f  60//11 126//11 129//11
f  127//22 128//22 60//22

# Mesh 'mesh5_mesh5-geometry' with 69 faces
g mesh5_mesh5-geometry
usemtl material_1_24
f  111//21 110//21 109//21
f  4//21 109//21 110//21
f  110//106 111//106 112//106
f  109//14 27//14 111//14
f  109//2 4//2 113//2
f  4//21 110//21 114//21
f  115//106 112//106 111//106
f  116//106 110//106 112//106
f  111//14 27//14 115//14
f  109//35 113//35 27//35
f  2//2 113//2 4//2
f  110//13 74//13 114//13
f  114//10 117//10 4//10
f  112//106 115//106 118//106
f  119//106 110//106 116//106
f  116//22 112//22 117//22
f  112//106 120//106 116//106
f  121//14 115//14 27//14
f  26//35 27//35 113//35
f  2//22 112//22 113//22
f  2//10 4//10 117//10
f  114//13 74//13 42//13
f  74//106 110//106 119//106
f  114//35 42//35 117//35
f  122//106 118//106 115//106
f  120//106 112//106 118//106
f  116//14 117//14 119//14
f  119//106 116//106 123//106
f  2//22 117//22 112//22
f  118//106 116//106 120//106
f  112//13 120//13 26//13
f  62//22 115//22 121//22
f  27//63 26//63 121//63
f  113//13 112//13 26//13
f  74//13 76//13 42//13
f  119//106 124//106 74//106
f  34//35 117//35 42//35
f  125//106 118//106 122//106
f  122//22 115//22 126//22
f  120//13 118//13 26//13
f  117//14 34//14 119//14
f  123//106 116//106 127//106
f  124//106 119//106 123//106
f  125//106 116//106 118//106
f  62//22 126//22 115//22
f  121//2 128//2 62//2
f  128//63 121//63 26//63
f  42//13 76//13 126//13
f  76//106 74//106 124//106
f  119//14 34//14 124//14
f  42//63 126//63 34//63
f  118//21 125//21 128//21
f  127//106 125//106 122//106
f  122//13 126//13 76//13
f  128//13 26//13 118//13
f  127//106 116//106 125//106
f  123//21 129//21 127//21
f  123//106 127//106 122//106
f  124//14 34//14 123//14
f  124//106 123//106 76//106
f  62//10 60//10 126//10
f  60//2 62//2 128//2
f  129//63 34//63 126//63
f  127//21 128//21 125//21
f  76//106 123//106 122//106
f  60//21 127//21 129//21
f  129//14 123//14 34//14
f  129//10 126//10 60//10
f  60//21 128//21 127//21

# Mesh 'mesh6_mesh6-geometry' with 1 faces
g mesh6_mesh6-geometry
usemtl material_1_0
l  70 119

# Mesh 'mesh7_mesh7-geometry' with 1 faces
g mesh7_mesh7-geometry
usemtl material_1_0
l  124 72

