# File produced by Open Asset Import Library (http://www.assimp.sf.net)
# (assimp v3.2.202087883)

mtllib model_normalized.mtl

# 61 vertex positions
v -0.348408 -0.250159 -0.138159
v 0.304837 -0.250159 0.350272
v -0.348408 -0.250159 0.350272
v 0.304837 -0.250159 -0.138159
v -0.348408 0.270751 0.350272
v -0.348408 -0.097976 0.149764
v 0.304837 -0.096773 -0.138159
v 0.304837 0.270751 0.350272
v -0.348408 -0.097976 -0.138159
v 0.304837 -0.069104 -0.138159
v 0.304837 -0.096773 0.171822
v 0.304837 0.270751 0.328214
v -0.348408 -0.069104 0.149764
v -0.348408 0.111952 -0.138159
v 0.304837 0.111952 -0.138159
v 0.304837 -0.069104 0.171822
v -0.348408 0.270751 0.328214
v 0.304837 0.261342 0.300579
v -0.348408 -0.069104 -0.138159
v 0.062245 0.111952 -0.138159
v -0.348408 -0.096773 -0.138159
v 0.096634 0.111952 -0.138159
v -0.348408 0.261243 0.300291
v 0.067897 0.111952 -0.138159
v 0.062245 0.118802 -0.118040
v 0.089151 0.111952 -0.138159
v 0.096634 0.118802 -0.118040
v -0.366854 -0.097976 -0.138159
v 0.309394 -0.074191 -0.138159
v 0.329298 -0.096773 0.171822
v -0.366854 -0.069104 0.149764
v -0.366854 -0.097976 0.149764
v 0.323430 -0.074191 -0.138159
v 0.309394 -0.092236 -0.138159
v 0.329298 -0.096773 -0.138159
v -0.350965 -0.095575 -0.138159
v 0.329298 -0.069104 -0.138159
v 0.323430 -0.074191 0.152573
v 0.323430 -0.092236 -0.138159
v 0.309394 -0.092236 0.152573
v 0.329298 -0.069104 0.171822
v -0.366854 -0.069104 -0.138159
v 0.067897 0.122202 -0.141649
v 0.062245 0.128275 -0.143717
v -0.364199 -0.095575 -0.138159
v 0.096634 0.128275 -0.143717
v 0.309394 -0.074191 0.152573
v -0.350965 -0.072718 -0.138159
v 0.067897 0.115377 -0.128100
v 0.062245 0.135125 -0.123598
v -0.364199 -0.072718 -0.138159
v -0.364199 -0.095575 0.118085
v 0.089151 0.122202 -0.141649
v 0.096634 0.135125 -0.123598
v 0.323430 -0.092236 0.152573
v -0.350965 -0.072718 0.118085
v 0.089151 0.115377 -0.128100
v 0.067897 0.125628 -0.131589
v -0.350965 -0.095575 0.118085
v 0.089151 0.125628 -0.131589
v -0.364199 -0.072718 0.118085

# 101 UV coordinates
vt 0 0 0
vt 7.47917 16.9688 0
vt 0 17.4479 0
vt 0 16.9688 0
vt 0 4.70312 0
vt -0.118393 4.57097 0
vt 0 3.98438 0
vt 8.05208 -0.635417 0
vt 8.05208 0 0
vt -17.4479 4.70312 0
vt -16.9688 3.95312 0
vt -16.9688 4.70312 0
vt 7.47917 17.4479 0
vt 17.4479 3.95312 0
vt 16.9688 3.98438 0
vt 16.9688 3.95312 0
vt -0.482976 4.57097 0
vt -0.118393 4.10222 0
vt 0 -0.635417 0
vt 0.635417 3.98438 0
vt -0 15.0711 0
vt 16.9688 15.8295 0
vt -0 15.8295 0
vt -7.47917 17.4479 0
vt -7.47917 16.9688 0
vt -17.4479 3.95312 0
vt 7.47917 4.70312 0
vt 0 3.95312 0
vt 7.47917 3.95312 0
vt 17.0352 4.0155 0
vt -8.05208 0 0
vt -0.635417 4.70312 0
vt 7.55208 -0.482976 0
vt 0 -0.118393 0
vt 0 -0.482976 0
vt -0.482976 4.10222 0
vt 0 4.57097 0
vt -7.55208 4.10222 0
vt 0 4.10222 0
vt -0.635417 3.98438 0
vt -8.05208 3.98438 0
vt 0.635417 4.70312 0
vt 16.9688 15.0632 0
vt 16.9688 4.70312 0
vt 6.3016 8.90423 0
vt 6.15477 9.18548 0
vt 6.15477 8.90423 0
vt 0.522618 9.5842 0
vt -0.144375 9.83026 0
vt -0 9.40625 0
vt 17.3789 4.0155 0
vt 5.60268 8.90423 0
vt 5.40831 9.35214 0
vt 5.40831 8.90423 0
vt 0.144375 9.83026 0
vt -0.522618 9.5842 0
vt -8.05208 -0.635417 0
vt 7.55208 -0.118393 0
vt 7.55208 4.57097 0
vt -7.55208 -0.118393 0
vt -7.55208 4.57097 0
vt -8.05208 4.70312 0
vt 17.0352 4.60925 0
vt 17.4479 4.70312 0
vt 6.15477 3.30792 0
vt 5.60268 3.03188 0
vt 6.15477 3.03188 0
vt 6.3016 9.35214 0
vt 0.090654 9.67249 0
vt -0.261309 9.49522 0
vt 0.378243 10.0082 0
vt 17.3789 4.60925 0
vt -6.65625 17.3789 0
vt 0 17.0352 0
vt 0 17.3789 0
vt 5.60268 9.18548 0
vt -0.378243 10.0082 0
vt 7.55208 4.10222 0
vt -7.55208 -0.482976 0
vt 0 4.0155 0
vt 6.65625 4.60925 0
vt 0 4.60925 0
vt 5.60268 3.30792 0
vt -0.170655 9.76147 0
vt -5.40831 8.90423 0
vt -6.3016 9.35214 0
vt -6.3016 8.90423 0
vt 6.3016 3.58396 0
vt 5.40831 3.03188 0
vt 6.3016 3.03188 0
vt -6.65625 4.0155 0
vt -6.65625 17.0352 0
vt 0.261309 9.49522 0
vt -0.090654 9.67249 0
vt 5.40831 3.58396 0
vt -5.40831 9.35214 0
vt 6.65625 17.0352 0
vt 6.65625 4.0155 0
vt -6.65625 4.60925 0
vt 0.170655 9.76147 0
vt 6.65625 17.3789 0

# 10 vertex normals
vn 0 -0.0254 0
vn 0 0 0.0254
vn -0.0254 0 0
vn 0 0 -0.0254
vn 0.0254 0 0
vn 0 0.0254 0
vn 0 0.0240444 -0.00818708
vn -0 -0.0240444 0.00818708
vn 0 0.00818708 0.0240444
vn 0 -0.00818708 -0.0240444

# Mesh 'mesh1_mesh1-geometry' with 39 faces
g mesh1_mesh1-geometry
usemtl material_0_24
f  1/1/1 2/1/1 3/1/1
f  2/1/1 1/1/1 4/1/1
f  2/1/2 5/1/2 3/1/2
f  3/1/3 6/1/3 1/1/3
f  1/1/4 7/1/4 4/1/4
f  7/1/5 2/1/5 4/1/5
f  5/1/2 2/1/2 8/1/2
f  6/1/3 3/1/3 5/1/3
f  9/1/3 1/1/3 6/1/3
f  7/1/4 1/1/4 10/1/4
f  2/1/5 7/1/5 11/1/5
f  2/1/5 11/1/5 8/1/5
f  12/1/6 5/1/6 8/1/6
f  6/1/3 5/1/3 13/1/3
f  14/1/4 1/1/4 9/1/4
f  10/1/4 1/1/4 15/1/4
f  8/1/5 11/1/5 16/1/5
f  5/1/6 12/1/6 17/1/6
f  8/1/5 18/1/5 12/1/5
f  13/1/3 5/1/3 19/1/3
f  20/1/4 1/1/4 14/1/4
f  14/1/4 9/1/4 21/1/4
f  15/1/4 1/1/4 22/1/4
f  15/1/5 16/1/5 10/1/5
f  8/1/5 16/1/5 15/1/5
f  23/1/3 5/1/3 17/1/3
f  8/1/5 15/1/5 18/1/5
f  19/1/3 5/1/3 14/1/3
f  24/1/4 1/1/4 20/1/4
f  14/1/7 25/1/7 20/1/7
f  14/1/4 21/1/4 19/1/4
f  22/1/4 1/1/4 26/1/4
f  27/1/7 15/1/7 22/1/7
f  14/1/3 5/1/3 23/1/3
f  15/1/7 23/1/7 18/1/7
f  26/1/4 1/1/4 24/1/4
f  23/1/7 25/1/7 14/1/7
f  23/1/7 15/1/7 27/1/7
f  25/1/7 23/1/7 27/1/7

# Mesh 'mesh1_mesh1-geometry' with 130 faces
g mesh1_mesh1-geometry
usemtl material_1_24
f  3/1/6 2/1/6 1/1/6
f  4/1/6 1/1/6 2/1/6
f  3/1/4 5/1/4 2/1/4
f  1/1/5 6/1/5 3/1/5
f  4/1/2 7/1/2 1/1/2
f  4/1/3 2/1/3 7/1/3
f  8/1/4 2/1/4 5/1/4
f  5/1/5 3/1/5 6/1/5
f  6/1/5 1/1/5 9/1/5
f  10/1/2 1/1/2 7/1/2
f  11/1/3 7/1/3 2/1/3
f  8/1/3 11/1/3 2/1/3
f  8/1/1 5/1/1 12/1/1
f  13/1/5 5/1/5 6/1/5
f  9/1/2 1/1/2 14/1/2
f  9/1/6 28/1/6 6/1/6
f  13/1/3 9/1/3 6/1/3
f  6/1/5 9/1/5 13/1/5
f  15/1/2 1/1/2 10/1/2
f  7/1/2 29/1/2 10/1/2
f  10/1/5 11/1/5 7/1/5
f  7/1/3 11/1/3 10/1/3
f  11/1/6 30/1/6 7/1/6
f  16/1/3 11/1/3 8/1/3
f  17/1/1 12/1/1 5/1/1
f  12/1/3 18/1/3 8/1/3
f  19/1/5 5/1/5 13/1/5
f  13/1/4 6/1/4 31/1/4
f  14/1/2 1/1/2 20/1/2
f  21/1/2 9/1/2 14/1/2
f  32/1/6 6/1/6 28/1/6
f  9/1/2 21/1/2 28/1/2
f  9/1/3 13/1/3 21/1/3
f  21/1/5 13/1/5 9/1/5
f  22/1/2 1/1/2 15/1/2
f  10/1/3 16/1/3 15/1/3
f  29/1/2 33/1/2 10/1/2
f  29/1/2 7/1/2 34/1/2
f  11/1/5 10/1/5 16/1/5
f  16/1/3 10/1/3 11/1/3
f  35/1/6 7/1/6 30/1/6
f  11/1/4 16/1/4 30/1/4
f  15/1/3 16/1/3 8/1/3
f  12/1/8 17/1/8 18/1/8
f  17/1/5 5/1/5 23/1/5
f  18/1/3 15/1/3 8/1/3
f  14/1/5 5/1/5 19/1/5
f  13/1/1 31/1/1 19/1/1
f  21/1/3 13/1/3 19/1/3
f  19/1/5 13/1/5 21/1/5
f  32/1/4 31/1/4 6/1/4
f  20/1/2 1/1/2 24/1/2
f  20/1/8 25/1/8 14/1/8
f  19/1/2 21/1/2 14/1/2
f  32/1/5 28/1/5 31/1/5
f  36/1/2 28/1/2 21/1/2
f  26/1/2 1/1/2 22/1/2
f  22/1/8 15/1/8 27/1/8
f  10/1/1 37/1/1 16/1/1
f  10/1/2 33/1/2 37/1/2
f  33/1/6 29/1/6 38/1/6
f  34/1/2 7/1/2 39/1/2
f  34/1/3 40/1/3 29/1/3
f  7/1/2 35/1/2 39/1/2
f  35/1/3 30/1/3 37/1/3
f  41/1/4 30/1/4 16/1/4
f  23/1/8 18/1/8 17/1/8
f  23/1/5 5/1/5 14/1/5
f  18/1/8 23/1/8 15/1/8
f  42/1/1 19/1/1 31/1/1
f  19/1/2 36/1/2 21/1/2
f  24/1/2 1/1/2 26/1/2
f  24/1/9 43/1/9 20/1/9
f  14/1/8 25/1/8 23/1/8
f  20/1/5 44/1/5 25/1/5
f  42/1/5 31/1/5 28/1/5
f  45/1/2 28/1/2 36/1/2
f  22/1/9 46/1/9 26/1/9
f  27/1/8 15/1/8 23/1/8
f  22/1/3 27/1/3 46/1/3
f  41/1/1 16/1/1 37/1/1
f  39/1/2 37/1/2 33/1/2
f  47/1/6 38/1/6 29/1/6
f  33/1/5 38/1/5 39/1/5
f  34/1/1 39/1/1 40/1/1
f  47/1/3 29/1/3 40/1/3
f  37/1/2 39/1/2 35/1/2
f  41/1/3 37/1/3 30/1/3
f  42/1/2 48/1/2 19/1/2
f  36/1/2 19/1/2 48/1/2
f  24/1/8 26/1/8 49/1/8
f  20/1/9 43/1/9 44/1/9
f  24/1/3 49/1/3 43/1/3
f  27/1/8 23/1/8 25/1/8
f  50/1/5 25/1/5 44/1/5
f  28/1/2 51/1/2 42/1/2
f  51/1/2 28/1/2 45/1/2
f  45/1/1 36/1/1 52/1/1
f  53/1/9 26/1/9 46/1/9
f  54/1/3 46/1/3 27/1/3
f  47/1/2 40/1/2 38/1/2
f  55/1/5 39/1/5 38/1/5
f  55/1/1 40/1/1 39/1/1
f  51/1/2 48/1/2 42/1/2
f  48/1/5 56/1/5 36/1/5
f  57/1/8 49/1/8 26/1/8
f  43/1/9 53/1/9 44/1/9
f  58/1/3 43/1/3 49/1/3
f  25/1/10 50/1/10 27/1/10
f  44/1/8 46/1/8 50/1/8
f  45/1/3 52/1/3 51/1/3
f  59/1/1 52/1/1 36/1/1
f  26/1/5 53/1/5 57/1/5
f  44/1/9 53/1/9 46/1/9
f  54/1/8 50/1/8 46/1/8
f  54/1/10 27/1/10 50/1/10
f  55/1/2 38/1/2 40/1/2
f  48/1/6 51/1/6 56/1/6
f  59/1/5 36/1/5 56/1/5
f  57/1/9 60/1/9 49/1/9
f  53/1/8 58/1/8 43/1/8
f  43/1/7 58/1/7 53/1/7
f  58/1/9 49/1/9 60/1/9
f  61/1/3 51/1/3 52/1/3
f  59/1/2 56/1/2 52/1/2
f  60/1/5 57/1/5 53/1/5
f  61/1/6 56/1/6 51/1/6
f  58/1/8 53/1/8 60/1/8
f  60/1/7 53/1/7 58/1/7
f  61/1/2 52/1/2 56/1/2

# Mesh 'mesh1_mesh1-geometry' with 77 faces
g mesh1_mesh1-geometry
usemtl material_2_1_8
f  6/2/1 28/3/1 9/4/1
f  10/5/4 29/6/4 7/7/4
f  7/1/1 30/8/1 11/9/1
f  31/10/2 6/11/2 13/12/2
f  28/3/1 6/2/1 32/13/1
f  28/14/4 21/15/4 9/16/4
f  10/5/4 33/17/4 29/6/4
f  34/18/4 7/7/4 29/6/4
f  30/8/1 7/1/1 35/19/1
f  30/20/2 16/5/2 11/7/2
f  18/21/7 17/22/7 12/23/7
f  19/4/6 31/24/6 13/25/6
f  6/11/2 31/10/2 32/26/2
f  31/27/3 28/28/3 32/29/3
f  21/15/4 28/14/4 36/30/4
f  16/31/6 37/19/6 10/1/6
f  37/32/4 33/17/4 10/5/4
f  38/33/1 29/34/1 33/35/1
f  39/36/4 7/7/4 34/18/4
f  29/37/5 40/38/5 34/39/5
f  39/36/4 35/40/4 7/7/4
f  37/5/5 30/41/5 35/7/5
f  16/5/2 30/20/2 41/42/2
f  17/22/7 18/21/7 23/43/7
f  31/24/6 19/4/6 42/3/6
f  21/15/4 36/30/4 19/44/4
f  20/45/10 43/46/10 24/47/10
f  25/48/3 44/49/3 20/50/3
f  28/28/3 31/27/3 42/5/3
f  36/30/4 28/14/4 45/51/4
f  26/52/10 46/53/10 22/54/10
f  46/55/5 27/56/5 22/50/5
f  37/19/6 16/31/6 41/57/6
f  33/17/4 37/32/4 39/36/4
f  29/34/1 38/33/1 47/58/1
f  39/39/3 38/59/3 33/37/3
f  40/60/6 39/35/6 34/34/6
f  40/38/5 29/37/5 47/61/5
f  35/40/4 39/36/4 37/32/4
f  30/41/5 37/5/5 41/62/5
f  19/44/4 48/63/4 42/64/4
f  48/63/4 19/44/4 36/30/4
f  49/65/7 26/66/7 24/67/7
f  44/68/10 43/46/10 20/45/10
f  43/69/5 49/70/5 24/50/5
f  44/49/3 25/48/3 50/71/3
f  42/64/4 51/72/4 28/14/4
f  45/51/4 28/14/4 51/72/4
f  52/73/6 36/74/6 45/75/6
f  46/53/10 26/52/10 53/76/10
f  27/56/5 46/55/5 54/77/5
f  38/17/4 40/18/4 47/6/4
f  38/59/3 39/39/3 55/78/3
f  39/35/6 40/60/6 55/79/6
f  42/64/4 48/63/4 51/72/4
f  36/80/3 56/81/3 48/82/3
f  26/66/7 49/65/7 57/83/7
f  44/68/10 53/76/10 43/46/10
f  49/70/5 43/69/5 58/84/5
f  27/85/9 50/86/9 25/87/9
f  50/88/7 46/89/7 44/90/7
f  51/82/5 52/91/5 45/80/5
f  36/74/6 52/73/6 59/92/6
f  57/93/3 53/94/3 26/50/3
f  46/53/10 53/76/10 44/68/10
f  46/89/7 50/88/7 54/95/7
f  50/86/9 27/85/9 54/96/9
f  40/18/4 38/17/4 55/36/4
f  56/97/1 51/75/1 48/74/1
f  56/81/3 36/80/3 59/98/3
f  49/47/10 60/76/10 57/52/10
f  60/76/10 49/47/10 58/46/10
f  52/91/5 51/82/5 61/99/5
f  52/51/4 56/63/4 59/30/4
f  53/94/3 57/93/3 60/100/3
f  51/75/1 56/97/1 61/101/1
f  56/63/4 52/51/4 61/72/4

# Mesh 'mesh2_mesh2-geometry' with 1 faces
g mesh2_mesh2-geometry
usemtl material_1_0
l  53 60

