# File produced by Open Asset Import Library (http://www.assimp.sf.net)
# (assimp v3.2.202087883)

mtllib model_normalized.mtl

# 48 vertex positions
v -0.158803 0.264913 -0.218795
v 0.158803 0.264913 -0.197621
v 0.158803 0.264913 -0.218795
v -0.158803 0.264913 -0.197621
v 0.158803 -0.281696 -0.218795
v -0.158803 -0.281696 -0.197621
v -0.132336 0.238445 -0.197621
v 0.158803 -0.281696 -0.197621
v -0.158803 -0.281696 -0.218795
v -0.132336 -0.255228 -0.197621
v 0.132336 0.238445 -0.197621
v 0.132336 -0.255228 -0.197621
v -0.132336 -0.255228 0.225853
v 0.111162 0.238445 -0.176448
v -0.132336 0.238445 0.225853
v 0.132336 0.238445 0.225853
v -0.111162 0.238445 -0.176448
v -0.111162 0.238445 0.204679
v 0.132336 -0.255228 0.225853
v 0.111162 0.238445 0.204679
v -0.111162 -0.211496 -0.176448
v 0.111162 -0.211496 0.204679
v 0.111162 -0.211496 -0.176448
v -0.111162 -0.211496 0.204679
v -0.158803 -0.351772 0.395243
v 0.158803 -0.351772 -0.112927
v 0.158803 -0.351772 0.395243
v -0.158803 -0.351772 -0.112927
v 0.158803 -0.281696 -0.091753
v 0.158803 0.370781 0.395243
v -0.158803 -0.281696 -0.112927
v 0.158803 -0.281696 -0.112927
v -0.158803 0.370781 0.395243
v -0.158803 -0.281696 -0.091753
v 0.158803 0.275499 -0.091753
v -0.158803 0.370781 -0.112927
v -0.158803 0.275499 -0.091753
v 0.158803 0.275499 -0.112927
v 0.137629 -0.260522 -0.091753
v 0.158803 0.370781 -0.112927
v -0.137629 -0.260522 -0.091753
v 0.137629 0.254326 -0.091753
v -0.158803 0.275499 -0.112927
v -0.137629 0.254326 -0.091753
v 0.137629 -0.260522 0.374069
v -0.137629 0.254326 0.374069
v -0.137629 -0.260522 0.374069
v 0.137629 0.254326 0.374069

# 10 UV coordinates
vt 0 0 0
vt 0 0.096985 0
vt 1 0.85348 0
vt 0 0.85348 0
vt 1 0.096985 0
vt 1 0 0
vt 0 0.868132 0
vt 1 1 0
vt 0 1 0
vt 1 0.868132 0

# 6 vertex normals
vn 0 0.0254 0
vn 0.0254 0 0
vn -0.0254 0 0
vn 0 0 0.0254
vn 0 -0.0254 0
vn 0 0 -0.0254

# Mesh 'mesh1_mesh1-geometry' with 42 faces
g mesh1_mesh1-geometry
usemtl material_0_24
f  1/1/1 2/1/1 3/1/1
f  2/1/1 1/1/1 4/1/1
f  2/1/2 5/1/2 3/1/2
f  1/1/3 6/1/3 4/1/3
f  4/1/4 7/1/4 2/1/4
f  5/1/2 2/1/2 8/1/2
f  6/1/3 1/1/3 9/1/3
f  6/1/4 10/1/4 4/1/4
f  4/1/4 10/1/4 7/1/4
f  11/1/4 2/1/4 7/1/4
f  2/1/4 12/1/4 8/1/4
f  6/1/5 5/1/5 8/1/5
f  5/1/5 6/1/5 9/1/5
f  10/1/4 6/1/4 8/1/4
f  13/1/3 7/1/3 10/1/3
f  12/1/4 2/1/4 11/1/4
f  14/1/1 11/1/1 7/1/1
f  10/1/4 8/1/4 12/1/4
f  7/1/3 13/1/3 15/1/3
f  12/1/5 13/1/5 10/1/5
f  16/1/2 12/1/2 11/1/2
f  11/1/1 14/1/1 16/1/1
f  14/1/1 7/1/1 17/1/1
f  13/1/4 16/1/4 15/1/4
f  15/1/1 18/1/1 7/1/1
f  13/1/5 12/1/5 19/1/5
f  12/1/2 16/1/2 19/1/2
f  20/1/1 16/1/1 14/1/1
f  17/1/1 7/1/1 18/1/1
f  21/1/4 14/1/4 17/1/4
f  16/1/4 13/1/4 19/1/4
f  16/1/1 20/1/1 15/1/1
f  15/1/1 20/1/1 18/1/1
f  14/1/3 22/1/3 20/1/3
f  18/1/2 21/1/2 17/1/2
f  14/1/4 21/1/4 23/1/4
f  22/1/6 18/1/6 20/1/6
f  22/1/3 14/1/3 23/1/3
f  21/1/2 18/1/2 24/1/2
f  21/1/1 22/1/1 23/1/1
f  18/1/6 22/1/6 24/1/6
f  22/1/1 21/1/1 24/1/1

# Mesh 'mesh1_mesh1-geometry' with 44 faces
g mesh1_mesh1-geometry
usemtl material_1_24
f  3/1/5 2/1/5 1/1/5
f  4/1/5 1/1/5 2/1/5
f  3/1/3 5/1/3 2/1/3
f  3/1/4 1/1/4 5/1/4
f  4/1/2 6/1/2 1/1/2
f  2/1/6 7/1/6 4/1/6
f  8/1/3 2/1/3 5/1/3
f  9/1/4 5/1/4 1/1/4
f  9/1/2 1/1/2 6/1/2
f  4/1/6 10/1/6 6/1/6
f  7/1/6 10/1/6 4/1/6
f  7/1/6 2/1/6 11/1/6
f  8/1/6 12/1/6 2/1/6
f  8/1/1 5/1/1 6/1/1
f  9/1/1 6/1/1 5/1/1
f  8/1/6 6/1/6 10/1/6
f  10/1/2 7/1/2 13/1/2
f  11/1/6 2/1/6 12/1/6
f  7/1/5 11/1/5 14/1/5
f  12/1/6 8/1/6 10/1/6
f  15/1/2 13/1/2 7/1/2
f  10/1/1 13/1/1 12/1/1
f  11/1/3 12/1/3 16/1/3
f  16/1/5 14/1/5 11/1/5
f  17/1/5 7/1/5 14/1/5
f  15/1/6 16/1/6 13/1/6
f  7/1/5 18/1/5 15/1/5
f  19/1/1 12/1/1 13/1/1
f  19/1/3 16/1/3 12/1/3
f  14/1/5 16/1/5 20/1/5
f  18/1/5 7/1/5 17/1/5
f  17/1/6 14/1/6 21/1/6
f  19/1/6 13/1/6 16/1/6
f  15/1/5 20/1/5 16/1/5
f  18/1/5 20/1/5 15/1/5
f  20/1/2 22/1/2 14/1/2
f  17/1/3 21/1/3 18/1/3
f  23/1/6 21/1/6 14/1/6
f  20/1/4 18/1/4 22/1/4
f  23/1/2 14/1/2 22/1/2
f  24/1/3 18/1/3 21/1/3
f  23/1/5 22/1/5 21/1/5
f  24/1/4 22/1/4 18/1/4
f  24/1/5 21/1/5 22/1/5

# Mesh 'mesh1_mesh1-geometry' with 2 faces
g mesh1_mesh1-geometry
usemtl material_2_1_8
f  5/2/6 1/3/6 3/4/6
f  1/3/6 5/2/6 9/5/6

# Mesh 'mesh2_mesh2-geometry' with 40 faces
g mesh2_mesh2-geometry
usemtl material_0_24
f  25/1/5 26/1/5 27/1/5
f  26/1/5 25/1/5 28/1/5
f  26/1/2 29/1/2 27/1/2
f  30/1/4 25/1/4 27/1/4
f  25/1/3 31/1/3 28/1/3
f  29/1/2 26/1/2 32/1/2
f  27/1/2 29/1/2 30/1/2
f  25/1/4 30/1/4 33/1/4
f  31/1/3 25/1/3 34/1/3
f  31/1/1 29/1/1 32/1/1
f  35/1/2 30/1/2 29/1/2
f  30/1/1 36/1/1 33/1/1
f  33/1/3 37/1/3 25/1/3
f  34/1/3 25/1/3 37/1/3
f  29/1/1 31/1/1 34/1/1
f  38/1/2 30/1/2 35/1/2
f  29/1/6 39/1/6 35/1/6
f  36/1/1 30/1/1 40/1/1
f  36/1/3 37/1/3 33/1/3
f  41/1/6 34/1/6 37/1/6
f  34/1/6 41/1/6 29/1/6
f  30/1/2 38/1/2 40/1/2
f  37/1/5 38/1/5 35/1/5
f  39/1/6 29/1/6 41/1/6
f  35/1/6 39/1/6 42/1/6
f  37/1/3 36/1/3 43/1/3
f  41/1/6 37/1/6 44/1/6
f  38/1/5 37/1/5 43/1/5
f  35/1/6 42/1/6 37/1/6
f  41/1/1 45/1/1 39/1/1
f  45/1/3 42/1/3 39/1/3
f  44/1/6 37/1/6 42/1/6
f  46/1/2 41/1/2 44/1/2
f  45/1/1 41/1/1 47/1/1
f  42/1/3 45/1/3 48/1/3
f  42/1/5 46/1/5 44/1/5
f  41/1/2 46/1/2 47/1/2
f  46/1/6 45/1/6 47/1/6
f  45/1/6 46/1/6 48/1/6
f  46/1/5 42/1/5 48/1/5

# Mesh 'mesh2_mesh2-geometry' with 44 faces
g mesh2_mesh2-geometry
usemtl material_1_24
f  27/1/1 26/1/1 25/1/1
f  28/1/1 25/1/1 26/1/1
f  27/1/3 29/1/3 26/1/3
f  27/1/6 25/1/6 30/1/6
f  28/1/2 31/1/2 25/1/2
f  28/1/4 26/1/4 31/1/4
f  32/1/3 26/1/3 29/1/3
f  30/1/3 29/1/3 27/1/3
f  33/1/6 30/1/6 25/1/6
f  34/1/2 25/1/2 31/1/2
f  32/1/4 31/1/4 26/1/4
f  32/1/5 29/1/5 31/1/5
f  29/1/3 30/1/3 35/1/3
f  33/1/5 36/1/5 30/1/5
f  25/1/2 37/1/2 33/1/2
f  37/1/2 25/1/2 34/1/2
f  34/1/5 31/1/5 29/1/5
f  35/1/3 30/1/3 38/1/3
f  35/1/4 39/1/4 29/1/4
f  40/1/5 30/1/5 36/1/5
f  33/1/2 37/1/2 36/1/2
f  37/1/4 34/1/4 41/1/4
f  29/1/4 41/1/4 34/1/4
f  40/1/3 38/1/3 30/1/3
f  35/1/1 38/1/1 37/1/1
f  41/1/4 29/1/4 39/1/4
f  42/1/4 39/1/4 35/1/4
f  40/1/4 36/1/4 38/1/4
f  43/1/2 36/1/2 37/1/2
f  44/1/4 37/1/4 41/1/4
f  43/1/1 37/1/1 38/1/1
f  37/1/4 42/1/4 35/1/4
f  39/1/5 45/1/5 41/1/5
f  39/1/2 42/1/2 45/1/2
f  43/1/4 38/1/4 36/1/4
f  42/1/4 37/1/4 44/1/4
f  44/1/3 41/1/3 46/1/3
f  47/1/5 41/1/5 45/1/5
f  48/1/2 45/1/2 42/1/2
f  44/1/1 46/1/1 42/1/1
f  47/1/3 46/1/3 41/1/3
f  47/1/4 45/1/4 46/1/4
f  48/1/4 46/1/4 45/1/4
f  48/1/1 42/1/1 46/1/1

# Mesh 'mesh2_mesh2-geometry' with 4 faces
g mesh2_mesh2-geometry
usemtl material_2_1_8
f  31/5/6 26/1/6 28/6/6
f  26/1/6 31/5/6 32/2/6
f  38/7/6 36/8/6 40/9/6
f  36/8/6 38/7/6 43/10/6

