# File produced by Open Asset Import Library (http://www.assimp.sf.net)
# (assimp v3.2.202087883)

mtllib model_normalized.mtl

# 120 vertex positions
v -0.284895 -0.228262 -0.076335
v -0.284895 -0.228262 0.076331
v -0.294949 -0.228262 0.000004
v -0.255426 -0.228262 -0.147468
v -0.294949 0.323158 0.000004
v -0.284895 0.323158 -0.076335
v -0.255426 0.323158 -0.147468
v -0.255426 -0.228262 0.147472
v -0.284895 0.323158 0.076331
v -0.208555 0.323158 -0.208560
v -0.208555 -0.228262 -0.208560
v -0.218006 -0.228262 0.000004
v -0.255426 0.323158 0.147472
v -0.147476 -0.228262 -0.255431
v -0.210569 -0.228262 -0.056420
v -0.208555 -0.228262 0.208556
v -0.208555 0.323158 0.208556
v -0.147476 0.323158 -0.255431
v -0.188794 -0.228262 -0.108997
v -0.210569 -0.228262 0.056416
v -0.147476 0.323158 0.255430
v -0.076343 -0.228262 -0.284900
v -0.154144 -0.228262 -0.154149
v -0.188794 -0.228262 0.109001
v -0.147476 -0.228262 0.255430
v -0.076343 0.323158 -0.284900
v -0.109005 -0.228262 -0.188799
v -0.210569 -0.189791 -0.056420
v -0.210569 -0.189791 0.056416
v -0.218006 -0.189791 0.000004
v -0.188794 -0.189791 -0.108997
v -0.076343 0.323158 0.284895
v -0.000003 -0.228262 -0.294941
v -0.056428 -0.228262 -0.210574
v -0.188794 -0.189791 0.109001
v -0.154144 -0.189791 -0.154149
v -0.154144 -0.228262 0.154151
v -0.076343 -0.228262 0.284895
v -0.000003 0.323158 -0.294941
v -0.154144 -0.189791 0.154151
v -0.109005 -0.228262 0.188795
v -0.000003 0.323158 0.294945
v 0.076336 -0.228262 -0.284900
v -0.000003 -0.228262 -0.217999
v -0.109005 -0.189791 -0.188799
v -0.056428 -0.228262 0.210574
v -0.000003 -0.228262 0.294945
v 0.076336 0.323158 -0.284900
v -0.109005 -0.189791 0.188795
v 0.076336 0.323158 0.284895
v -0.056428 -0.189791 0.210574
v -0.056428 -0.189791 -0.210574
v 0.147470 -0.228262 -0.255431
v 0.056421 -0.228262 -0.210574
v -0.000003 -0.228262 0.218002
v 0.076336 -0.228262 0.284895
v -0.000003 -0.189791 -0.217999
v -0.000003 -0.189791 0.218002
v 0.147470 0.323158 -0.255431
v 0.108998 -0.228262 -0.188799
v 0.056421 -0.228262 0.210574
v 0.147470 0.323158 0.255430
v 0.056421 -0.189791 -0.210574
v 0.208562 -0.228262 -0.208560
v 0.154151 -0.228262 -0.154149
v 0.108998 -0.228262 0.188795
v 0.147470 -0.228262 0.255430
v 0.056421 -0.189791 0.210574
v 0.208562 0.323158 -0.208560
v 0.208562 0.323158 0.208556
v 0.108998 -0.189791 0.188795
v 0.108998 -0.189791 -0.188799
v 0.255432 0.323158 -0.147468
v 0.188800 -0.228262 -0.108997
v 0.154151 -0.228262 0.154151
v 0.208562 -0.228262 0.208556
v 0.154151 -0.189791 0.154151
v 0.255432 -0.228262 -0.147468
v 0.210575 -0.228262 -0.056420
v 0.255432 -0.228262 0.147472
v 0.154151 -0.189791 -0.154149
v 0.284901 0.323158 -0.076335
v 0.188800 -0.228262 0.109001
v 0.255432 0.323158 0.147472
v 0.210575 -0.228262 0.056416
v 0.188800 -0.189791 -0.108997
v 0.284901 -0.228262 -0.076335
v 0.218000 -0.228262 0.000004
v 0.284901 -0.228262 0.076331
v 0.188800 -0.189791 0.109001
v 0.210575 -0.189791 0.056416
v 0.210575 -0.189791 -0.056420
v 0.294942 0.323158 0.000004
v 0.284901 0.323158 0.076331
v 0.218000 -0.189791 0.000004
v 0.294942 -0.228262 0.000004
v -0.218006 0.323158 0.000004
v -0.210569 0.323158 -0.056420
v -0.188794 0.323158 -0.108997
v -0.210569 0.323158 0.056416
v -0.188794 0.323158 0.109001
v -0.154144 0.323158 -0.154149
v -0.154144 0.323158 0.154151
v -0.109005 0.323158 -0.188799
v -0.109005 0.323158 0.188795
v -0.056428 0.323158 -0.210574
v -0.056428 0.323158 0.210574
v -0.000003 0.323158 -0.217999
v -0.000003 0.323158 0.218002
v 0.056421 0.323158 -0.210574
v 0.108998 0.323158 -0.188799
v 0.056421 0.323158 0.210574
v 0.108998 0.323158 0.188795
v 0.154151 0.323158 -0.154149
v 0.154151 0.323158 0.154151
v 0.188800 0.323158 -0.108997
v 0.210575 0.323158 -0.056420
v 0.188800 0.323158 0.109001
v 0.218000 0.323158 0.000004
v 0.210575 0.323158 0.056416

# 122 UV coordinates
vt 0 0 0
vt 1.47203 0.744573 0
vt 1.47203 0.831374 0
vt 1.46631 0.787973 0
vt 1.48878 0.70413 0
vt 1.48878 0.871817 0
vt 1.51006 0.787973 0
vt 1.51543 0.906546 0
vt 1.51543 0.669401 0
vt 1.51428 0.820052 0
vt 0.389378 0.29163 0
vt 0.421826 -0 0
vt 0.421826 0.29163 0
vt 1.52666 0.849945 0
vt 1.51428 0.755895 0
vt 1.55016 0.933195 0
vt 0.389378 -0 0
vt 0.454274 -0 0
vt 0.454274 0.29163 0
vt 1.52666 0.726002 0
vt 0.35693 0.29163 0
vt 1.55016 0.642752 0
vt 1.54636 0.875614 0
vt -1.51006 0.787973 0
vt -1.51428 0.755895 0
vt -1.51428 0.820052 0
vt -1.52666 0.849945 0
vt 0.486722 -0 0
vt 0.324482 0.29163 0
vt 0.35693 -0 0
vt 1.54636 0.700333 0
vt 0.486722 0.29163 0
vt 1.57203 0.895311 0
vt 1.5906 0.949947 0
vt -1.52666 0.726002 0
vt -1.54636 0.875614 0
vt 0.324482 -0 0
vt 1.57203 0.680636 0
vt 1.5906 0.626 0
vt 0.292033 0.29163 0
vt 0.519171 0.29163 0
vt 1.60192 0.907693 0
vt -1.54636 0.700333 0
vt 1.60192 0.668254 0
vt 0.259585 -0 0
vt 0.259585 0.29163 0
vt 0.292033 -0 0
vt 0.519171 -0 0
vt 0.551619 0.29163 0
vt 1.634 0.955661 0
vt -1.57203 0.895311 0
vt 1.634 0.620286 0
vt 0.227137 0 0
vt 0.227137 0.29163 0
vt 0.551619 -0 0
vt 1.634 0.911916 0
vt -1.57203 0.680636 0
vt 1.634 0.664031 0
vt 0.194689 -0 0
vt -1.60192 0.668254 0
vt -1.60192 0.907693 0
vt 0.584067 0.29163 0
vt 1.66608 0.907693 0
vt 1.6774 0.949947 0
vt 1.6774 0.626 0
vt 0.194689 0.29163 0
vt -1.634 0.664031 0
vt -1.634 0.911916 0
vt 0.584067 -0 0
vt 0.616515 0.29163 0
vt 1.69597 0.895311 0
vt 1.66608 0.668254 0
vt 0.162241 -0 0
vt -1.66608 0.907693 0
vt 0.616515 -0 0
vt 0.648963 0.29163 0
vt 1.71784 0.933195 0
vt 1.69597 0.680636 0
vt 1.71784 0.642752 0
vt 0.162241 0.29163 0
vt -1.66608 0.668254 0
vt 0.648963 -0 0
vt 1.72164 0.875614 0
vt 1.72164 0.700333 0
vt 0.129793 -0 0
vt 0.129793 0.29163 0
vt -1.69597 0.680636 0
vt -1.69597 0.895311 0
vt 0.681411 0.29163 0
vt 1.75257 0.906546 0
vt 1.75257 0.669401 0
vt 0.097344 0 0
vt 0.097344 0.29163 0
vt -1.72164 0.700333 0
vt 0.681411 -0 0
vt 1.74134 0.849945 0
vt 1.75372 0.820052 0
vt 1.77922 0.871817 0
vt 1.74134 0.726002 0
vt 0.064896 0.29163 0
vt -1.72164 0.875614 0
vt 0.71386 -0 0
vt 0.71386 0.29163 0
vt 1.75794 0.787973 0
vt 1.75372 0.755895 0
vt 0.064896 -0 0
vt -1.74134 0.849945 0
vt 0.746308 -0 0
vt 0.746308 0.29163 0
vt 1.79597 0.744573 0
vt 1.79597 0.831374 0
vt 0.778756 -0 0
vt 0.778756 0.29163 0
vt 1.77922 0.70413 0
vt 0.032448 0.29163 0
vt -1.74134 0.726002 0
vt -1.75372 0.820052 0
vt -1.75372 0.755895 0
vt 1.80169 0.787973 0
vt 0.032448 -0 0
vt 0 0.29163 0
vt -1.75794 0.787973 0

# 26 vertex normals
vn 0 -1 0
vn -0.965926 0 0.258819
vn -1 0 0
vn -0.965926 0 -0.258819
vn -0.866025 0 -0.5
vn -0.707107 0 -0.707107
vn -0.866025 0 0.5
vn -0.5 0 -0.866025
vn -0.707107 0 0.707107
vn -0.5 0 0.866025
vn -0.258819 0 -0.965926
vn -0.258819 0 0.965926
vn 0 0 -1
vn 0 0 1
vn 0.258819 0 -0.965926
vn 0.258819 0 0.965926
vn 0.5 0 -0.866025
vn 0.5 0 0.866025
vn 0.707107 0 -0.707107
vn 0.707107 0 0.707107
vn 0.866025 0 -0.5
vn 0.866025 0 0.5
vn 0.965926 0 -0.258819
vn 0.965926 0 0.258819
vn 1 0 0
vn 0 1 0

# Mesh 'mesh1_mesh1-geometry' with 118 faces
g mesh1_mesh1-geometry
usemtl material_0_24
f  1/1/1 2/1/1 3/1/1
f  2/1/1 1/1/1 4/1/1
f  2/1/2 5/1/3 3/1/3
f  3/1/3 6/1/4 1/1/4
f  1/1/4 7/1/5 4/1/5
f  2/1/1 4/1/1 8/1/1
f  5/1/3 2/1/2 9/1/2
f  6/1/4 3/1/3 5/1/3
f  7/1/5 1/1/4 6/1/4
f  10/1/6 4/1/5 7/1/5
f  8/1/1 4/1/1 11/1/1
f  8/1/7 9/1/2 2/1/2
f  4/1/5 10/1/6 11/1/6
f  8/1/1 11/1/1 12/1/1
f  9/1/2 8/1/7 13/1/7
f  10/1/6 14/1/8 11/1/6
f  12/1/1 11/1/1 15/1/1
f  12/1/1 16/1/1 8/1/1
f  16/1/9 13/1/7 8/1/7
f  13/1/7 16/1/9 17/1/9
f  14/1/8 10/1/6 18/1/8
f  19/1/1 11/1/1 14/1/1
f  15/1/1 11/1/1 19/1/1
f  16/1/1 12/1/1 20/1/1
f  16/1/9 21/1/10 17/1/9
f  18/1/8 22/1/11 14/1/8
f  19/1/1 14/1/1 23/1/1
f  16/1/1 20/1/1 24/1/1
f  21/1/10 16/1/9 25/1/10
f  22/1/11 18/1/8 26/1/11
f  27/1/1 14/1/1 22/1/1
f  23/1/1 14/1/1 27/1/1
f  28/1/1 29/1/1 30/1/1
f  29/1/1 28/1/1 31/1/1
f  16/1/1 24/1/1 25/1/1
f  25/1/10 32/1/12 21/1/10
f  26/1/11 33/1/13 22/1/11
f  27/1/1 22/1/1 34/1/1
f  29/1/1 31/1/1 35/1/1
f  35/1/1 31/1/1 36/1/1
f  25/1/1 24/1/1 37/1/1
f  32/1/12 25/1/10 38/1/12
f  33/1/13 26/1/11 39/1/13
f  34/1/1 22/1/1 33/1/1
f  35/1/1 36/1/1 40/1/1
f  25/1/1 37/1/1 41/1/1
f  25/1/1 41/1/1 38/1/1
f  38/1/12 42/1/14 32/1/12
f  39/1/13 43/1/15 33/1/13
f  34/1/1 33/1/1 44/1/1
f  40/1/1 36/1/1 45/1/1
f  38/1/1 41/1/1 46/1/1
f  42/1/14 38/1/12 47/1/14
f  43/1/15 39/1/13 48/1/15
f  44/1/1 33/1/1 43/1/1
f  40/1/1 45/1/1 49/1/1
f  38/1/1 46/1/1 47/1/1
f  47/1/14 50/1/16 42/1/14
f  49/1/1 45/1/1 51/1/1
f  51/1/1 45/1/1 52/1/1
f  48/1/15 53/1/17 43/1/15
f  44/1/1 43/1/1 54/1/1
f  47/1/1 46/1/1 55/1/1
f  50/1/16 47/1/14 56/1/16
f  51/1/1 57/1/1 58/1/1
f  51/1/1 52/1/1 57/1/1
f  53/1/17 48/1/15 59/1/17
f  60/1/1 43/1/1 53/1/1
f  54/1/1 43/1/1 60/1/1
f  47/1/1 55/1/1 61/1/1
f  47/1/1 61/1/1 56/1/1
f  56/1/16 62/1/18 50/1/16
f  58/1/1 57/1/1 63/1/1
f  59/1/17 64/1/19 53/1/17
f  60/1/1 53/1/1 65/1/1
f  56/1/1 61/1/1 66/1/1
f  62/1/18 56/1/16 67/1/18
f  58/1/1 63/1/1 68/1/1
f  64/1/19 59/1/17 69/1/19
f  65/1/1 53/1/1 64/1/1
f  56/1/1 66/1/1 67/1/1
f  67/1/18 70/1/20 62/1/18
f  68/1/1 63/1/1 71/1/1
f  71/1/1 63/1/1 72/1/1
f  73/1/21 64/1/19 69/1/19
f  65/1/1 64/1/1 74/1/1
f  67/1/1 66/1/1 75/1/1
f  70/1/20 67/1/18 76/1/20
f  71/1/1 72/1/1 77/1/1
f  64/1/19 73/1/21 78/1/21
f  74/1/1 64/1/1 79/1/1
f  67/1/1 75/1/1 76/1/1
f  80/1/22 70/1/20 76/1/20
f  77/1/1 72/1/1 81/1/1
f  82/1/23 78/1/21 73/1/21
f  79/1/1 64/1/1 78/1/1
f  76/1/1 75/1/1 83/1/1
f  70/1/20 80/1/22 84/1/22
f  76/1/1 85/1/1 80/1/1
f  77/1/1 81/1/1 86/1/1
f  78/1/21 82/1/23 87/1/23
f  79/1/1 78/1/1 88/1/1
f  76/1/1 83/1/1 85/1/1
f  89/1/24 84/1/22 80/1/22
f  80/1/1 85/1/1 88/1/1
f  77/1/1 86/1/1 90/1/1
f  91/1/1 86/1/1 92/1/1
f  93/1/25 87/1/23 82/1/23
f  80/1/1 78/1/1 87/1/1
f  80/1/1 88/1/1 78/1/1
f  84/1/22 89/1/24 94/1/24
f  80/1/1 87/1/1 89/1/1
f  90/1/1 86/1/1 91/1/1
f  91/1/1 92/1/1 95/1/1
f  87/1/23 93/1/25 96/1/25
f  94/1/24 96/1/25 93/1/25
f  96/1/25 94/1/24 89/1/24
f  89/1/1 87/1/1 96/1/1

# Mesh 'mesh1_mesh1-geometry' with 192 faces
g mesh1_mesh1-geometry
usemtl material_1_24
f  3/1/26 2/1/26 1/1/26
f  4/1/26 1/1/26 2/1/26
f  3/1/25 5/1/25 2/1/23
f  1/1/24 6/1/24 3/1/25
f  4/1/22 7/1/22 1/1/24
f  8/1/26 4/1/26 2/1/26
f  9/1/23 2/1/23 5/1/25
f  5/1/25 3/1/25 6/1/24
f  6/1/24 1/1/24 7/1/22
f  7/1/22 4/1/22 10/1/20
f  11/1/26 4/1/26 8/1/26
f  2/1/23 9/1/23 8/1/21
f  5/1/1 6/1/1 9/1/1
f  7/1/1 13/1/1 6/1/1
f  11/1/20 10/1/20 4/1/22
f  7/1/1 10/1/1 97/1/1
f  12/1/26 11/1/26 8/1/26
f  13/1/21 8/1/21 9/1/23
f  13/1/1 9/1/1 6/1/1
f  17/1/1 13/1/1 7/1/1
f  11/1/20 14/1/18 10/1/20
f  98/1/1 97/1/1 10/1/1
f  97/1/1 17/1/1 7/1/1
f  15/1/26 11/1/26 12/1/26
f  8/1/26 16/1/26 12/1/26
f  8/1/21 13/1/21 16/1/19
f  17/1/19 16/1/19 13/1/21
f  18/1/18 10/1/20 14/1/18
f  14/1/26 11/1/26 19/1/26
f  98/1/4 28/1/4 97/1/3
f  99/1/1 98/1/1 10/1/1
f  100/1/1 17/1/1 97/1/1
f  19/1/26 11/1/26 15/1/26
f  20/1/26 12/1/26 16/1/26
f  17/1/19 21/1/17 16/1/19
f  18/1/1 99/1/1 10/1/1
f  14/1/18 22/1/16 18/1/18
f  23/1/26 14/1/26 19/1/26
f  30/1/3 97/1/3 28/1/4
f  28/1/4 98/1/4 31/1/5
f  99/1/5 31/1/5 98/1/4
f  101/1/1 17/1/1 100/1/1
f  97/1/3 30/1/3 100/1/2
f  24/1/26 20/1/26 16/1/26
f  25/1/17 16/1/19 21/1/17
f  21/1/1 17/1/1 101/1/1
f  102/1/1 99/1/1 18/1/1
f  26/1/16 18/1/18 22/1/16
f  22/1/26 14/1/26 27/1/26
f  27/1/26 14/1/26 23/1/26
f  31/1/5 99/1/5 36/1/6
f  100/1/2 29/1/2 101/1/7
f  29/1/2 100/1/2 30/1/3
f  25/1/26 24/1/26 16/1/26
f  21/1/17 32/1/15 25/1/17
f  103/1/1 21/1/1 101/1/1
f  102/1/6 36/1/6 99/1/5
f  104/1/1 102/1/1 18/1/1
f  26/1/1 104/1/1 18/1/1
f  22/1/16 33/1/14 26/1/16
f  34/1/26 22/1/26 27/1/26
f  35/1/7 101/1/7 29/1/2
f  37/1/26 24/1/26 25/1/26
f  38/1/15 25/1/17 32/1/15
f  32/1/1 21/1/1 105/1/1
f  105/1/1 21/1/1 103/1/1
f  101/1/7 35/1/7 103/1/9
f  102/1/6 104/1/8 36/1/6
f  106/1/1 104/1/1 26/1/1
f  39/1/14 26/1/16 33/1/14
f  33/1/26 22/1/26 34/1/26
f  41/1/26 37/1/26 25/1/26
f  38/1/26 41/1/26 25/1/26
f  32/1/15 42/1/13 38/1/15
f  107/1/1 32/1/1 105/1/1
f  105/1/10 103/1/9 49/1/10
f  40/1/9 103/1/9 35/1/7
f  45/1/8 36/1/6 104/1/8
f  104/1/8 106/1/11 45/1/8
f  39/1/1 106/1/1 26/1/1
f  33/1/14 43/1/12 39/1/14
f  44/1/26 33/1/26 34/1/26
f  46/1/26 41/1/26 38/1/26
f  47/1/13 38/1/15 42/1/13
f  42/1/1 32/1/1 107/1/1
f  107/1/12 105/1/10 51/1/12
f  40/1/9 49/1/10 103/1/9
f  49/1/10 51/1/12 105/1/10
f  52/1/11 45/1/8 106/1/11
f  108/1/1 106/1/1 39/1/1
f  48/1/12 39/1/14 43/1/12
f  43/1/26 33/1/26 44/1/26
f  47/1/26 46/1/26 38/1/26
f  42/1/13 50/1/11 47/1/13
f  109/1/1 42/1/1 107/1/1
f  51/1/12 58/1/14 107/1/12
f  106/1/11 108/1/13 52/1/11
f  110/1/1 108/1/1 39/1/1
f  48/1/1 110/1/1 39/1/1
f  43/1/12 53/1/10 48/1/12
f  54/1/26 43/1/26 44/1/26
f  55/1/26 46/1/26 47/1/26
f  56/1/11 47/1/13 50/1/11
f  50/1/1 42/1/1 109/1/1
f  109/1/14 107/1/12 58/1/14
f  57/1/13 52/1/11 108/1/13
f  108/1/13 110/1/15 57/1/13
f  111/1/1 110/1/1 48/1/1
f  59/1/10 48/1/12 53/1/10
f  53/1/26 43/1/26 60/1/26
f  60/1/26 43/1/26 54/1/26
f  61/1/26 55/1/26 47/1/26
f  56/1/26 61/1/26 47/1/26
f  50/1/11 62/1/8 56/1/11
f  112/1/1 50/1/1 109/1/1
f  58/1/14 68/1/16 109/1/14
f  63/1/15 57/1/13 110/1/15
f  110/1/15 111/1/17 63/1/15
f  59/1/1 111/1/1 48/1/1
f  53/1/10 64/1/9 59/1/10
f  65/1/26 53/1/26 60/1/26
f  66/1/26 61/1/26 56/1/26
f  67/1/8 56/1/11 62/1/8
f  62/1/1 50/1/1 113/1/1
f  113/1/1 50/1/1 112/1/1
f  112/1/16 109/1/14 68/1/16
f  72/1/17 63/1/15 111/1/17
f  114/1/1 111/1/1 59/1/1
f  69/1/9 59/1/10 64/1/9
f  64/1/26 53/1/26 65/1/26
f  67/1/26 66/1/26 56/1/26
f  62/1/8 70/1/6 67/1/8
f  115/1/1 62/1/1 113/1/1
f  113/1/18 112/1/16 71/1/18
f  68/1/16 71/1/18 112/1/16
f  111/1/17 114/1/19 72/1/17
f  69/1/1 114/1/1 59/1/1
f  69/1/9 64/1/9 73/1/7
f  74/1/26 64/1/26 65/1/26
f  75/1/26 66/1/26 67/1/26
f  76/1/6 67/1/8 70/1/6
f  70/1/1 62/1/1 115/1/1
f  115/1/20 113/1/18 77/1/20
f  71/1/18 77/1/20 113/1/18
f  81/1/19 72/1/17 114/1/19
f  116/1/1 114/1/1 69/1/1
f  78/1/7 73/1/7 64/1/9
f  73/1/1 117/1/1 69/1/1
f  79/1/26 64/1/26 74/1/26
f  76/1/26 75/1/26 67/1/26
f  76/1/6 70/1/6 80/1/5
f  118/1/1 70/1/1 115/1/1
f  115/1/20 77/1/20 118/1/22
f  81/1/19 114/1/19 86/1/21
f  116/1/21 86/1/21 114/1/19
f  117/1/1 116/1/1 69/1/1
f  73/1/7 78/1/7 82/1/2
f  78/1/26 64/1/26 79/1/26
f  119/1/1 117/1/1 73/1/1
f  83/1/26 75/1/26 76/1/26
f  84/1/5 80/1/5 70/1/6
f  80/1/26 85/1/26 76/1/26
f  120/1/1 70/1/1 118/1/1
f  90/1/22 118/1/22 77/1/20
f  86/1/21 116/1/21 92/1/23
f  117/1/23 92/1/23 116/1/21
f  87/1/2 82/1/2 78/1/7
f  82/1/1 94/1/1 73/1/1
f  88/1/26 78/1/26 79/1/26
f  119/1/25 95/1/25 117/1/23
f  84/1/1 119/1/1 73/1/1
f  85/1/26 83/1/26 76/1/26
f  80/1/5 84/1/5 89/1/4
f  84/1/1 70/1/1 120/1/1
f  88/1/26 85/1/26 80/1/26
f  118/1/22 90/1/22 120/1/24
f  92/1/23 117/1/23 95/1/25
f  82/1/2 87/1/2 93/1/3
f  87/1/26 78/1/26 80/1/26
f  94/1/1 84/1/1 73/1/1
f  93/1/1 94/1/1 82/1/1
f  78/1/26 88/1/26 80/1/26
f  95/1/25 119/1/25 91/1/24
f  119/1/1 84/1/1 120/1/1
f  94/1/4 89/1/4 84/1/5
f  89/1/26 87/1/26 80/1/26
f  91/1/24 120/1/24 90/1/22
f  96/1/3 93/1/3 87/1/2
f  93/1/3 96/1/3 94/1/4
f  120/1/24 91/1/24 119/1/25
f  89/1/4 94/1/4 96/1/3
f  96/1/26 87/1/26 89/1/26

# Mesh 'mesh1_mesh1-geometry' with 118 faces
g mesh1_mesh1-geometry
usemtl material_2_1_8
f  9/2/26 6/3/26 5/4/26
f  6/3/26 13/5/26 7/6/26
f  97/7/26 10/8/26 7/6/26
f  6/3/26 9/2/26 13/5/26
f  7/6/26 13/5/26 17/9/26
f  10/8/26 97/7/26 98/10/26
f  7/6/26 17/9/26 97/7/26
f  97/11/25 28/12/24 98/13/24
f  10/8/26 98/10/26 99/14/26
f  97/7/26 17/9/26 100/15/26
f  10/8/26 99/14/26 18/16/26
f  28/12/24 97/11/25 30/17/25
f  31/18/22 98/13/24 28/12/24
f  98/13/24 31/18/22 99/19/22
f  100/15/26 17/9/26 101/20/26
f  100/21/23 30/17/25 97/11/25
f  101/20/26 17/9/26 21/22/26
f  18/16/26 99/14/26 102/23/26
f  30/24/26 29/25/26 28/26/26
f  31/27/26 28/26/26 29/25/26
f  36/28/20 99/19/22 31/18/22
f  101/29/21 29/30/23 100/21/23
f  30/17/25 100/21/23 29/30/23
f  101/20/26 21/22/26 103/31/26
f  99/19/22 36/28/20 102/32/20
f  18/16/26 102/23/26 104/33/26
f  18/16/26 104/33/26 26/34/26
f  35/35/26 31/27/26 29/25/26
f  36/36/26 31/27/26 35/35/26
f  29/30/23 101/29/21 35/37/21
f  105/38/26 21/22/26 32/39/26
f  103/31/26 21/22/26 105/38/26
f  103/40/19 35/37/21 101/29/21
f  36/28/20 104/41/18 102/32/20
f  26/34/26 104/33/26 106/42/26
f  40/43/26 36/36/26 35/35/26
f  105/38/26 32/39/26 107/44/26
f  49/45/17 103/40/19 105/46/17
f  35/37/21 103/40/19 40/47/19
f  104/41/18 36/28/20 45/48/18
f  45/48/18 106/49/16 104/41/18
f  26/34/26 106/42/26 39/50/26
f  45/51/26 36/36/26 40/43/26
f  107/44/26 32/39/26 42/52/26
f  51/53/15 105/46/17 107/54/15
f  103/40/19 49/45/17 40/47/19
f  105/46/17 51/53/15 49/45/17
f  106/49/16 45/48/18 52/55/16
f  39/50/26 106/42/26 108/56/26
f  49/57/26 45/51/26 40/43/26
f  107/44/26 42/52/26 109/58/26
f  107/54/15 58/59/13 51/53/15
f  51/60/26 45/51/26 49/57/26
f  52/61/26 45/51/26 51/60/26
f  52/55/16 108/62/14 106/49/16
f  39/50/26 108/56/26 110/63/26
f  39/50/26 110/63/26 48/64/26
f  109/58/26 42/52/26 50/65/26
f  58/59/13 107/54/15 109/66/13
f  58/67/26 57/68/26 51/60/26
f  57/68/26 52/61/26 51/60/26
f  108/62/14 52/55/16 57/69/14
f  57/69/14 110/70/12 108/62/14
f  48/64/26 110/63/26 111/71/26
f  109/58/26 50/65/26 112/72/26
f  109/66/13 68/73/11 58/59/13
f  63/74/26 57/68/26 58/67/26
f  110/70/12 57/69/14 63/75/12
f  63/75/12 111/76/10 110/70/12
f  48/64/26 111/71/26 59/77/26
f  113/78/26 50/65/26 62/79/26
f  112/72/26 50/65/26 113/78/26
f  68/73/11 109/66/13 112/80/11
f  68/81/26 63/74/26 58/67/26
f  111/76/10 63/75/12 72/82/10
f  59/77/26 111/71/26 114/83/26
f  113/78/26 62/79/26 115/84/26
f  71/85/8 112/80/11 113/86/8
f  112/80/11 71/85/8 68/73/11
f  71/87/26 63/74/26 68/81/26
f  72/88/26 63/74/26 71/87/26
f  72/82/10 114/89/9 111/76/10
f  59/77/26 114/83/26 69/90/26
f  115/84/26 62/79/26 70/91/26
f  77/92/6 113/86/8 115/93/6
f  113/86/8 77/92/6 71/85/8
f  77/94/26 72/88/26 71/87/26
f  114/89/9 72/82/10 81/95/9
f  69/90/26 114/83/26 116/96/26
f  69/90/26 117/97/26 73/98/26
f  115/84/26 70/91/26 118/99/26
f  118/100/5 77/92/6 115/93/6
f  81/101/26 72/88/26 77/94/26
f  86/102/7 114/89/9 81/95/9
f  114/89/9 86/102/7 116/103/7
f  69/90/26 116/96/26 117/97/26
f  73/98/26 117/97/26 119/104/26
f  118/99/26 70/91/26 120/105/26
f  77/92/6 118/100/5 90/106/5
f  86/107/26 81/101/26 77/94/26
f  92/108/2 116/103/7 86/102/7
f  116/103/7 92/108/2 117/109/2
f  73/98/26 94/110/26 82/111/26
f  117/109/2 95/112/3 119/113/3
f  73/98/26 119/104/26 84/114/26
f  120/105/26 70/91/26 84/114/26
f  120/115/4 90/106/5 118/100/5
f  90/116/26 86/107/26 77/94/26
f  92/117/26 86/107/26 91/118/26
f  95/112/3 117/109/2 92/108/2
f  73/98/26 84/114/26 94/110/26
f  82/111/26 94/110/26 93/119/26
f  91/120/4 119/121/3 95/1/3
f  120/105/26 84/114/26 119/104/26
f  90/106/5 120/115/4 91/120/4
f  91/118/26 86/107/26 90/116/26
f  95/122/26 92/117/26 91/118/26
f  119/121/3 91/120/4 120/115/4

