# File produced by Open Asset Import Library (http://www.assimp.sf.net)
# (assimp v3.2.202087883)

mtllib model_normalized.mtl

# 96 vertex positions
v 0.255880 0.327838 -0.068563
v 0.172062 -0.334428 -0.099340
v 0.191910 -0.334428 -0.051422
v 0.229416 0.327838 -0.132453
v -0.172062 -0.334428 -0.099340
v 0.264906 0.327838 0.000000
v 0.217945 0.327838 -0.125831
v 0.140488 -0.334428 -0.140488
v -0.191910 -0.334428 -0.051422
v 0.198680 -0.334428 0.000000
v 0.243086 0.327838 -0.065135
v 0.177951 0.327838 -0.177951
v 0.187317 0.327838 -0.187317
v -0.229416 0.327838 -0.132453
v -0.140488 -0.334428 -0.140488
v 0.255880 0.327838 0.068563
v 0.251661 0.327838 0.000000
v 0.180389 -0.321249 -0.048335
v 0.161732 -0.321249 -0.093377
v 0.132453 0.327838 -0.229416
v -0.198680 -0.334428 0.000000
v -0.255880 0.327838 -0.068563
v -0.187317 0.327838 -0.187317
v -0.099340 -0.334428 -0.172062
v 0.191910 -0.334428 0.051422
v 0.243086 0.327838 0.065135
v 0.186752 -0.321249 0.000000
v 0.132055 -0.321249 -0.132055
v 0.125831 0.327838 -0.217945
v 0.099340 -0.334428 -0.172062
v -0.217945 0.327838 -0.125831
v -0.177951 0.327838 -0.177951
v -0.132453 0.327838 -0.229416
v 0.229416 0.327838 0.132453
v 0.217945 0.327838 0.125831
v 0.180389 -0.321249 0.048335
v -0.180389 -0.321249 -0.048335
v -0.161732 -0.321249 -0.093377
v 0.068563 0.327838 -0.255880
v 0.065135 0.327838 -0.243086
v -0.191910 -0.334428 0.051422
v -0.264906 0.327838 0.000000
v -0.243086 0.327838 -0.065135
v -0.125831 0.327838 -0.217945
v -0.068563 0.327838 -0.255880
v -0.051422 -0.334428 -0.191910
v 0.172062 -0.334428 0.099340
v 0.161732 -0.321249 0.093377
v -0.180389 -0.321249 0.048335
v -0.186752 -0.321249 0.000000
v -0.132055 -0.321249 -0.132055
v 0.093377 -0.321249 -0.161732
v 0.051422 -0.334428 -0.191910
v -0.172062 -0.334428 0.099340
v -0.251661 0.327838 0.000000
v -0.065135 0.327838 -0.243086
v 0.187317 0.327838 0.187317
v 0.177951 0.327838 0.177951
v 0.132055 -0.321249 0.132055
v -0.093377 -0.321249 -0.161732
v -0.000000 0.327838 -0.264906
v -0.000000 0.327838 -0.251661
v 0.048335 -0.321249 -0.180389
v -0.255880 0.327838 0.068563
v -0.243086 0.327838 0.065135
v -0.000000 -0.334428 -0.198680
v 0.140488 -0.334428 0.140488
v -0.132055 -0.321249 0.132055
v -0.161732 -0.321249 0.093377
v -0.229416 0.327838 0.132453
v -0.048335 -0.321249 -0.180389
v -0.000000 -0.321249 -0.186752
v -0.140488 -0.334428 0.140488
v 0.132453 0.327838 0.229416
v 0.125831 0.327838 0.217945
v 0.093377 -0.321249 0.161732
v -0.217945 0.327838 0.125831
v 0.099340 -0.334428 0.172062
v -0.093377 -0.321249 0.161732
v -0.177951 0.327838 0.177951
v -0.187317 0.327838 0.187317
v -0.099340 -0.334428 0.172062
v 0.068563 0.327838 0.255880
v 0.065135 0.327838 0.243086
v 0.048335 -0.321249 0.180389
v -0.125831 0.327838 0.217945
v -0.132453 0.327838 0.229416
v 0.051422 -0.334428 0.191910
v -0.048335 -0.321249 0.180389
v -0.065135 0.327838 0.243086
v -0.051422 -0.334428 0.191910
v -0.068563 0.327838 0.255880
v -0.000000 0.327838 0.264906
v -0.000000 0.327838 0.251661
v -0.000000 -0.321249 0.186752
v -0.000000 -0.334428 0.198680

# 0 UV coordinates

# 50 vertex normals
vn -0.961132 0.099504 0.257535
vn -0.861727 0.099504 0.497519
vn 0.961132 -0.099504 -0.257535
vn 0.861727 -0.099504 -0.497519
vn 0 -1 0
vn 0 1 0
vn -0.995037 0.099504 0
vn 0.995037 -0.099504 0
vn -0.703598 0.099504 0.703598
vn 0.703598 -0.099504 -0.703598
vn 0.861727 0.099504 0.497519
vn 0.961132 0.099504 0.257535
vn -0.861727 -0.099504 -0.497519
vn -0.961132 -0.099504 -0.257535
vn -0.961132 0.099504 -0.257535
vn 0.961132 -0.099504 0.257535
vn -0.497519 0.099504 0.861727
vn 0.497519 -0.099504 -0.861727
vn 0.703598 0.099504 0.703598
vn -0.703598 -0.099504 -0.703598
vn 0.995037 0.099504 0
vn -0.995037 -0.099504 0
vn 0.497519 0.099504 0.861727
vn -0.497519 -0.099504 -0.861727
vn -0.861727 0.099504 -0.497519
vn 0.861727 -0.099504 0.497519
vn -0.257535 0.099504 0.961132
vn 0.257535 -0.099504 -0.961132
vn 0.257535 0.099504 0.961132
vn -0.257535 -0.099504 -0.961132
vn 0.961132 0.099504 -0.257535
vn -0.961132 -0.099504 0.257535
vn -0.703598 0.099504 -0.703598
vn 0.703598 -0.099504 0.703598
vn 0 0.099504 0.995037
vn 0 -0.099504 -0.995037
vn 0.861727 0.099504 -0.497519
vn -0.861727 -0.099504 0.497519
vn -0.497519 0.099504 -0.861727
vn 0.497519 -0.099504 0.861727
vn 0.703598 0.099504 -0.703598
vn -0.703598 -0.099504 0.703598
vn -0.257535 0.099504 -0.961132
vn 0.257535 -0.099504 0.961132
vn -0.497519 -0.099504 0.861727
vn 0.497519 0.099504 -0.861727
vn -0.257535 -0.099504 0.961132
vn 0.257535 0.099504 -0.961132
vn 0 0.099504 -0.995037
vn 0 -0.099504 0.995037

# Mesh 'mesh1_mesh1-geometry' with 258 faces
g mesh1_mesh1-geometry
usemtl material_0_24
f  1//1 2//2 3//1
f  2//2 1//1 4//2
f  3//3 2//4 1//3
f  4//4 1//3 2//4
f  3//5 5//5 2//5
f  2//6 5//6 3//6
f  3//1 6//7 1//1
f  1//3 6//8 3//3
f  1//5 7//5 4//5
f  4//2 8//9 2//2
f  2//4 8//10 4//4
f  3//5 9//5 5//5
f  5//6 9//6 3//6
f  2//5 5//5 8//5
f  8//6 5//6 2//6
f  6//7 3//1 10//7
f  10//8 3//3 6//8
f  6//5 11//5 1//5
f  1//5 11//5 7//5
f  4//5 7//5 12//5
f  8//9 4//2 13//9
f  13//10 4//4 8//10
f  10//5 9//5 3//5
f  3//6 9//6 10//6
f  14//11 9//12 5//11
f  5//13 9//14 14//13
f  8//5 5//5 15//5
f  15//6 5//6 8//6
f  10//7 16//15 6//7
f  6//8 16//16 10//8
f  6//5 17//5 11//5
f  18//3 7//4 11//3
f  19//4 12//10 7//4
f  4//5 12//5 13//5
f  20//17 8//9 13//9
f  13//10 8//10 20//18
f  10//5 21//5 9//5
f  9//6 21//6 10//6
f  9//12 14//11 22//12
f  22//14 14//13 9//14
f  5//11 23//19 14//11
f  14//13 23//20 5//13
f  23//19 5//11 15//19
f  15//20 5//13 23//20
f  8//5 15//5 24//5
f  24//6 15//6 8//6
f  16//15 10//7 25//15
f  25//16 10//8 16//16
f  16//5 26//5 6//5
f  6//5 26//5 17//5
f  27//8 11//3 17//8
f  7//4 18//3 19//4
f  11//3 27//8 18//3
f  12//10 19//4 28//10
f  13//5 12//5 29//5
f  8//9 20//17 30//17
f  30//18 20//18 8//10
f  13//5 29//5 20//5
f  25//5 21//5 10//5
f  10//6 21//6 25//6
f  22//12 21//21 9//12
f  9//14 21//22 22//14
f  31//5 22//5 14//5
f  32//5 14//5 23//5
f  15//19 33//23 23//19
f  23//20 33//24 15//20
f  33//23 15//19 24//23
f  24//24 15//20 33//24
f  8//5 24//5 30//5
f  30//6 24//6 8//6
f  25//15 34//25 16//15
f  16//16 34//26 25//16
f  16//5 35//5 26//5
f  36//16 17//8 26//16
f  17//8 36//16 27//8
f  18//5 37//5 19//5
f  27//5 37//5 18//5
f  19//5 38//5 28//5
f  28//10 29//18 12//10
f  39//27 30//17 20//17
f  20//18 30//18 39//28
f  20//5 29//5 40//5
f  25//5 41//5 21//5
f  21//6 41//6 25//6
f  21//21 22//12 42//21
f  42//22 22//14 21//22
f  43//5 22//5 31//5
f  31//5 14//5 32//5
f  32//5 23//5 44//5
f  44//5 23//5 33//5
f  24//23 45//29 33//23
f  33//24 45//30 24//24
f  30//5 24//5 46//5
f  46//6 24//6 30//6
f  34//25 25//15 47//25
f  47//26 25//16 34//26
f  34//5 35//5 16//5
f  48//26 26//16 35//26
f  26//16 48//26 36//16
f  36//5 49//5 27//5
f  19//5 37//5 38//5
f  27//5 50//5 37//5
f  28//5 38//5 51//5
f  29//18 28//10 52//18
f  30//17 39//27 53//27
f  53//28 39//28 30//18
f  20//5 40//5 39//5
f  52//18 40//28 29//18
f  25//5 54//5 41//5
f  41//6 54//6 25//6
f  42//21 41//31 21//21
f  21//22 41//32 42//22
f  55//5 42//5 22//5
f  55//5 22//5 43//5
f  38//13 43//14 31//13
f  51//20 31//13 32//20
f  44//24 51//20 32//20
f  44//5 33//5 56//5
f  45//29 24//23 46//29
f  46//30 24//24 45//30
f  56//5 33//5 45//5
f  30//5 46//5 53//5
f  53//6 46//6 30//6
f  47//5 54//5 25//5
f  25//6 54//6 47//6
f  47//25 57//33 34//25
f  34//26 57//34 47//26
f  34//5 58//5 35//5
f  35//26 59//34 48//26
f  48//5 49//5 36//5
f  27//5 49//5 50//5
f  43//14 38//13 37//14
f  55//22 37//14 50//22
f  31//13 51//20 38//13
f  28//5 51//5 60//5
f  28//5 60//5 52//5
f  61//35 53//27 39//27
f  39//28 53//28 61//36
f  39//5 40//5 62//5
f  40//28 52//18 63//28
f  64//31 54//37 41//31
f  41//32 54//38 64//32
f  41//31 42//21 64//31
f  64//32 42//22 41//32
f  65//5 42//5 55//5
f  37//14 55//22 43//14
f  51//20 44//24 60//24
f  56//30 60//24 44//24
f  66//35 45//29 46//29
f  46//30 45//30 66//36
f  56//5 45//5 62//5
f  53//5 46//5 66//5
f  66//6 46//6 53//6
f  67//5 54//5 47//5
f  47//6 54//6 67//6
f  57//33 47//25 67//33
f  67//34 47//26 57//34
f  57//5 58//5 34//5
f  59//34 35//26 58//34
f  59//5 68//5 48//5
f  48//5 69//5 49//5
f  65//32 50//22 49//32
f  50//22 65//32 55//22
f  52//5 60//5 63//5
f  53//27 61//35 66//35
f  66//36 61//36 53//28
f  39//5 45//5 61//5
f  63//28 62//36 40//28
f  62//5 45//5 39//5
f  54//37 64//31 70//37
f  70//38 64//32 54//38
f  65//5 64//5 42//5
f  60//24 56//30 71//30
f  45//29 66//35 61//35
f  61//36 66//36 45//30
f  72//36 56//30 62//36
f  67//5 73//5 54//5
f  54//6 73//6 67//6
f  67//33 74//39 57//33
f  57//34 74//40 67//34
f  57//5 75//5 58//5
f  75//40 59//34 58//34
f  76//5 68//5 59//5
f  48//5 68//5 69//5
f  77//38 49//32 69//38
f  49//32 77//38 65//32
f  63//5 60//5 71//5
f  62//36 63//28 72//36
f  77//5 70//5 64//5
f  70//37 73//41 54//37
f  54//38 73//42 70//38
f  77//5 64//5 65//5
f  56//30 72//36 71//30
f  78//5 73//5 67//5
f  67//6 73//6 78//6
f  74//39 67//33 78//39
f  78//40 67//34 74//40
f  74//5 75//5 57//5
f  59//34 75//40 76//40
f  76//5 79//5 68//5
f  80//42 69//38 68//42
f  69//38 80//42 77//38
f  63//5 71//5 72//5
f  80//5 70//5 77//5
f  73//41 70//37 81//41
f  81//42 70//38 73//42
f  78//5 82//5 73//5
f  73//6 82//6 78//6
f  78//39 83//43 74//39
f  74//40 83//44 78//40
f  74//5 84//5 75//5
f  84//44 76//40 75//40
f  85//5 79//5 76//5
f  86//45 68//42 79//45
f  68//42 86//45 80//42
f  80//5 81//5 70//5
f  87//46 73//41 81//41
f  81//42 73//42 87//45
f  88//5 82//5 78//5
f  78//6 82//6 88//6
f  73//41 87//46 82//46
f  82//45 87//45 73//42
f  83//43 78//39 88//43
f  88//44 78//40 83//44
f  83//5 84//5 74//5
f  76//40 84//44 85//44
f  85//5 89//5 79//5
f  79//45 90//47 86//45
f  86//5 81//5 80//5
f  86//5 87//5 81//5
f  88//5 91//5 82//5
f  82//6 91//6 88//6
f  92//48 82//46 87//46
f  87//45 82//45 92//47
f  88//43 93//49 83//43
f  83//44 93//50 88//44
f  84//5 83//5 94//5
f  94//50 85//44 84//44
f  89//5 85//5 95//5
f  90//47 79//45 89//47
f  90//5 87//5 86//5
f  91//5 88//5 96//5
f  96//6 88//6 91//6
f  82//46 92//48 91//48
f  91//47 92//47 82//45
f  90//5 92//5 87//5
f  93//49 88//43 96//49
f  96//50 88//44 93//50
f  92//5 83//5 93//5
f  83//5 92//5 94//5
f  85//44 94//50 95//50
f  95//50 90//47 89//47
f  91//48 93//49 96//49
f  96//50 93//50 91//47
f  93//49 91//48 92//48
f  92//47 91//47 93//50
f  94//5 92//5 90//5
f  90//47 95//50 94//50

# Mesh 'mesh1_mesh1-geometry' with 48 faces
g mesh1_mesh1-geometry
usemtl material_2_24
f  4//6 7//6 1//6
f  1//6 11//6 6//6
f  7//6 11//6 1//6
f  12//6 7//6 4//6
f  11//6 17//6 6//6
f  13//6 12//6 4//6
f  6//6 26//6 16//6
f  17//6 26//6 6//6
f  29//6 12//6 13//6
f  20//6 29//6 13//6
f  14//6 22//6 31//6
f  23//6 14//6 32//6
f  26//6 35//6 16//6
f  40//6 29//6 20//6
f  31//6 22//6 43//6
f  32//6 14//6 31//6
f  44//6 23//6 32//6
f  33//6 23//6 44//6
f  16//6 35//6 34//6
f  39//6 40//6 20//6
f  22//6 42//6 55//6
f  43//6 22//6 55//6
f  56//6 33//6 44//6
f  45//6 33//6 56//6
f  35//6 58//6 34//6
f  62//6 40//6 39//6
f  55//6 42//6 65//6
f  62//6 45//6 56//6
f  34//6 58//6 57//6
f  61//6 45//6 39//6
f  39//6 45//6 62//6
f  42//6 64//6 65//6
f  58//6 75//6 57//6
f  64//6 70//6 77//6
f  65//6 64//6 77//6
f  57//6 75//6 74//6
f  77//6 70//6 80//6
f  75//6 84//6 74//6
f  70//6 81//6 80//6
f  74//6 84//6 83//6
f  80//6 81//6 86//6
f  81//6 87//6 86//6
f  94//6 83//6 84//6
f  86//6 87//6 90//6
f  87//6 92//6 90//6
f  93//6 83//6 92//6
f  94//6 92//6 83//6
f  90//6 92//6 94//6

# Mesh 'mesh1_mesh1-geometry' with 70 faces
g mesh1_mesh1-geometry
usemtl material_1_24
f  11//1 7//2 18//1
f  7//2 12//9 19//2
f  17//7 11//1 27//7
f  19//2 18//1 7//2
f  18//1 27//7 11//1
f  28//9 19//2 12//9
f  26//15 17//7 36//15
f  27//7 36//15 17//7
f  19//6 37//6 18//6
f  18//6 37//6 27//6
f  28//6 38//6 19//6
f  12//9 29//17 28//9
f  35//25 26//15 48//25
f  36//15 48//25 26//15
f  27//6 49//6 36//6
f  38//6 37//6 19//6
f  37//6 50//6 27//6
f  51//6 38//6 28//6
f  52//17 28//9 29//17
f  29//17 40//27 52//17
f  31//11 43//12 38//11
f  32//19 31//11 51//19
f  32//19 51//19 44//23
f  48//25 59//33 35//25
f  36//6 49//6 48//6
f  50//6 49//6 27//6
f  37//12 38//11 43//12
f  50//21 37//12 55//21
f  38//11 51//19 31//11
f  60//6 51//6 28//6
f  52//6 60//6 28//6
f  63//27 52//17 40//27
f  43//12 55//21 37//12
f  60//23 44//23 51//19
f  44//23 60//23 56//29
f  58//33 35//25 59//33
f  48//6 68//6 59//6
f  49//6 69//6 48//6
f  49//31 50//21 65//31
f  55//21 65//31 50//21
f  63//6 60//6 52//6
f  40//27 62//35 63//27
f  71//29 56//29 60//23
f  62//35 56//29 72//35
f  58//33 59//33 75//39
f  59//6 68//6 76//6
f  69//6 68//6 48//6
f  69//37 49//31 77//37
f  65//31 77//37 49//31
f  71//6 60//6 63//6
f  72//35 63//27 62//35
f  71//29 72//35 56//29
f  76//39 75//39 59//33
f  68//6 79//6 76//6
f  68//41 69//37 80//41
f  77//37 80//41 69//37
f  72//6 71//6 63//6
f  75//39 76//39 84//43
f  76//6 79//6 85//6
f  79//46 68//41 86//46
f  80//41 86//46 68//41
f  85//43 84//43 76//39
f  79//6 89//6 85//6
f  86//46 90//48 79//46
f  84//43 85//43 94//49
f  95//6 85//6 89//6
f  89//48 79//46 90//48
f  95//49 94//49 85//43
f  89//48 90//48 95//49
f  94//49 95//49 90//48

