# File produced by Open Asset Import Library (http://www.assimp.sf.net)
# (assimp v3.2.202087883)

mtllib model_normalized.mtl

# 128 vertex positions
v -0.179635 -0.197200 -0.061543
v -0.189989 -0.197200 0.038357
v -0.191388 -0.197200 -0.012275
v -0.175533 -0.197200 0.086903
v -0.248512 0.328615 -0.023841
v -0.155531 -0.197200 -0.106092
v -0.246662 0.328615 0.043118
v -0.232969 0.328615 -0.089000
v -0.149006 -0.197200 0.130051
v -0.227544 0.328615 0.107319
v -0.269305 0.328615 0.125985
v -0.238136 0.328615 -0.174747
v -0.201091 0.328615 -0.147914
v -0.120718 -0.197200 -0.142883
v -0.227969 0.328615 0.193222
v -0.183889 0.328615 -0.232079
v -0.112215 -0.197200 0.164864
v -0.192461 0.328615 0.164383
v -0.170638 0.328615 0.247469
v -0.175854 -0.197200 0.151857
v -0.275697 0.328615 -0.105330
v -0.142524 -0.197200 -0.169732
v -0.155051 0.328615 -0.196571
v -0.077570 -0.197200 -0.169410
v -0.143805 0.328615 0.210423
v -0.132504 -0.197200 0.192875
v -0.207111 -0.197200 0.101017
v -0.291831 0.328615 0.050340
v -0.183543 -0.197200 -0.126381
v -0.116652 0.328615 -0.273415
v -0.067667 -0.197200 0.188968
v -0.084890 0.328615 0.242301
v -0.080015 -0.197200 0.221277
v -0.294011 0.328615 -0.028557
v -0.211944 -0.197200 -0.073893
v -0.091684 -0.197200 -0.200987
v -0.097986 0.328615 -0.231654
v -0.029025 -0.197200 -0.183866
v -0.101221 0.328615 0.285030
v -0.224144 -0.197200 0.043818
v -0.041007 0.328615 -0.295941
v -0.018397 -0.197200 0.200721
v -0.019732 0.328615 0.257845
v -0.024448 0.328615 0.303344
v -0.021963 -0.197200 0.235125
v -0.225792 -0.197200 -0.015840
v -0.034485 -0.197200 -0.218020
v -0.033786 0.328615 -0.250771
v 0.021607 -0.197200 -0.185265
v 0.037890 0.328615 -0.298121
v 0.032235 -0.197200 0.199322
v 0.047229 0.328615 0.255994
v 0.054450 0.328615 0.301164
v 0.037695 -0.197200 0.233476
v 0.025172 -0.197200 -0.219669
v 0.033174 0.328615 -0.252622
v 0.070875 -0.197200 -0.173512
v 0.114663 0.328615 -0.279807
v 0.098332 0.328615 -0.237079
v 0.080778 -0.197200 0.184866
v 0.111428 0.328615 0.236877
v 0.094892 -0.197200 0.216443
v 0.083225 -0.197200 -0.205820
v 0.115424 -0.197200 -0.149408
v 0.130094 0.328615 0.278638
v 0.184080 0.328615 -0.242246
v 0.157247 0.328615 -0.205201
v 0.123928 -0.197200 0.158338
v 0.168494 0.328615 0.201794
v 0.145734 -0.197200 0.185187
v 0.135714 -0.197200 -0.177420
v 0.152216 -0.197200 -0.114595
v 0.197332 0.328615 0.237301
v 0.241411 0.328615 -0.187999
v 0.205903 0.328615 -0.159161
v 0.158741 -0.197200 0.121547
v 0.214533 0.328615 0.153137
v 0.251578 0.328615 0.179971
v 0.179064 -0.197200 -0.136402
v 0.178743 -0.197200 -0.071446
v 0.186752 -0.197200 0.141837
v 0.282747 0.328615 -0.120762
v 0.240986 0.328615 -0.102096
v 0.182844 -0.197200 0.077000
v 0.246411 0.328615 0.094223
v 0.289139 0.328615 0.110553
v 0.210320 -0.197200 -0.085560
v 0.260104 0.328615 -0.037896
v 0.193198 -0.197200 -0.022902
v 0.261954 0.328615 0.029065
v 0.215153 -0.197200 0.089348
v 0.305274 0.328615 -0.045118
v 0.194598 -0.197200 0.027730
v 0.307453 0.328615 0.033781
v 0.227353 -0.197200 -0.028363
v 0.229001 -0.197200 0.031295
v 0.000272 -0.197200 -0.007851
v 0.031166 -0.197045 -0.007851
v 0.031166 -0.197200 -0.007851
v 0.000272 -0.197045 -0.007851
v 0.031166 -0.197045 -0.038745
v 0.000272 -0.197200 -0.038745
v 0.031166 -0.197200 -0.038745
v 0.000272 -0.197045 -0.038745
v 0.030126 -0.197045 0.040940
v -0.000768 -0.197200 0.040940
v 0.030126 -0.197200 0.040940
v -0.000768 -0.197045 0.040940
v 0.030126 -0.197200 0.071834
v -0.000768 -0.197045 0.071834
v 0.030126 -0.197045 0.071834
v -0.000768 -0.197200 0.071834
v -0.055302 -0.197200 -0.112916
v -0.055302 -0.197045 -0.082022
v -0.055302 -0.197200 -0.082022
v -0.055302 -0.197045 -0.112916
v -0.024408 -0.197045 -0.082022
v -0.024408 -0.197045 -0.112916
v -0.024408 -0.197200 -0.082022
v -0.024408 -0.197200 -0.112916
v -0.055944 -0.197200 -0.013104
v -0.055944 -0.197045 0.017791
v -0.055944 -0.197200 0.017791
v -0.055944 -0.197045 -0.013104
v -0.025050 -0.197045 0.017791
v -0.025050 -0.197045 -0.013104
v -0.025050 -0.197200 0.017791
v -0.025050 -0.197200 -0.013104

# 71 UV coordinates
vt 0 0 0
vt -31.3525 0.157538 0
vt -31.3525 0.157867 0
vt -31.2868 0.157538 0
vt -31.2868 0.157867 0
vt -5.9967 0.157867 0
vt -5.9967 0.157538 0
vt -6.06232 0.157867 0
vt 6.23277 0.157538 0
vt 6.23277 0.157867 0
vt 6.29838 0.157538 0
vt -6.06232 0.157538 0
vt 6.29838 0.157867 0
vt 31.5885 0.157538 0
vt 31.5229 0.157538 0
vt 31.5885 0.157867 0
vt 31.5229 0.157867 0
vt 0 -1 0
vt -0.75 -1 0
vt -0.75 0 0
vt 31.5841 0.326784 0
vt 31.5185 0.326784 0
vt 31.5841 0.327112 0
vt 31.5185 0.327112 0
vt -5.89528 0.326784 0
vt -5.89528 0.327112 0
vt -5.82967 0.326784 0
vt 6.12693 0.327112 0
vt 6.12693 0.326784 0
vt 6.06131 0.327112 0
vt -5.82967 0.327112 0
vt 6.06131 0.326784 0
vt -31.3525 0.326784 0
vt -31.3525 0.327112 0
vt -31.2868 0.326784 0
vt -31.2868 0.327112 0
vt 0 1.33333 0
vt 1 1.33333 0
vt 1 0 0
vt 6.27227 0 0
vt 6.27227 0.000328 0
vt 6.33789 0 0
vt 6.33789 0.000328 0
vt -31.2868 0.000328 0
vt -31.2868 0 0
vt -31.3525 0.000328 0
vt 31.2868 0.000328 0
vt 31.3525 0.000328 0
vt 31.2868 0 0
vt -31.3525 0 0
vt 31.3525 -0 0
vt -6.27227 0.000328 0
vt -6.27227 0 0
vt -6.33789 0.000328 0
vt -6.33789 0 0
vt 6.05891 0.211997 0
vt 6.05891 0.212326 0
vt 6.12453 0.211997 0
vt 6.12453 0.212326 0
vt -31.2868 0.212326 0
vt -31.2868 0.211997 0
vt -31.3525 0.212326 0
vt 31.2841 0.212326 0
vt 31.3497 0.212326 0
vt 31.2841 0.211997 0
vt -31.3525 0.211997 0
vt 31.3497 0.211997 0
vt -6.06164 0.212326 0
vt -6.06164 0.211997 0
vt -6.12726 0.212326 0
vt -6.12726 0.211997 0

# 102 vertex normals
vn 0 -0.0254 0
vn 0 0.0254 0
vn -0.0249368 -0.00272382 0.00398694
vn -0.0251123 -0.00278541 -0.0026022
vn 0.0251123 0.00278541 0.0026022
vn 0.0249368 0.00272382 -0.00398694
vn -0.0235752 -0.00286172 -0.00900994
vn 0.0235752 0.00286172 0.00900994
vn -0.0230595 -0.00268112 0.0103069
vn 0.0230595 0.00268112 -0.0103069
vn -0.020432 -0.00294744 -0.0147988
vn 0.020432 0.00294744 0.0147988
vn -0.0196079 -0.00266029 0.0159252
vn 0.0196079 0.00266029 -0.0159252
vn -0.015899 -0.00303677 -0.0195745
vn 0.015899 0.00303677 0.0195745
vn 0.0195604 0.00318844 -0.0158867
vn 0.0230032 0.00320911 -0.0102818
vn -0.0195604 -0.00318844 0.0158867
vn -0.0230032 -0.00320911 0.0102818
vn 0.0203778 0.0034734 0.0147594
vn 0.0158556 0.00356199 0.019521
vn -0.0158556 -0.00356199 -0.019521
vn -0.0203778 -0.0034734 -0.0147594
vn -0.014818 -0.00266278 0.0204572
vn 0.014818 0.00266278 -0.0204572
vn 0.0147821 0.0031909 -0.0204076
vn -0.0147821 -0.0031909 0.0204076
vn 0.0235143 0.00338833 0.00898655
vn -0.0235143 -0.00338833 -0.00898655
vn 0.0102579 0.00364808 0.0229483
vn -0.0102579 -0.00364808 -0.0229483
vn -0.0102866 -0.00312356 -0.0230128
vn 0.0102866 0.00312356 0.0230128
vn -0.00901756 -0.00268839 0.0235927
vn 0.00901756 0.00268839 -0.0235927
vn 0.00899554 0.00321633 -0.023535
vn -0.00899554 -0.00321633 0.023535
vn 0.0248751 0.00325148 -0.00397716
vn -0.0248751 -0.00325148 0.00397716
vn 0.0250489 0.00331262 0.00259555
vn -0.0250489 -0.00331262 -0.00259555
vn 0.00396702 0.0037258 0.0248101
vn -0.00396702 -0.0037258 -0.0248101
vn -0.0039783 -0.00320198 -0.0248813
vn 0.0039783 0.00320198 0.0248813
vn -0.00260368 -0.00273535 0.0251177
vn 0.00260368 0.00273535 -0.0251177
vn 0.00259728 0.00326293 -0.0250553
vn -0.00259728 -0.00326293 0.0250553
vn -0.00258864 0.00378993 0.0249819
vn 0.00258864 -0.00378993 -0.0249819
vn 0.00259629 -0.00326664 -0.0250549
vn -0.00259629 0.00326664 0.0250549
vn 0.00398473 -0.00280045 0.0249287
vn -0.00398473 0.00280045 -0.0249287
vn -0.00397454 0.00332755 -0.0248655
vn 0.00397454 -0.00332755 0.0248655
vn -0.00896389 0.00383611 0.0234541
vn 0.00896389 -0.00383611 -0.0234541
vn 0.00899048 -0.00331323 -0.0235235
vn -0.00899048 0.00331323 0.0235235
vn 0.0102973 -0.00287922 0.0230399
vn -0.0102973 0.00287922 -0.0230399
vn -0.0102704 0.00340568 -0.02298
vn 0.0102704 -0.00340568 0.02298
vn -0.0147267 0.00386126 0.0203316
vn 0.0147267 -0.00386126 -0.0203316
vn 0.0147707 -0.0033386 -0.0203922
vn -0.0147707 0.0033386 0.0203922
vn 0.0159032 -0.00296621 0.0195819
vn -0.0159032 0.00296621 -0.0195819
vn -0.0158606 0.00349199 -0.0195297
vn 0.0158606 -0.00349199 0.0195297
vn -0.019487 0.0038637 0.0158268
vn 0.019487 -0.0038637 -0.0158268
vn 0.0195451 -0.00334107 -0.0158741
vn -0.0195451 0.00334107 0.0158741
vn 0.0204208 -0.00305549 0.0147924
vn -0.0204208 0.00305549 -0.0147924
vn -0.0203647 0.00358056 -0.0147519
vn 0.0203647 -0.00358056 0.0147519
vn -0.0229222 0.00384325 0.010245
vn 0.0229222 -0.00384325 -0.010245
vn 0.0229902 -0.00332044 -0.0102754
vn -0.0229902 0.00332044 0.0102754
vn 0.0235437 -0.00314101 0.00899927
vn -0.0235437 0.00314101 -0.00899927
vn -0.0234775 0.00366537 -0.00897405
vn 0.0234775 -0.00366537 0.00897405
vn 0.0248718 -0.0032781 -0.00397574
vn -0.0248718 0.0032781 0.00397574
vn -0.0247991 0.00380129 0.00396405
vn 0.0247991 -0.00380129 -0.00396405
vn 0.0250612 -0.00321691 0.00259799
vn -0.0250612 0.00321691 -0.00259799
vn -0.0249891 0.00374063 -0.00259062
vn 0.0249891 -0.00374063 0.00259062
vn 0 0 -0.0254
vn -0.0254 0 0
vn 0.0254 0 0
vn 0 0 0.0254

# Mesh 'mesh1_mesh1-geometry' with 332 faces
g mesh1_mesh1-geometry
usemtl material_0_24
f  1//1 2//1 3//1
f  2//1 1//1 4//1
f  3//2 2//2 1//2
f  4//2 1//2 2//2
f  2//3 5//4 3//4
f  3//5 5//5 2//6
f  5//4 1//7 3//4
f  3//5 1//8 5//5
f  4//1 1//1 6//1
f  6//2 1//2 4//2
f  4//9 7//3 2//3
f  2//6 7//6 4//10
f  5//4 2//3 7//3
f  7//6 2//6 5//5
f  1//7 5//4 8//7
f  8//8 5//5 1//8
f  8//7 6//11 1//7
f  1//8 6//12 8//8
f  4//1 6//1 9//1
f  9//2 6//2 4//2
f  7//3 4//9 10//9
f  10//10 4//10 7//6
f  7//1 11//1 5//1
f  5//2 11//2 7//2
f  5//1 12//1 8//1
f  8//2 12//2 5//2
f  6//11 8//7 13//11
f  13//12 8//8 6//12
f  9//1 6//1 14//1
f  14//2 6//2 9//2
f  9//13 10//9 4//9
f  4//10 10//10 9//14
f  15//1 7//1 10//1
f  10//2 7//2 15//2
f  11//1 7//1 15//1
f  15//2 7//2 11//2
f  11//1 12//1 5//1
f  5//2 12//2 11//2
f  8//1 12//1 16//1
f  16//2 12//2 8//2
f  8//1 16//1 13//1
f  13//2 16//2 8//2
f  13//11 14//15 6//11
f  6//12 14//16 13//12
f  9//1 14//1 17//1
f  17//2 14//2 9//2
f  10//9 9//13 18//13
f  18//14 9//14 10//10
f  15//1 10//1 19//1
f  19//2 10//2 15//2
f  20//17 11//18 15//17
f  15//19 11//20 20//19
f  11//1 21//1 12//1
f  12//2 21//2 11//2
f  12//21 22//22 16//22
f  16//23 22//23 12//24
f  13//1 16//1 23//1
f  23//2 16//2 13//2
f  14//15 13//11 23//15
f  23//16 13//12 14//16
f  17//1 14//1 24//1
f  24//2 14//2 17//2
f  25//25 9//13 17//25
f  17//26 9//14 25//26
f  9//13 25//25 18//13
f  18//14 25//26 9//14
f  19//1 10//1 18//1
f  18//2 10//2 19//2
f  26//27 15//17 19//27
f  19//28 15//19 26//28
f  11//18 20//17 27//18
f  27//20 20//19 11//20
f  15//17 26//27 20//17
f  20//19 26//28 15//19
f  28//1 21//1 11//1
f  11//2 21//2 28//2
f  21//29 29//21 12//21
f  12//24 29//24 21//30
f  22//22 12//21 29//21
f  29//24 12//24 22//23
f  22//22 30//31 16//22
f  16//23 30//32 22//23
f  23//1 16//1 30//1
f  30//2 16//2 23//2
f  23//15 24//33 14//15
f  14//16 24//34 23//16
f  17//1 24//1 31//1
f  31//2 24//2 17//2
f  17//25 32//35 25//25
f  25//26 32//36 17//26
f  19//1 18//1 25//1
f  25//2 18//2 19//2
f  19//27 33//37 26//27
f  26//28 33//38 19//28
f  27//18 28//39 11//18
f  11//20 28//40 27//20
f  21//1 28//1 34//1
f  34//2 28//2 21//2
f  29//21 21//29 35//29
f  35//30 21//30 29//24
f  30//31 22//22 36//31
f  36//32 22//23 30//32
f  23//1 30//1 37//1
f  37//2 30//2 23//2
f  24//33 23//15 37//33
f  37//34 23//16 24//34
f  31//1 24//1 38//1
f  38//2 24//2 31//2
f  32//35 17//25 31//35
f  31//36 17//26 32//36
f  39//1 25//1 32//1
f  32//2 25//2 39//2
f  19//1 25//1 39//1
f  39//2 25//2 19//2
f  33//37 19//27 39//37
f  39//38 19//28 33//38
f  28//39 27//18 40//39
f  40//40 27//20 28//40
f  40//39 34//41 28//39
f  28//40 34//42 40//40
f  34//41 35//29 21//29
f  21//30 35//30 34//42
f  36//31 41//43 30//31
f  30//32 41//44 36//32
f  37//1 30//1 41//1
f  41//2 30//2 37//2
f  37//33 38//45 24//33
f  24//34 38//46 37//34
f  31//1 38//1 42//1
f  42//2 38//2 31//2
f  31//35 43//47 32//35
f  32//36 43//48 31//36
f  39//1 32//1 44//1
f  44//2 32//2 39//2
f  39//37 45//49 33//37
f  33//38 45//50 39//38
f  34//41 40//39 46//41
f  46//42 40//40 34//42
f  35//29 34//41 46//41
f  46//42 34//42 35//30
f  41//43 36//31 47//43
f  47//44 36//32 41//44
f  37//1 41//1 48//1
f  48//2 41//2 37//2
f  38//45 37//33 48//45
f  48//46 37//34 38//46
f  42//1 38//1 49//1
f  49//2 38//2 42//2
f  43//47 31//35 42//47
f  42//48 31//36 43//48
f  44//1 32//1 43//1
f  43//2 32//2 44//2
f  45//49 39//37 44//49
f  44//50 39//38 45//50
f  47//43 50//51 41//43
f  41//44 50//52 47//44
f  48//1 41//1 50//1
f  50//2 41//2 48//2
f  48//45 49//53 38//45
f  38//46 49//54 48//46
f  42//1 49//1 51//1
f  51//2 49//2 42//2
f  42//47 52//55 43//47
f  43//48 52//56 42//48
f  44//1 43//1 53//1
f  53//2 43//2 44//2
f  44//49 54//57 45//49
f  45//50 54//58 44//50
f  50//51 47//43 55//51
f  55//52 47//44 50//52
f  48//1 50//1 56//1
f  56//2 50//2 48//2
f  49//53 48//45 56//53
f  56//54 48//46 49//54
f  51//1 49//1 57//1
f  57//2 49//2 51//2
f  52//55 42//47 51//55
f  51//56 42//48 52//56
f  53//1 43//1 52//1
f  52//2 43//2 53//2
f  54//57 44//49 53//57
f  53//58 44//50 54//58
f  55//51 58//59 50//51
f  50//52 58//60 55//52
f  56//1 50//1 59//1
f  59//2 50//2 56//2
f  56//53 57//61 49//53
f  49//54 57//62 56//54
f  51//1 57//1 60//1
f  60//2 57//2 51//2
f  51//55 61//63 52//55
f  52//56 61//64 51//56
f  53//1 52//1 61//1
f  61//2 52//2 53//2
f  53//57 62//65 54//57
f  54//58 62//66 53//58
f  58//59 55//51 63//59
f  63//60 55//52 58//60
f  59//1 50//1 58//1
f  58//2 50//2 59//2
f  57//61 56//53 59//61
f  59//62 56//54 57//62
f  60//1 57//1 64//1
f  64//2 57//2 60//2
f  61//63 51//55 60//63
f  60//64 51//56 61//64
f  53//1 61//1 65//1
f  65//2 61//2 53//2
f  62//65 53//57 65//65
f  65//66 53//58 62//66
f  63//59 66//67 58//59
f  58//60 66//68 63//60
f  59//1 58//1 67//1
f  67//2 58//2 59//2
f  59//61 64//69 57//61
f  57//62 64//70 59//62
f  60//1 64//1 68//1
f  68//2 64//2 60//2
f  60//63 69//71 61//63
f  61//64 69//72 60//64
f  65//1 61//1 69//1
f  69//2 61//2 65//2
f  65//65 70//73 62//65
f  62//66 70//74 65//66
f  66//67 63//59 71//67
f  71//68 63//60 66//68
f  67//1 58//1 66//1
f  66//2 58//2 67//2
f  64//69 59//61 67//69
f  67//70 59//62 64//70
f  68//1 64//1 72//1
f  72//2 64//2 68//2
f  69//71 60//63 68//71
f  68//72 60//64 69//72
f  65//1 69//1 73//1
f  73//2 69//2 65//2
f  70//73 65//65 73//73
f  73//74 65//66 70//74
f  71//67 74//75 66//67
f  66//68 74//76 71//68
f  67//1 66//1 75//1
f  75//2 66//2 67//2
f  67//69 72//77 64//69
f  64//70 72//78 67//70
f  68//1 72//1 76//1
f  76//2 72//2 68//2
f  68//71 77//79 69//71
f  69//72 77//80 68//72
f  73//1 69//1 77//1
f  77//2 69//2 73//2
f  78//81 70//73 73//73
f  73//74 70//74 78//82
f  74//75 71//67 79//75
f  79//76 71//68 74//76
f  75//1 66//1 74//1
f  74//2 66//2 75//2
f  72//77 67//69 75//77
f  75//78 67//70 72//78
f  76//1 72//1 80//1
f  80//2 72//2 76//2
f  77//79 68//71 76//79
f  76//80 68//72 77//80
f  73//1 77//1 78//1
f  78//2 77//2 73//2
f  70//73 78//81 81//81
f  81//82 78//82 70//74
f  79//75 82//83 74//75
f  74//76 82//84 79//76
f  75//1 74//1 83//1
f  83//2 74//2 75//2
f  83//85 72//77 75//77
f  75//78 72//78 83//86
f  72//77 83//85 80//85
f  80//86 83//86 72//78
f  76//1 80//1 84//1
f  84//2 80//2 76//2
f  76//79 85//87 77//79
f  77//80 85//88 76//80
f  78//1 77//1 85//1
f  85//2 77//2 78//2
f  86//89 81//81 78//81
f  78//82 81//82 86//90
f  82//83 79//75 87//83
f  87//84 79//76 82//84
f  88//1 74//1 82//1
f  82//2 74//2 88//2
f  83//1 74//1 88//1
f  88//2 74//2 83//2
f  88//91 80//85 83//85
f  83//86 80//86 88//92
f  84//1 80//1 89//1
f  89//2 80//2 84//2
f  85//87 76//79 84//87
f  84//88 76//80 85//88
f  78//1 85//1 90//1
f  90//2 85//2 78//2
f  81//81 86//89 91//89
f  91//90 86//90 81//82
f  78//1 90//1 86//1
f  86//2 90//2 78//2
f  87//83 92//93 82//83
f  82//84 92//94 87//84
f  88//1 82//1 90//1
f  90//2 82//2 88//2
f  80//85 88//91 89//91
f  89//92 88//92 80//86
f  84//1 89//1 93//1
f  93//2 89//2 84//2
f  84//87 90//95 85//87
f  85//88 90//96 84//88
f  94//97 91//89 86//89
f  86//90 91//90 94//98
f  86//1 90//1 82//1
f  82//2 90//2 86//2
f  92//93 87//83 95//93
f  95//94 87//84 92//94
f  86//1 82//1 92//1
f  92//2 82//2 86//2
f  93//95 88//91 90//95
f  90//96 88//92 93//96
f  88//91 93//95 89//91
f  89//92 93//96 88//92
f  90//95 84//87 93//95
f  93//96 84//88 90//96
f  91//89 94//97 96//97
f  96//98 94//98 91//90
f  86//1 92//1 94//1
f  94//2 92//2 86//2
f  96//97 92//93 95//93
f  95//94 92//94 96//98
f  92//93 96//97 94//97
f  94//98 96//98 92//94

# Mesh 'mesh2_mesh2-geometry' with 24 faces
g mesh2_mesh2-geometry
usemtl material_1_0
l  12 21
l  16 12
l  21 34
l  30 16
l  34 28
l  41 30
l  28 11
l  50 41
l  11 15
l  58 50
l  15 19
l  66 58
l  19 39
l  74 66
l  39 44
l  82 74
l  44 53
l  92 82
l  53 65
l  94 92
l  65 73
l  86 94
l  73 78
l  78 86

# Mesh 'mesh3_mesh3-geometry' with 24 faces
g mesh3_mesh3-geometry
usemtl material_1_0
l  88 83
l  90 88
l  83 75
l  85 90
l  75 67
l  77 85
l  67 59
l  69 77
l  59 56
l  61 69
l  56 48
l  52 61
l  48 37
l  43 52
l  37 23
l  32 43
l  23 13
l  25 32
l  13 8
l  18 25
l  8 5
l  10 18
l  5 7
l  7 10

# Mesh 'mesh4_mesh4-geometry' with 24 faces
g mesh4_mesh4-geometry
usemtl material_1_0
l  89 80
l  93 89
l  80 72
l  84 93
l  72 64
l  76 84
l  64 57
l  68 76
l  57 49
l  60 68
l  49 38
l  51 60
l  38 24
l  42 51
l  24 14
l  31 42
l  14 6
l  17 31
l  6 1
l  9 17
l  1 3
l  4 9
l  3 2
l  2 4

# Mesh 'mesh5_mesh5-geometry' with 10 faces
g mesh5_mesh5-geometry
usemtl material_2_24
f  97/1/99 98/1/99 99/1/99
f  98/1/99 97/1/99 100/1/99
f  101/1/100 99/1/100 98/1/100
f  102/1/101 100/1/101 97/1/101
f  100/1/1 101/1/1 98/1/1
f  99/1/100 101/1/100 103/1/100
f  100/1/101 102/1/101 104/1/101
f  101/1/1 100/1/1 104/1/1
f  101/1/102 102/1/102 103/1/102
f  102/1/102 101/1/102 104/1/102

# Mesh 'mesh5_mesh5-geometry' with 8 faces
g mesh5_mesh5-geometry
usemtl material_3_1_8
f  99/2/102 98/3/102 97/4/102
f  100/5/102 97/4/102 98/3/102
f  98/6/101 99/7/101 101/8/101
f  97/9/100 100/10/100 102/11/100
f  103/12/101 101/8/101 99/7/101
f  104/13/100 102/11/100 100/10/100
f  103/14/99 102/15/99 101/16/99
f  104/17/99 101/16/99 102/15/99

# Mesh 'mesh5_mesh5-geometry' with 2 faces
g mesh5_mesh5-geometry
usemtl material_5_3_8
f  98/18/2 101/1/2 100/19/2
f  104/20/2 100/19/2 101/1/2

# Mesh 'mesh6_mesh6-geometry' with 10 faces
g mesh6_mesh6-geometry
usemtl material_2_24
f  105/1/102 106/1/102 107/1/102
f  106/1/102 105/1/102 108/1/102
f  109/1/100 105/1/100 107/1/100
f  105/1/1 110/1/1 108/1/1
f  110/1/101 106/1/101 108/1/101
f  105/1/100 109/1/100 111/1/100
f  110/1/1 105/1/1 111/1/1
f  106/1/101 110/1/101 112/1/101
f  112/1/99 111/1/99 109/1/99
f  111/1/99 112/1/99 110/1/99

# Mesh 'mesh6_mesh6-geometry' with 8 faces
g mesh6_mesh6-geometry
usemtl material_3_1_8
f  107/21/99 106/22/99 105/23/99
f  108/24/99 105/23/99 106/22/99
f  107/25/101 105/26/101 109/27/101
f  108/28/100 106/29/100 110/30/100
f  111/31/101 109/27/101 105/26/101
f  112/32/100 110/30/100 106/29/100
f  109/33/102 111/34/102 112/35/102
f  110/36/102 112/35/102 111/34/102

# Mesh 'mesh6_mesh6-geometry' with 2 faces
g mesh6_mesh6-geometry
usemtl material_7_5_8
f  108/37/2 110/1/2 105/38/2
f  111/39/2 105/38/2 110/1/2

# Mesh 'mesh7_mesh7-geometry' with 10 faces
g mesh7_mesh7-geometry
usemtl material_2_24
f  113/1/101 114/1/101 115/1/101
f  114/1/101 113/1/101 116/1/101
f  117/1/99 115/1/99 114/1/99
f  113/1/102 118/1/102 116/1/102
f  118/1/1 114/1/1 116/1/1
f  115/1/99 117/1/99 119/1/99
f  114/1/1 118/1/1 117/1/1
f  118/1/102 113/1/102 120/1/102
f  118/1/100 119/1/100 117/1/100
f  119/1/100 118/1/100 120/1/100

# Mesh 'mesh7_mesh7-geometry' with 8 faces
g mesh7_mesh7-geometry
usemtl material_3_1_8
f  115/40/100 114/41/100 113/42/100
f  116/43/100 113/42/100 114/41/100
f  114/44/102 115/45/102 117/46/102
f  116/47/99 118/48/99 113/49/99
f  119/50/102 117/46/102 115/45/102
f  120/51/99 113/49/99 118/48/99
f  117/52/101 119/53/101 118/54/101
f  120/55/101 118/54/101 119/53/101

# Mesh 'mesh7_mesh7-geometry' with 2 faces
g mesh7_mesh7-geometry
usemtl material_4_2_8
f  116/37/2 114/1/2 118/38/2
f  117/39/2 118/38/2 114/1/2

# Mesh 'mesh8_mesh8-geometry' with 10 faces
g mesh8_mesh8-geometry
usemtl material_2_24
f  121/1/101 122/1/101 123/1/101
f  122/1/101 121/1/101 124/1/101
f  125/1/99 123/1/99 122/1/99
f  121/1/102 126/1/102 124/1/102
f  126/1/1 122/1/1 124/1/1
f  123/1/99 125/1/99 127/1/99
f  122/1/1 126/1/1 125/1/1
f  126/1/102 121/1/102 128/1/102
f  126/1/100 127/1/100 125/1/100
f  127/1/100 126/1/100 128/1/100

# Mesh 'mesh8_mesh8-geometry' with 8 faces
g mesh8_mesh8-geometry
usemtl material_3_1_8
f  123/56/100 122/57/100 121/58/100
f  124/59/100 121/58/100 122/57/100
f  122/60/102 123/61/102 125/62/102
f  124/63/99 126/64/99 121/65/99
f  127/66/102 125/62/102 123/61/102
f  128/67/99 121/65/99 126/64/99
f  125/68/101 127/69/101 126/70/101
f  128/71/101 126/70/101 127/69/101

# Mesh 'mesh8_mesh8-geometry' with 2 faces
g mesh8_mesh8-geometry
usemtl material_6_4_8
f  124/37/2 122/1/2 126/38/2
f  125/39/2 126/38/2 122/1/2

