# File produced by Open Asset Import Library (http://www.assimp.sf.net)
# (assimp v3.2.202087883)

mtllib model_normalized.mtl

# 152 vertex positions
v 0.242000 -0.395499 -0.152050
v 0.243545 -0.395499 -0.151870
v 0.234305 -0.395499 -0.151870
v -0.226025 -0.395499 -0.151280
v -0.217022 0.224252 -0.209971
v 0.249647 -0.395499 -0.151164
v -0.217022 -0.395499 -0.151870
v 0.243545 0.224252 -0.209971
v -0.234875 -0.395499 -0.149520
v 0.253064 0.224252 -0.210110
v -0.242724 0.224252 -0.209137
v 0.257096 -0.395499 -0.149229
v -0.229899 0.224252 -0.210397
v 0.264901 0.224252 -0.208634
v -0.243419 -0.395499 -0.146619
v -0.255273 0.224252 -0.206215
v 0.264209 -0.395499 -0.146284
v 0.276419 0.224252 -0.205537
v -0.251511 -0.395499 -0.142628
v -0.267334 0.224252 -0.201680
v 0.270844 -0.395499 -0.142386
v 0.287400 0.224252 -0.200876
v -0.259014 -0.395499 -0.137616
v -0.229534 0.224252 -0.199139
v 0.276878 -0.395499 -0.137607
v 0.297633 0.224252 -0.194744
v -0.240892 0.224252 -0.198025
v 0.252446 0.224252 -0.198860
v -0.278700 0.224252 -0.195609
v 0.282194 -0.395499 -0.132041
v 0.272748 0.224252 -0.194885
v 0.262735 0.224252 -0.197578
v 0.243626 0.224252 -0.198732
v -0.265797 -0.395499 -0.131667
v 0.282292 0.224252 -0.190834
v -0.252006 0.224252 -0.195435
v -0.217207 0.224252 -0.198732
v -0.289176 0.224252 -0.188106
v 0.286690 -0.395499 -0.125793
v 0.306919 0.224252 -0.187258
v -0.262689 0.224252 -0.191419
v -0.298582 0.224252 -0.179301
v -0.271747 -0.395499 -0.124882
v 0.291185 0.224252 -0.185505
v -0.272755 0.224252 -0.186043
v -0.282033 0.224252 -0.179397
v 0.290278 -0.395499 -0.118984
v 0.315082 0.224252 -0.178560
v 0.299257 0.224252 -0.178998
v -0.290364 0.224252 -0.171598
v -0.306761 0.224252 -0.169343
v -0.276760 -0.395499 -0.117381
v 0.292893 -0.395499 -0.111745
v 0.321964 0.224252 -0.168817
v 0.306353 0.224252 -0.171437
v -0.297606 0.224252 -0.162779
v -0.313568 0.224252 -0.158403
v -0.280751 -0.395499 -0.109288
v 0.294482 -0.395499 -0.104214
v 0.327436 0.224252 -0.158217
v 0.312335 0.224252 -0.162969
v -0.303636 0.224252 -0.153090
v -0.318889 0.224252 -0.146667
v -0.283651 -0.395499 -0.100743
v 0.295015 -0.395499 -0.096536
v 0.331388 0.224252 -0.146962
v 0.317090 0.224252 -0.153756
v -0.308348 0.224252 -0.142697
v -0.322633 0.224252 -0.134337
v -0.285411 -0.395499 -0.091894
v -0.286001 -0.395499 -0.082891
v 0.333749 0.224252 -0.135270
v 0.320526 0.224252 -0.143973
v -0.311665 0.224252 -0.131777
v -0.324736 0.224252 -0.121625
v 0.295015 -0.395499 0.014107
v -0.286001 -0.395499 0.094377
v -0.324736 0.224252 0.133112
v 0.333749 0.224252 0.014107
v 0.322510 0.224252 -0.134147
v -0.313497 0.224252 -0.120701
v -0.285457 -0.395499 0.102682
v -0.313497 0.224252 0.132157
v 0.295015 -0.395499 0.124747
v -0.283833 -0.395499 0.110845
v -0.322678 0.224252 0.145127
v -0.311725 0.224252 0.142504
v 0.322510 0.224252 0.161417
v 0.333749 0.224252 0.163483
v -0.281158 -0.395499 0.118727
v -0.319072 0.224252 0.156769
v 0.294566 -0.395499 0.126338
v -0.277477 -0.395499 0.126191
v -0.313975 0.224252 0.167841
v -0.308554 0.224252 0.152740
v 0.320668 0.224252 0.166257
v 0.293787 -0.395499 0.129099
v 0.293947 -0.395499 0.131364
v -0.307477 0.224252 0.178153
v -0.304074 0.224252 0.162474
v 0.330867 0.224252 0.171058
v 0.294097 -0.395499 0.136425
v -0.299689 0.224252 0.187530
v -0.298361 0.224252 0.171540
v 0.315579 0.224252 0.175228
v 0.291004 -0.395499 0.135207
v -0.272853 -0.395499 0.133112
v 0.295015 -0.395499 0.141404
v -0.283650 0.224252 0.187061
v -0.291514 0.224252 0.179782
v 0.324930 0.224252 0.181520
v -0.290744 0.224252 0.195809
v -0.274902 0.224252 0.193251
v 0.309186 0.224252 0.183321
v 0.287326 -0.395499 0.140822
v -0.267365 -0.395499 0.139369
v 0.301639 0.224252 0.190350
v 0.317474 0.224252 0.190962
v -0.261108 -0.395499 0.144857
v -0.265423 0.224252 0.198245
v 0.282838 -0.395499 0.145812
v -0.280793 0.224252 0.202850
v -0.255372 0.224252 0.201960
v 0.293111 0.224252 0.196151
v 0.308671 0.224252 0.199160
v -0.254187 -0.395499 0.149481
v 0.298725 0.224252 0.205926
v -0.270010 0.224252 0.208532
v -0.244921 0.224252 0.204331
v 0.283803 0.224252 0.200590
v 0.263716 0.224252 0.205005
v 0.277645 -0.395499 0.150063
v -0.246722 -0.395499 0.153162
v -0.234251 0.224252 0.205318
v 0.273927 0.224252 0.203566
v 0.287867 0.224252 0.211105
v -0.258578 0.224252 0.212758
v -0.222591 0.224252 0.204868
v 0.271865 -0.395499 0.153476
v -0.238841 -0.395499 0.155837
v 0.252475 0.224252 0.204868
v 0.276347 0.224252 0.214574
v -0.246690 0.224252 0.215454
v 0.265636 -0.395499 0.155973
v -0.230680 -0.395499 0.157461
v 0.264436 0.224252 0.216255
v -0.234553 0.224252 0.216578
v 0.252407 0.224252 0.216107
v 0.259098 -0.395499 0.157494
v -0.222375 -0.395499 0.158005
v -0.222375 0.224252 0.216107
v 0.252407 -0.395499 0.158005

# 0 UV coordinates

# 202 vertex normals
vn 0 -0.0254 0
vn 0 0.0254 0
vn 0 -0.00237086 -0.0252891
vn 0 0.00237086 0.0252891
vn 0.00127419 -0.00239286 -0.0252549
vn 0.00189459 -0.00239796 -0.0252155
vn 0.00413916 -0.00241638 -0.0249437
vn -0.00413916 0.00241638 0.0249437
vn -0.00189459 0.00239796 0.0252155
vn -0.00127419 0.00239286 0.0252549
vn -0.00192595 -0.00239977 -0.0252129
vn -0.00041021 -0.00238851 -0.0252841
vn -0.00165402 -0.00236583 -0.0252354
vn 0.00165402 0.00236583 0.0252354
vn 0.00041021 0.00238851 0.0252841
vn 0.00192595 0.00239977 0.0252129
vn -0.000367589 -0.00237061 -0.0252865
vn 0.000367589 0.00237061 0.0252865
vn -0.00519999 -0.00242875 -0.0247431
vn -0.00219941 -0.00242849 -0.0251878
vn 0.00219941 0.00242849 0.0251878
vn 0.00519999 0.00242875 0.0247431
vn 0.00535993 -0.00242237 -0.0247096
vn -0.00535993 0.00242237 0.0247096
vn 0.0075456 -0.00242913 -0.0241314
vn -0.0075456 0.00242913 0.0241314
vn -0.00546781 -0.00245575 -0.0246826
vn 0.00546781 0.00245575 0.0246826
vn -0.008385 -0.00243672 -0.0238519
vn 0.008385 0.00243672 0.0238519
vn 0.00872254 -0.00242717 -0.0237316
vn -0.00872254 0.00242717 0.0237316
vn -0.00864271 -0.00246195 -0.0237572
vn 0.00864271 0.00246195 0.0237572
vn 0.0108079 -0.0024194 -0.0228582
vn -0.0108079 0.0024194 0.0228582
vn -0.0114273 -0.00242349 -0.0225545
vn 0.0114273 0.00242349 0.0225545
vn 0.0119187 -0.00240949 -0.0223002
vn -0.0119187 0.00240949 0.0223002
vn -0.0116705 -0.00244699 -0.022427
vn 0.0116705 0.00244699 0.022427
vn 0.0138642 -0.00238737 -0.0211481
vn -0.0138642 0.00238737 0.0211481
vn -0.0142754 -0.0023893 -0.0208726
vn 0.0142754 0.0023893 0.0208726
vn 0.0157883 -0.00235029 -0.0197577
vn -0.0157883 0.00235029 0.0197577
vn -0.0145 -0.00241107 -0.0207146
vn 0.0145 0.00241107 0.0207146
vn 0.0170408 -0.00229425 -0.0186951
vn -0.0170408 0.00229425 0.0186951
vn -0.0169822 -0.00234742 -0.0187418
vn 0.0169822 0.00234742 0.0187418
vn 0.0183475 -0.00226276 -0.0174187
vn -0.0183475 0.00226276 0.0174187
vn -0.016037 -0.00238554 -0.0195521
vn 0.016037 0.00238554 0.0195521
vn 0.0183962 -0.00229453 -0.017363
vn -0.0183962 0.00229453 0.017363
vn -0.0186473 -0.00229624 -0.0170929
vn 0.0186473 0.00229624 0.0170929
vn 0.0205845 -0.00217523 -0.0147209
vn -0.0205845 0.00217523 0.0147209
vn -0.0199011 -0.00225072 -0.0156218
vn 0.0199011 0.00225072 0.0156218
vn 0.0206252 -0.00220665 -0.0146592
vn -0.0206252 0.00220665 0.0146592
vn -0.0207252 -0.00220835 -0.0145172
vn 0.0207252 0.00220835 0.0145172
vn 0.022429 -0.00206952 -0.0117396
vn -0.022429 0.00206952 0.0117396
vn -0.0217772 -0.00215262 -0.0128949
vn 0.0217772 0.00215262 0.0128949
vn 0.0224609 -0.00210058 -0.0116729
vn -0.0224609 0.00210058 0.0116729
vn -0.0224507 -0.0021033 -0.0116919
vn 0.0224507 0.0021033 0.0116919
vn 0.023845 -0.00194754 -0.00853128
vn -0.023845 0.00194754 0.00853128
vn -0.0232828 -0.00203835 -0.00994575
vn 0.0232828 0.00203835 0.00994575
vn 0.0238676 -0.00197835 -0.00846077
vn -0.0238676 0.00197835 0.00846077
vn -0.0237939 -0.00198285 -0.00866478
vn 0.0237939 0.00198285 0.00866478
vn 0.0248049 -0.00181168 -0.00515686
vn -0.0248049 0.00181168 0.00515686
vn -0.0243914 -0.00190983 -0.00682434
vn 0.0243914 0.00190983 0.00682434
vn 0.0248177 -0.00184226 -0.00508394
vn -0.0248177 0.00184226 0.00508394
vn -0.0247312 -0.00184902 -0.00548711
vn 0.0247312 0.00184902 0.00548711
vn 0.0251117 -0.00174978 -0.00339128
vn -0.0251117 0.00174978 0.00339128
vn -0.0250836 -0.00176924 -0.00358369
vn 0.0250836 0.00176924 0.00358369
vn 0.0248305 -0.0018652 -0.00501292
vn -0.0248305 0.0018652 0.00501292
vn -0.0251741 -0.00173645 -0.00289954
vn 0.0251741 0.00173645 0.00289954
vn -0.0252898 -0.00168422 -0.00165758
vn 0.0252898 0.00168422 0.00165758
vn 0.0253505 -0.0015844 -0
vn -0.0253505 0.0015844 0
vn -0.0253505 -0.0015844 0
vn 0.0253505 0.0015844 0
vn -0.0249327 -0.00181724 0.00449661
vn -0.0251661 -0.00173261 0.00297045
vn -0.0248925 -0.00180096 0.00472031
vn 0.0248925 0.00180096 -0.00472031
vn 0.0251661 0.00173261 -0.00297045
vn 0.0249327 0.00181724 -0.00449661
vn -0.0249708 -0.00182786 0.00427507
vn 0.0249708 0.00182786 -0.00427507
vn -0.0241227 -0.00195468 0.00770938
vn -0.0240538 -0.00193764 0.00792589
vn 0.0240538 0.00193764 -0.00792589
vn 0.0241227 0.00195468 -0.00770938
vn 0.0240415 -0.00199128 0.00794987
vn 0.0243726 -0.00195323 0.00687916
vn -0.0243726 0.00195323 -0.00687916
vn -0.0240415 0.00199128 -0.00794987
vn -0.022901 -0.00207942 0.0107879
vn -0.0228047 -0.00206146 0.0109935
vn 0.0228047 0.00206146 -0.0109935
vn 0.022901 0.00207942 -0.0107879
vn 0.0237367 -0.00202644 0.00881045
vn -0.0237367 0.00202644 -0.00881045
vn -0.0212892 -0.00218935 0.0136798
vn -0.021167 -0.00217033 0.0138711
vn 0.021167 0.00217033 -0.0138711
vn 0.0212892 0.00218935 -0.0136798
vn 0.0229488 -0.00208826 0.0106842
vn -0.0229488 0.00208826 -0.0106842
vn -0.0193152 -0.00228265 0.0163363
vn 0.0193152 0.00228265 -0.0163363
vn 0.022115 -0.0021449 0.0123079
vn -0.022115 0.0021449 -0.0123079
vn -0.0191692 -0.00226243 0.0165101
vn 0.0191692 0.00226243 -0.0165101
vn 0.0210529 -0.00219359 0.01404
vn -0.0210529 0.00219359 -0.01404
vn -0.0169291 -0.00234975 0.0187895
vn 0.0169291 0.00234975 -0.0187895
vn 0.019983 -0.00224206 0.0155181
vn -0.019983 0.00224206 -0.0155181
vn -0.0178868 -0.0023036 0.0178862
vn 0.0178868 0.0023036 -0.0178862
vn 0.0186712 -0.0022811 0.0170688
vn -0.0186712 0.0022811 -0.0170688
vn -0.0151337 -0.00239365 0.0202584
vn 0.0151337 0.00239365 -0.0202584
vn 0.016638 -0.00233332 0.0190497
vn -0.016638 0.00233332 -0.0190497
vn -0.0135014 -0.00241755 0.0213782
vn 0.0135014 0.00241755 -0.0213782
vn 0.0157773 -0.00235905 0.0197654
vn -0.0157773 0.00235905 -0.0197654
vn -0.012358 -0.00243441 0.0220571
vn 0.012358 0.00243441 -0.0220571
vn 0.0137776 -0.00238811 0.0212046
vn -0.0137776 0.00238811 -0.0212046
vn -0.0105943 -0.00244592 0.0229551
vn 0.0105943 0.00244592 -0.0229551
vn 0.0133212 -0.00237617 0.0214956
vn -0.0133212 0.00237617 -0.0214956
vn -0.0093725 -0.00245435 0.0234796
vn 0.0093725 0.00245435 -0.0234796
vn 0.0103966 -0.00241971 0.0230481
vn -0.0103966 0.00241971 -0.0230481
vn -0.00750717 -0.00245323 0.0241409
vn 0.00750717 0.00245323 -0.0241409
vn 0.00990153 -0.00240459 0.0232667
vn -0.00990153 0.00240459 -0.0232667
vn -0.0062276 -0.00245316 0.0245022
vn 0.0062276 0.00245316 -0.0245022
vn 0.00677593 -0.00242852 0.0243588
vn -0.00677593 0.00242852 -0.0243588
vn -0.00429212 -0.00243939 0.0249156
vn 0.00429212 0.00243939 -0.0249156
vn 0.00625351 -0.00241021 0.0244999
vn -0.00625351 0.00241021 -0.0244999
vn -0.00297635 -0.00243083 0.0251076
vn 0.00297635 0.00243083 -0.0251076
vn 0.0029986 -0.00241437 0.0251066
vn -0.0029986 0.00241437 -0.0251066
vn -0.00100335 -0.00240457 0.025266
vn 0.00100335 0.00240457 -0.025266
vn 0.0024608 -0.00239283 0.025167
vn -0.0024608 0.00239283 -0.025167
vn -0.000338607 -0.00239629 0.0252845
vn 0.000338607 0.00239629 -0.0252845
vn 0.000807923 -0.00238166 0.0252752
vn -0.000807923 0.00238166 -0.0252752
vn 0.000977417 -0.00236911 0.0252704
vn -0.000977417 0.00236911 -0.0252704
vn 0 -0.00237086 0.0252891
vn 0 0.00237086 -0.0252891
vn 0.00192568 -0.00236403 0.0252163
vn -0.00192568 0.00236403 -0.0252163

# Mesh 'mesh1_mesh1-geometry' with 500 faces
g mesh1_mesh1-geometry
usemtl material_0_24
f  1//1 2//1 3//1
f  3//2 2//2 1//2
f  2//1 4//1 3//1
f  3//2 4//2 2//2
f  5//3 2//3 3//3
f  3//4 2//4 5//4
f  6//1 4//1 2//1
f  2//2 4//2 6//2
f  7//1 3//1 4//1
f  4//2 3//2 7//2
f  2//3 5//3 8//3
f  8//4 5//4 2//4
f  5//3 3//3 7//3
f  7//4 3//4 5//4
f  6//1 9//1 4//1
f  4//2 9//2 6//2
f  2//5 10//6 6//7
f  6//8 10//9 2//10
f  4//11 5//12 7//13
f  7//14 5//15 4//16
f  11//2 8//2 5//2
f  5//1 8//1 11//1
f  2//5 8//17 10//6
f  10//9 8//18 2//10
f  12//1 9//1 6//1
f  6//2 9//2 12//2
f  9//19 13//20 4//11
f  4//16 13//21 9//22
f  6//7 10//6 14//23
f  14//24 10//9 6//8
f  13//20 5//12 4//11
f  4//16 5//15 13//21
f  11//2 14//2 8//2
f  8//1 14//1 11//1
f  13//2 11//2 5//2
f  5//1 11//1 13//1
f  8//2 14//2 10//2
f  10//1 14//1 8//1
f  12//1 15//1 9//1
f  9//2 15//2 12//2
f  6//7 14//23 12//25
f  12//26 14//24 6//8
f  11//27 13//20 9//19
f  9//22 13//21 11//28
f  16//2 14//2 11//2
f  11//1 14//1 16//1
f  17//1 15//1 12//1
f  12//2 15//2 17//2
f  15//29 11//27 9//19
f  9//22 11//28 15//30
f  12//25 14//23 18//31
f  18//32 14//24 12//26
f  16//2 18//2 14//2
f  14//1 18//1 16//1
f  16//33 11//27 15//29
f  15//30 11//28 16//34
f  17//1 19//1 15//1
f  15//2 19//2 17//2
f  12//25 18//31 17//35
f  17//36 18//32 12//26
f  20//2 18//2 16//2
f  16//1 18//1 20//1
f  16//33 15//29 19//37
f  19//38 15//30 16//34
f  21//1 19//1 17//1
f  17//2 19//2 21//2
f  17//35 18//31 22//39
f  22//40 18//32 17//36
f  20//2 22//2 18//2
f  18//1 22//1 20//1
f  20//41 16//33 19//37
f  19//38 16//34 20//42
f  21//1 23//1 19//1
f  19//2 23//2 21//2
f  17//35 22//39 21//43
f  21//44 22//40 17//36
f  20//2 24//2 22//2
f  22//1 24//1 20//1
f  20//41 19//37 23//45
f  23//46 19//38 20//42
f  25//1 23//1 21//1
f  21//2 23//2 25//2
f  21//43 22//39 26//47
f  26//48 22//40 21//44
f  20//2 27//2 24//2
f  24//1 27//1 20//1
f  28//2 22//2 24//2
f  24//1 22//1 28//1
f  29//49 20//41 23//45
f  23//46 20//42 29//50
f  30//1 23//1 25//1
f  25//2 23//2 30//2
f  21//43 26//47 25//51
f  25//52 26//48 21//44
f  31//2 26//2 22//2
f  22//1 26//1 31//1
f  29//2 27//2 20//2
f  20//1 27//1 29//1
f  32//2 22//2 28//2
f  28//1 22//1 32//1
f  24//2 33//2 28//2
f  28//1 33//1 24//1
f  29//49 23//45 34//53
f  34//54 23//46 29//50
f  30//1 34//1 23//1
f  23//2 34//2 30//2
f  26//47 30//55 25//51
f  25//52 30//56 26//48
f  35//2 26//2 31//2
f  31//1 26//1 35//1
f  31//2 22//2 32//2
f  32//1 22//1 31//1
f  29//2 36//2 27//2
f  27//1 36//1 29//1
f  33//2 24//2 37//2
f  37//1 24//1 33//1
f  38//57 29//49 34//53
f  34//54 29//50 38//58
f  39//1 34//1 30//1
f  30//2 34//2 39//2
f  30//55 26//47 40//59
f  40//60 26//48 30//56
f  35//2 40//2 26//2
f  26//1 40//1 35//1
f  29//2 41//2 36//2
f  36//1 41//1 29//1
f  38//2 41//2 29//2
f  29//1 41//1 38//1
f  42//61 38//57 34//53
f  34//54 38//58 42//62
f  39//1 43//1 34//1
f  34//2 43//2 39//2
f  40//59 39//63 30//55
f  30//56 39//64 40//60
f  44//2 40//2 35//2
f  35//1 40//1 44//1
f  38//2 45//2 41//2
f  41//1 45//1 38//1
f  42//2 46//2 38//2
f  38//1 46//1 42//1
f  42//61 34//53 43//65
f  43//66 34//54 42//62
f  47//1 43//1 39//1
f  39//2 43//2 47//2
f  48//67 39//63 40//59
f  40//60 39//64 48//68
f  49//2 40//2 44//2
f  44//1 40//1 49//1
f  38//2 46//2 45//2
f  45//1 46//1 38//1
f  42//2 50//2 46//2
f  46//1 50//1 42//1
f  42//61 43//65 51//69
f  51//70 43//66 42//62
f  47//1 52//1 43//1
f  43//2 52//2 47//2
f  48//67 47//71 39//63
f  39//64 47//72 48//68
f  49//2 48//2 40//2
f  40//1 48//1 49//1
f  51//2 50//2 42//2
f  42//1 50//1 51//1
f  51//69 43//65 52//73
f  52//74 43//66 51//70
f  53//1 52//1 47//1
f  47//2 52//2 53//2
f  54//75 47//71 48//67
f  48//68 47//72 54//76
f  55//2 48//2 49//2
f  49//1 48//1 55//1
f  51//2 56//2 50//2
f  50//1 56//1 51//1
f  51//69 52//73 57//77
f  57//78 52//74 51//70
f  53//1 58//1 52//1
f  52//2 58//2 53//2
f  54//75 53//79 47//71
f  47//72 53//80 54//76
f  55//2 54//2 48//2
f  48//1 54//1 55//1
f  57//2 56//2 51//2
f  51//1 56//1 57//1
f  57//77 52//73 58//81
f  58//82 52//74 57//78
f  59//1 58//1 53//1
f  53//2 58//2 59//2
f  60//83 53//79 54//75
f  54//76 53//80 60//84
f  61//2 54//2 55//2
f  55//1 54//1 61//1
f  57//2 62//2 56//2
f  56//1 62//1 57//1
f  57//77 58//81 63//85
f  63//86 58//82 57//78
f  59//1 64//1 58//1
f  58//2 64//2 59//2
f  60//83 59//87 53//79
f  53//80 59//88 60//84
f  61//2 60//2 54//2
f  54//1 60//1 61//1
f  63//2 62//2 57//2
f  57//1 62//1 63//1
f  63//85 58//81 64//89
f  64//90 58//82 63//86
f  65//1 64//1 59//1
f  59//2 64//2 65//2
f  66//91 59//87 60//83
f  60//84 59//88 66//92
f  67//2 60//2 61//2
f  61//1 60//1 67//1
f  63//2 68//2 62//2
f  62//1 68//1 63//1
f  63//85 64//89 69//93
f  69//94 64//90 63//86
f  65//1 70//1 64//1
f  64//2 70//2 65//2
f  66//91 65//95 59//87
f  59//88 65//96 66//92
f  67//2 66//2 60//2
f  60//1 66//1 67//1
f  69//2 68//2 63//2
f  63//1 68//1 69//1
f  69//93 64//89 70//97
f  70//98 64//90 69//94
f  65//1 71//1 70//1
f  70//2 71//2 65//2
f  72//99 65//95 66//91
f  66//92 65//96 72//100
f  73//2 66//2 67//2
f  67//1 66//1 73//1
f  69//2 74//2 68//2
f  68//1 74//1 69//1
f  69//93 70//97 75//101
f  75//102 70//98 69//94
f  76//1 71//1 65//1
f  65//2 71//2 76//2
f  75//101 70//97 71//103
f  71//104 70//98 75//102
f  72//105 76//105 65//105
f  65//106 76//106 72//106
f  73//2 72//2 66//2
f  66//1 72//1 73//1
f  75//2 74//2 69//2
f  69//1 74//1 75//1
f  76//1 77//1 71//1
f  71//2 77//2 76//2
f  71//107 78//107 75//107
f  75//108 78//108 71//108
f  76//105 72//105 79//105
f  79//106 72//106 76//106
f  80//2 72//2 73//2
f  73//1 72//1 80//1
f  75//2 81//2 74//2
f  74//1 81//1 75//1
f  76//1 82//1 77//1
f  77//2 82//2 76//2
f  78//107 71//107 77//107
f  77//108 71//108 78//108
f  78//2 83//2 75//2
f  75//1 83//1 78//1
f  80//2 79//2 72//2
f  72//1 79//1 80//1
f  79//105 84//105 76//105
f  76//106 84//106 79//106
f  75//2 83//2 81//2
f  81//1 83//1 75//1
f  76//1 85//1 82//1
f  82//2 85//2 76//2
f  86//109 77//110 82//111
f  82//112 77//113 86//114
f  78//115 77//110 86//109
f  86//114 77//113 78//116
f  78//2 87//2 83//2
f  83//1 87//1 78//1
f  88//2 79//2 80//2
f  80//1 79//1 88//1
f  84//105 79//105 89//105
f  89//106 79//106 84//106
f  84//1 90//1 76//1
f  76//2 90//2 84//2
f  76//1 90//1 85//1
f  85//2 90//2 76//2
f  91//117 82//111 85//118
f  85//119 82//112 91//120
f  86//109 82//111 91//117
f  91//120 82//112 86//114
f  86//2 87//2 78//2
f  78//1 87//1 86//1
f  88//2 89//2 79//2
f  79//1 89//1 88//1
f  89//121 92//122 84//122
f  84//123 92//123 89//124
f  84//1 93//1 90//1
f  90//2 93//2 84//2
f  94//125 85//118 90//126
f  90//127 85//119 94//128
f  91//117 85//118 94//125
f  94//128 85//119 91//120
f  91//2 95//2 86//2
f  86//1 95//1 91//1
f  86//2 95//2 87//2
f  87//1 95//1 86//1
f  96//2 89//2 88//2
f  88//1 89//1 96//1
f  92//122 89//121 97//129
f  97//130 89//124 92//123
f  92//1 93//1 84//1
f  84//2 93//2 92//2
f  84//1 98//1 92//1
f  92//2 98//2 84//2
f  99//131 90//126 93//132
f  93//133 90//127 99//134
f  94//125 90//126 99//131
f  99//134 90//127 94//128
f  94//2 100//2 91//2
f  91//1 100//1 94//1
f  91//2 100//2 95//2
f  95//1 100//1 91//1
f  96//2 101//2 89//2
f  89//1 101//1 96//1
f  101//135 97//129 89//121
f  89//124 97//130 101//136
f  97//1 93//1 92//1
f  92//2 93//2 97//2
f  84//1 102//1 98//1
f  98//2 102//2 84//2
f  99//131 93//132 103//137
f  103//138 93//133 99//134
f  99//2 104//2 94//2
f  94//1 104//1 99//1
f  94//2 104//2 100//2
f  100//1 104//1 94//1
f  105//2 101//2 96//2
f  96//1 101//1 105//1
f  101//135 106//139 97//129
f  97//130 106//140 101//136
f  97//1 107//1 93//1
f  93//2 107//2 97//2
f  102//1 84//1 108//1
f  108//2 84//2 102//2
f  103//137 93//132 107//141
f  107//142 93//133 103//138
f  103//2 109//2 99//2
f  99//1 109//1 103//1
f  99//2 110//2 104//2
f  104//1 110//1 99//1
f  105//2 111//2 101//2
f  101//1 111//1 105//1
f  111//143 106//139 101//135
f  101//136 106//140 111//144
f  106//1 107//1 97//1
f  97//2 107//2 106//2
f  103//137 107//141 112//145
f  112//146 107//142 103//138
f  103//2 113//2 109//2
f  109//1 113//1 103//1
f  99//2 109//2 110//2
f  110//1 109//1 99//1
f  114//2 111//2 105//2
f  105//1 111//1 114//1
f  111//143 115//147 106//139
f  106//140 115//148 111//144
f  106//1 116//1 107//1
f  107//2 116//2 106//2
f  112//145 107//141 116//149
f  116//150 107//142 112//146
f  112//2 113//2 103//2
f  103//1 113//1 112//1
f  117//2 111//2 114//2
f  114//1 111//1 117//1
f  118//151 115//147 111//143
f  111//144 115//148 118//152
f  115//1 116//1 106//1
f  106//2 116//2 115//2
f  112//145 116//149 119//153
f  119//154 116//150 112//146
f  112//2 120//2 113//2
f  113//1 120//1 112//1
f  117//2 118//2 111//2
f  111//1 118//1 117//1
f  118//151 121//155 115//147
f  115//148 121//156 118//152
f  115//1 119//1 116//1
f  116//2 119//2 115//2
f  112//145 119//153 122//157
f  122//158 119//154 112//146
f  112//2 123//2 120//2
f  120//1 123//1 112//1
f  124//2 118//2 117//2
f  117//1 118//1 124//1
f  121//155 118//151 125//159
f  125//160 118//152 121//156
f  121//1 119//1 115//1
f  115//2 119//2 121//2
f  122//157 119//153 126//161
f  126//162 119//154 122//158
f  122//2 123//2 112//2
f  112//1 123//1 122//1
f  124//2 125//2 118//2
f  118//1 125//1 124//1
f  121//155 125//159 127//163
f  127//164 125//160 121//156
f  121//1 126//1 119//1
f  119//2 126//2 121//2
f  122//157 126//161 128//165
f  128//166 126//162 122//158
f  122//2 129//2 123//2
f  123//1 129//1 122//1
f  130//2 125//2 124//2
f  124//1 125//1 130//1
f  131//2 127//2 125//2
f  125//1 127//1 131//1
f  132//167 121//155 127//163
f  127//164 121//156 132//168
f  132//1 126//1 121//1
f  121//2 126//2 132//2
f  128//165 126//161 133//169
f  133//170 126//162 128//166
f  128//2 134//2 122//2
f  122//1 134//1 128//1
f  122//2 134//2 129//2
f  129//1 134//1 122//1
f  135//2 125//2 130//2
f  130//1 125//1 135//1
f  127//2 131//2 134//2
f  134//1 131//1 127//1
f  131//2 125//2 135//2
f  135//1 125//1 131//1
f  132//167 127//163 136//171
f  136//172 127//164 132//168
f  132//1 133//1 126//1
f  126//2 133//2 132//2
f  128//165 133//169 137//173
f  137//174 133//170 128//166
f  128//2 127//2 134//2
f  134//1 127//1 128//1
f  131//2 138//2 134//2
f  134//1 138//1 131//1
f  128//2 136//2 127//2
f  127//1 136//1 128//1
f  139//175 132//167 136//171
f  136//172 132//168 139//176
f  139//1 133//1 132//1
f  132//2 133//2 139//2
f  137//173 133//169 140//177
f  140//178 133//170 137//174
f  137//2 136//2 128//2
f  128//1 136//1 137//1
f  138//2 131//2 141//2
f  141//1 131//1 138//1
f  139//175 136//171 142//179
f  142//180 136//172 139//176
f  139//1 140//1 133//1
f  133//2 140//2 139//2
f  137//173 140//177 143//181
f  143//182 140//178 137//174
f  137//2 142//2 136//2
f  136//1 142//1 137//1
f  144//183 139//175 142//179
f  142//180 139//176 144//184
f  144//1 140//1 139//1
f  139//2 140//2 144//2
f  143//181 140//177 145//185
f  145//186 140//178 143//182
f  143//2 142//2 137//2
f  137//1 142//1 143//1
f  146//187 144//183 142//179
f  142//180 144//184 146//188
f  144//1 145//1 140//1
f  140//2 145//2 144//2
f  143//181 145//185 147//189
f  147//190 145//186 143//182
f  148//2 142//2 143//2
f  143//1 142//1 148//1
f  149//191 144//183 146//187
f  146//188 144//184 149//192
f  142//2 148//2 146//2
f  146//1 148//1 142//1
f  149//1 145//1 144//1
f  144//2 145//2 149//2
f  147//189 145//185 150//193
f  150//194 145//186 147//190
f  151//2 143//2 147//2
f  147//1 143//1 151//1
f  143//2 151//2 148//2
f  148//1 151//1 143//1
f  148//195 149//191 146//187
f  146//188 149//192 148//196
f  152//1 145//1 149//1
f  149//2 145//2 152//2
f  145//1 152//1 150//1
f  150//2 152//2 145//2
f  147//189 150//193 151//197
f  151//198 150//194 147//190
f  151//199 152//199 148//199
f  148//200 152//200 151//200
f  152//201 149//191 148//195
f  148//196 149//192 152//202
f  152//199 151//199 150//199
f  150//200 151//200 152//200

# Mesh 'mesh2_mesh2-geometry' with 109 faces
g mesh2_mesh2-geometry
usemtl material_0_0
l  97 106
l  92 97
l  106 115
l  84 92
l  115 121
l  84 89
l  84 76
l  121 132
l  89 79
l  89 101
l  76 65
l  79 76
l  132 139
l  79 72
l  101 111
l  65 59
l  65 72
l  139 144
l  72 66
l  111 118
l  59 53
l  144 149
l  66 60
l  118 125
l  53 47
l  149 152
l  60 54
l  125 127
l  47 39
l  150 152
l  152 148
l  54 48
l  127 136
l  39 30
l  145 150
l  150 151
l  151 148
l  146 148
l  48 40
l  136 142
l  30 25
l  140 145
l  147 151
l  142 146
l  40 26
l  25 21
l  133 140
l  143 147
l  26 22
l  21 17
l  126 133
l  137 143
l  22 18
l  17 12
l  119 126
l  128 137
l  18 14
l  12 6
l  116 119
l  122 128
l  14 10
l  6 2
l  107 116
l  112 122
l  10 8
l  2 3
l  2 8
l  93 107
l  103 112
l  8 5
l  3 7
l  90 93
l  99 103
l  5 13
l  7 5
l  7 4
l  85 90
l  94 99
l  13 11
l  4 9
l  82 85
l  91 94
l  11 16
l  9 15
l  77 82
l  86 91
l  16 20
l  15 19
l  71 77
l  77 78
l  78 86
l  20 29
l  19 23
l  70 71
l  71 75
l  75 78
l  29 38
l  23 34
l  64 70
l  69 75
l  38 42
l  34 43
l  58 64
l  63 69
l  42 51
l  43 52
l  52 58
l  57 63
l  51 57

