# File produced by Open Asset Import Library (http://www.assimp.sf.net)
# (assimp v3.2.202087883)

mtllib model_normalized.mtl

# 104 vertex positions
v -0.203374 0.129355 0.053431
v -0.210616 -0.519074 -0.001583
v -0.203374 -0.519074 0.053431
v -0.210616 0.129355 -0.001583
v -0.182138 0.129355 0.104696
v -0.203374 -0.519074 -0.056594
v -0.182138 -0.519074 0.104696
v -0.203374 0.129355 -0.056594
v 0.214495 0.129355 -0.001583
v 0.207250 -0.519074 0.053431
v 0.214495 -0.519074 -0.001583
v -0.148359 0.129355 0.148716
v -0.205039 0.183166 -0.001583
v -0.197985 0.129355 -0.055149
v -0.205039 0.129355 -0.001583
v -0.197985 0.183166 0.051987
v -0.197985 0.129355 0.051987
v -0.182138 -0.519074 -0.107859
v 0.207250 0.129355 0.053431
v 0.207250 0.129355 -0.056594
v 0.186018 -0.519074 0.104696
v -0.148359 -0.519074 0.148716
v -0.177307 0.183166 0.101908
v -0.177307 0.129355 0.101908
v -0.144419 0.183166 0.144775
v -0.144419 0.129355 0.144775
v -0.197985 0.183166 -0.055149
v -0.182138 0.129355 -0.107859
v 0.207250 -0.519074 -0.056594
v 0.186018 0.129355 0.104696
v 0.152239 -0.519074 0.148716
v -0.104340 -0.519074 0.182498
v -0.101552 0.129355 0.177668
v -0.177307 0.129355 -0.105071
v -0.122818 0.183166 -0.022722
v -0.122818 0.183166 0.060685
v -0.148359 -0.519074 -0.151883
v 0.186018 0.129355 -0.107859
v 0.152239 0.129355 0.148716
v -0.104340 0.129355 0.182498
v 0.148294 0.183166 0.144775
v -0.101552 0.183166 0.177668
v -0.177307 0.183166 -0.105071
v 0.201864 0.183166 -0.055149
v 0.076284 0.183166 0.060685
v -0.148359 0.129355 -0.151883
v 0.186018 -0.519074 -0.107859
v 0.208915 0.183166 -0.001583
v 0.201864 0.129355 0.051987
v 0.208915 0.129355 -0.001583
v 0.201864 0.183166 0.051987
v 0.181187 0.129355 0.101908
v 0.181187 0.183166 -0.105071
v 0.201864 0.129355 -0.055149
v 0.181187 0.129355 -0.105071
v 0.108215 0.129355 0.182498
v 0.108215 -0.519074 0.182498
v -0.053075 -0.519074 0.203731
v 0.181187 0.183166 0.101908
v -0.051630 0.129355 0.198345
v -0.144419 0.129355 -0.147938
v 0.076284 0.183166 -0.022722
v -0.122818 0.280027 0.060685
v -0.104340 0.129355 -0.185661
v 0.152239 0.129355 -0.151883
v 0.148294 0.183166 -0.147938
v 0.148294 0.129355 0.144775
v 0.056950 0.129355 0.203731
v -0.053075 0.129355 0.203731
v 0.056950 -0.519074 0.203731
v 0.105427 0.183166 0.177668
v -0.051630 0.183166 0.198345
v -0.144419 0.183166 -0.147938
v 0.076284 0.280027 -0.022722
v -0.122818 0.280027 -0.022722
v 0.076284 0.280027 0.060685
v -0.104340 -0.519074 -0.185661
v 0.152239 -0.519074 -0.151883
v 0.148294 0.129355 -0.147938
v 0.105427 0.129355 0.177668
v 0.001940 -0.519074 0.210972
v 0.001940 0.129355 0.210972
v 0.001940 0.129355 0.205396
v -0.101552 0.183166 -0.180831
v -0.101552 0.129355 -0.180831
v -0.053075 0.129355 -0.206893
v 0.108215 -0.519074 -0.185661
v 0.105427 0.129355 -0.180831
v 0.055510 0.183166 0.198345
v 0.055510 0.129355 0.198345
v 0.001940 0.183166 0.205396
v -0.051630 0.183166 -0.201508
v 0.105427 0.183166 -0.180831
v -0.053075 -0.519074 -0.206893
v -0.051630 0.129355 -0.201508
v 0.108215 0.129355 -0.185661
v 0.055510 0.183166 -0.201508
v 0.001940 0.129355 -0.214139
v 0.001940 0.183166 -0.208559
v 0.056950 -0.519074 -0.206893
v 0.055510 0.129355 -0.201508
v 0.001940 -0.519074 -0.214139
v 0.001940 0.129355 -0.208559
v 0.056950 0.129355 -0.206893

# 105 UV coordinates
vt 1.72351 1.25521 0
vt 0.861756 0 0
vt 1.72351 0 0
vt 0.861756 1.25521 0
vt 2.58527 1.25521 0
vt -0 0 0
vt 2.58527 0 0
vt -0 1.25521 0
vt 15 0.104167 0
vt 14.1667 -0 0
vt 15 -0 0
vt 15.8333 0.104167 0
vt 15.8333 0 0
vt 16.6667 0.104167 0
vt 16.6667 0 0
vt 17.5 0.104167 0
vt 17.5 0 0
vt 14.1667 0.104167 0
vt 18.3333 -0 0
vt 13.3333 0 0
vt 26.5303 4.36645 0
vt 26.028 4.22093 0
vt 26.8576 4.20728 0
vt 27.8219 4.36645 0
vt 27.6872 4.22093 0
vt 28.4603 4.26096 0
vt 29.1241 4.89125 0
vt 29.1241 4.32463 0
vt 18.3333 0.104167 0
vt 13.3333 0.104167 0
vt 26.028 4.99495 0
vt 27.8219 4.75186 0
vt 5 0.104167 0
vt 4.16667 -0 0
vt 5 -0 0
vt 4.16667 0.104167 0
vt 3.33333 -0 0
vt 6.66667 0.104167 0
vt 5.83333 -0 0
vt 6.66667 -0 0
vt 5.83333 0.104167 0
vt 28.4603 4.95493 0
vt 29.6335 4.40761 0
vt 19.1667 0 0
vt 12.5 -0 0
vt 25.255 4.26096 0
vt 26.5303 4.75186 0
vt 27.8219 1.54688 0
vt 26.5303 1.35938 0
vt 27.8219 1.35938 0
vt 38.0149 1.35938 0
vt 34.9316 1.54688 0
vt 34.9316 1.35938 0
vt 3.33333 0.104167 0
vt 7.5 0.104167 0
vt 2.5 0 0
vt 2.5 0.104167 0
vt 29.6335 4.80828 0
vt 19.1667 0.104167 0
vt 12.5 0.104167 0
vt 25.255 4.95493 0
vt 26.8576 5.00861 0
vt -34.9316 1.35938 0
vt -38.0149 1.54688 0
vt -38.0149 1.35938 0
vt 26.5303 1.54688 0
vt 27.6872 4.99495 0
vt 38.0149 1.54688 0
vt 7.5 -0 0
vt 24.5912 4.89125 0
vt 1.66667 0.104167 0
vt 1.66667 0 0
vt 3.44703 0 0
vt 3.44703 1.25521 0
vt 4.30878 0 0
vt 4.30878 1.25521 0
vt 29.9537 4.50425 0
vt 20 -0 0
vt 11.6667 0.104167 0
vt 11.6667 -0 0
vt 24.5912 4.32463 0
vt -34.9316 1.54688 0
vt -26.5303 1.54688 0
vt -27.8219 1.35938 0
vt -26.5303 1.35938 0
vt -27.8219 1.54688 0
vt 8.33333 -0 0
vt 0.833333 0.104167 0
vt 0.833333 0 0
vt 29.9537 4.71164 0
vt 20 0.104167 0
vt 10.8333 0.104167 0
vt 24.0818 4.80828 0
vt 24.0818 4.40761 0
vt 10.8333 0 0
vt 8.33333 0.104167 0
vt -0 0.104167 0
vt 30.0629 4.60794 0
vt 23.7616 4.71164 0
vt 23.7616 4.50425 0
vt 10 0.104167 0
vt 9.16667 -0 0
vt 23.6523 4.60794 0
vt 9.16667 0.104167 0
vt 10 -0 0

# 46 vertex normals
vn -0.0245345 0 0.006574
vn -0.0254 0 0
vn -0.0234666 0 0.00972015
vn -0.0251827 0 -0.00331536
vn 0.0254 0 0
vn 0.0251827 0 0.00331536
vn -0.0201512 0 0.0154625
vn -0.0179605 0 0.0179605
vn -0.0245345 -0 -0.006574
vn -0.0234666 0 -0.00972015
vn -0.021997 0 -0.0127
vn 0.0245345 0 -0.006574
vn 0.0234666 0 0.00972015
vn 0.021997 0 0.0127
vn -0.021997 0 0.0127
vn 0.0201512 0 0.0154625
vn -0.0127 0 0.021997
vn 0 0.0254 0
vn -0.0179605 0 -0.0179605
vn 0.0234666 0 -0.00972015
vn 0.0245345 0 0.006574
vn 0.021997 0 -0.0127
vn 0.0127 0 0.021997
vn 0.0154625 0 0.0201512
vn -0.006574 0 0.0245345
vn 0 0 0.0254
vn -0.0154625 0 -0.0201512
vn 0.0201512 0 -0.0154625
vn 0.0179605 0 -0.0179605
vn 0.0179605 0 0.0179605
vn 0.00972015 0 0.0234666
vn 0 0 -0.0254
vn 0.00331536 0 0.0251827
vn -0.0127 -0 -0.021997
vn -0.006574 0 -0.0245345
vn -0.00972015 0 -0.0234666
vn 0.0127 0 -0.021997
vn 0.006574 0 0.0245345
vn 0.00972015 0 -0.0234666
vn 0.006574 0 -0.0245345
vn 0.00331536 0 -0.0251827
vn 0 -0.0254 0
vn -0.0201512 -0 -0.0154625
vn -0.00331536 -0 -0.0251827
vn -0.00972015 0 0.0234666
vn -0.00331536 0 0.0251827

# Mesh 'mesh1_mesh1-geometry' with 134 faces
g mesh1_mesh1-geometry
usemtl material_0_1_8
f  1/1/1 2/2/2 3/3/1
f  2/2/2 1/1/1 4/4/2
f  3/3/1 5/5/3 1/1/1
f  4/4/2 6/6/4 2/2/2
f  5/5/3 3/3/1 7/7/3
f  6/6/4 4/4/2 8/8/4
f  9/4/5 10/6/6 11/2/5
f  7/6/7 12/4/8 5/8/7
f  13/9/2 14/10/9 15/11/2
f  16/12/1 15/11/2 17/13/1
f  8/5/10 18/3/11 6/7/10
f  10/6/6 9/4/5 19/8/6
f  11/2/5 20/1/12 9/4/5
f  19/1/13 21/2/14 10/3/13
f  12/4/8 7/6/7 22/2/8
f  23/14/15 17/13/1 24/15/15
f  25/16/8 24/15/15 26/17/8
f  14/10/9 13/9/2 27/18/9
f  15/11/2 16/12/1 13/9/2
f  17/13/1 23/14/15 16/12/1
f  18/3/11 8/5/10 28/1/11
f  20/1/12 11/2/5 29/3/12
f  21/2/14 19/1/13 30/4/14
f  30/4/14 31/6/16 21/2/14
f  32/3/17 12/4/8 22/2/8
f  24/15/15 25/16/8 23/14/15
f  33/19/17 25/16/8 26/17/8
f  27/18/9 34/20/11 14/10/9
f  35/21/18 27/22/18 13/23/18
f  36/24/18 13/23/18 16/25/18
f  36/24/18 16/25/18 23/26/18
f  28/1/11 37/2/19 18/3/11
f  29/3/12 38/5/20 20/1/12
f  31/6/16 30/4/14 39/8/16
f  12/4/8 32/3/17 40/1/17
f  41/27/18 23/26/18 25/28/18
f  25/16/8 33/19/17 42/29/17
f  34/20/11 27/18/9 43/30/11
f  44/31/18 27/22/18 35/21/18
f  35/21/18 13/23/18 36/24/18
f  36/24/18 23/26/18 45/32/18
f  37/2/19 28/1/11 46/4/19
f  38/5/20 29/3/12 47/7/20
f  48/33/5 49/34/21 50/35/5
f  51/36/21 52/37/14 49/34/21
f  53/38/22 54/39/12 55/40/22
f  44/41/12 50/35/5 54/39/12
f  56/4/23 31/3/24 39/1/24
f  31/3/24 56/4/23 57/2/23
f  58/7/25 40/1/17 32/3/17
f  59/42/18 23/26/18 41/27/18
f  41/27/18 25/28/18 42/43/18
f  60/44/25 42/29/17 33/19/17
f  43/30/11 61/45/19 34/20/11
f  44/31/18 43/46/18 27/22/18
f  62/47/18 44/31/18 35/21/18
f  63/48/2 35/49/2 36/50/2
f  45/32/18 23/26/18 59/42/18
f  45/51/26 63/52/26 36/53/26
f  64/8/27 37/2/19 46/4/19
f  47/6/28 65/4/29 38/8/28
f  49/34/21 48/33/5 51/36/21
f  50/35/5 44/41/12 48/33/5
f  52/37/14 51/36/21 59/54/14
f  54/39/12 53/38/22 44/41/12
f  55/40/22 66/55/29 53/38/22
f  59/54/14 67/56/30 52/37/14
f  68/8/31 57/2/23 56/4/23
f  40/1/17 58/7/25 69/5/25
f  57/2/23 68/8/31 70/6/31
f  67/56/30 59/54/14 41/57/30
f  41/27/18 42/43/18 71/58/18
f  42/29/17 60/44/25 72/59/25
f  61/45/19 43/30/11 73/60/19
f  53/61/18 43/46/18 44/31/18
f  44/31/18 62/47/18 48/62/18
f  35/63/32 74/64/32 62/65/32
f  35/49/2 63/48/2 75/66/2
f  51/67/18 45/32/18 59/42/18
f  63/52/26 45/51/26 76/68/26
f  37/2/19 64/8/27 77/6/27
f  65/4/29 47/6/28 78/2/29
f  66/55/29 55/40/22 79/69/29
f  48/62/18 45/32/18 51/67/18
f  66/70/18 43/46/18 53/61/18
f  67/56/30 71/71/23 80/72/23
f  81/73/26 69/5/25 58/7/25
f  82/74/26 70/75/33 68/76/33
f  71/71/23 67/56/30 41/57/30
f  71/58/18 42/43/18 72/77/18
f  83/78/26 72/59/25 60/44/25
f  61/45/19 84/79/34 85/80/34
f  66/70/18 73/81/18 43/46/18
f  84/79/34 61/45/19 73/60/19
f  48/62/18 62/47/18 45/32/18
f  74/64/32 35/63/32 75/82/32
f  74/83/5 45/84/5 62/85/5
f  63/24/18 74/47/18 75/21/18
f  45/84/5 74/83/5 76/86/5
f  74/47/18 63/24/18 76/32/18
f  86/1/35 77/7/36 64/5/36
f  87/3/37 65/4/29 78/2/29
f  88/87/37 66/55/29 79/69/29
f  89/88/38 80/72/23 71/71/23
f  80/72/23 89/88/38 90/89/38
f  69/5/25 81/73/26 82/74/26
f  70/75/33 82/74/26 81/73/26
f  71/58/18 72/77/18 89/90/18
f  72/59/25 83/78/26 91/91/26
f  92/92/35 85/80/34 84/79/34
f  93/93/18 73/81/18 66/70/18
f  93/93/18 84/94/18 73/81/18
f  77/7/36 86/1/35 94/3/35
f  85/80/34 92/92/35 95/95/35
f  65/4/29 87/3/37 96/1/37
f  66/55/29 88/87/37 93/96/37
f  91/97/26 90/89/38 89/88/38
f  90/89/38 91/97/26 83/6/26
f  89/90/18 72/77/18 91/98/18
f  97/99/18 92/100/18 84/94/18
f  97/99/18 84/94/18 93/93/18
f  98/4/32 94/3/35 86/1/35
f  99/101/32 95/95/35 92/92/35
f  100/7/39 96/1/37 87/3/37
f  101/102/40 93/96/37 88/87/37
f  92/100/18 97/99/18 99/103/18
f  93/96/37 101/102/40 97/104/40
f  94/3/35 98/4/32 102/2/32
f  95/95/35 99/101/32 103/105/32
f  96/1/37 100/7/39 104/5/39
f  97/104/40 103/105/32 99/101/32
f  103/105/32 97/104/40 101/102/40
f  104/8/41 102/2/32 98/4/32
f  102/2/32 104/8/41 100/6/41

# Mesh 'mesh1_mesh1-geometry' with 274 faces
g mesh1_mesh1-geometry
usemtl material_1_24
f  3//12 2//5 1//12
f  4//5 1//12 2//5
f  2//42 10//42 3//42
f  3//18 10//18 2//18
f  1//12 5//20 3//12
f  15//18 4//18 1//18
f  1//42 4//42 15//42
f  2//5 6//6 4//5
f  2//42 11//42 10//42
f  10//18 11//18 2//18
f  3//42 10//42 7//42
f  7//18 10//18 3//18
f  7//20 3//12 5//20
f  24//18 1//18 5//18
f  5//42 1//42 24//42
f  14//18 4//18 15//18
f  15//42 4//42 14//42
f  15//18 1//18 17//18
f  17//42 1//42 15//42
f  8//6 4//5 6//6
f  6//42 11//42 2//42
f  2//18 11//18 6//18
f  11//2 10//4 9//2
f  7//42 10//42 21//42
f  21//18 10//18 7//18
f  5//28 12//29 7//28
f  17//18 1//18 24//18
f  24//42 1//42 17//42
f  24//18 5//18 26//18
f  26//42 5//42 24//42
f  14//18 8//18 4//18
f  4//42 8//42 14//42
f  15//5 14//21 13//5
f  17//12 15//5 16//12
f  6//13 18//14 8//13
f  6//42 29//42 11//42
f  11//18 29//18 6//18
f  19//4 9//2 10//4
f  9//2 20//1 11//2
f  10//10 21//11 19//10
f  7//42 21//42 31//42
f  31//18 21//18 7//18
f  22//29 7//28 12//29
f  26//18 5//18 12//18
f  12//42 5//42 26//42
f  24//22 17//12 23//22
f  26//29 24//22 25//29
f  34//18 8//18 14//18
f  14//42 8//42 34//42
f  27//21 13//5 14//21
f  13//5 16//12 15//5
f  16//12 23//22 17//12
f  28//14 8//13 18//14
f  18//42 29//42 6//42
f  6//18 29//18 18//18
f  29//1 11//2 20//1
f  9//18 49//18 19//18
f  19//42 49//42 9//42
f  20//18 54//18 9//18
f  9//42 54//42 20//42
f  30//11 19//10 21//11
f  21//11 31//43 30//11
f  7//42 31//42 22//42
f  22//18 31//18 7//18
f  22//29 12//29 32//37
f  26//18 12//18 33//18
f  33//42 12//42 26//42
f  23//22 25//29 24//22
f  26//29 25//29 33//37
f  34//18 28//18 8//18
f  8//42 28//42 34//42
f  14//21 34//14 27//21
f  13//42 27//42 35//42
f  16//42 13//42 36//42
f  23//42 16//42 36//42
f  18//14 37//30 28//14
f  18//42 47//42 29//42
f  29//18 47//18 18//18
f  20//1 38//3 29//1
f  9//18 50//18 49//18
f  49//42 50//42 9//42
f  19//18 49//18 52//18
f  52//42 49//42 19//42
f  20//18 55//18 54//18
f  54//42 55//42 20//42
f  9//18 54//18 50//18
f  50//42 54//42 9//42
f  19//18 52//18 30//18
f  30//42 52//42 19//42
f  39//43 30//11 31//43
f  22//42 31//42 57//42
f  57//18 31//18 22//18
f  40//37 32//37 12//29
f  22//42 57//42 32//42
f  32//18 57//18 22//18
f  33//18 12//18 40//18
f  40//42 12//42 33//42
f  25//42 23//42 41//42
f  42//37 33//37 25//29
f  61//18 28//18 34//18
f  34//42 28//42 61//42
f  43//14 27//21 34//14
f  35//42 27//42 44//42
f  36//42 13//42 35//42
f  45//42 23//42 36//42
f  46//30 28//14 37//30
f  37//42 47//42 18//42
f  18//18 47//18 37//18
f  47//3 29//1 38//3
f  38//18 55//18 20//18
f  20//42 55//42 38//42
f  50//2 49//9 48//2
f  49//9 52//11 51//9
f  55//15 54//1 53//15
f  54//1 50//2 44//1
f  30//18 52//18 67//18
f  67//42 52//42 30//42
f  30//18 67//18 39//18
f  39//42 67//42 30//42
f  39//27 31//27 56//34
f  57//34 56//34 31//27
f  32//37 40//37 58//40
f  32//42 57//42 70//42
f  70//18 57//18 32//18
f  33//18 40//18 60//18
f  60//42 40//42 33//42
f  41//42 23//42 59//42
f  42//42 25//42 41//42
f  33//37 42//37 60//40
f  61//18 46//18 28//18
f  28//42 46//42 61//42
f  34//14 61//30 43//14
f  27//42 43//42 44//42
f  35//42 44//42 62//42
f  36//5 35//5 63//5
f  59//42 23//42 45//42
f  36//32 63//32 45//32
f  46//30 37//30 64//24
f  37//42 78//42 47//42
f  47//18 78//18 37//18
f  38//7 65//8 47//7
f  38//18 79//18 55//18
f  55//42 79//42 38//42
f  51//9 48//2 49//9
f  48//2 44//1 50//2
f  59//11 51//9 52//11
f  44//1 53//15 54//1
f  53//15 66//8 55//15
f  52//11 67//19 59//11
f  39//18 67//18 80//18
f  80//42 67//42 39//42
f  39//18 80//18 56//18
f  56//42 80//42 39//42
f  56//34 57//34 68//36
f  69//40 58//40 40//37
f  32//42 70//42 58//42
f  58//18 70//18 32//18
f  70//36 68//36 57//34
f  60//18 40//18 69//18
f  69//42 40//42 60//42
f  41//19 59//11 67//19
f  71//42 42//42 41//42
f  72//40 60//40 42//37
f  85//18 46//18 61//18
f  61//42 46//42 85//42
f  73//30 43//14 61//30
f  44//42 43//42 53//42
f  48//42 62//42 44//42
f  62//26 74//26 35//26
f  75//5 63//5 35//5
f  59//42 45//42 51//42
f  76//32 45//32 63//32
f  77//24 64//24 37//30
f  85//18 64//18 46//18
f  46//42 64//42 85//42
f  77//42 78//42 37//42
f  37//18 78//18 77//18
f  78//8 47//7 65//8
f  65//18 79//18 38//18
f  38//42 79//42 65//42
f  79//8 55//15 66//8
f  51//42 45//42 48//42
f  53//42 43//42 66//42
f  80//34 71//34 67//19
f  56//18 80//18 90//18
f  90//42 80//42 56//42
f  56//18 90//18 68//18
f  68//42 90//42 56//42
f  58//40 69//40 81//32
f  58//42 70//42 81//42
f  81//18 70//18 58//18
f  68//44 70//44 82//32
f  60//18 69//18 83//18
f  83//42 69//42 60//42
f  41//19 67//19 71//34
f  72//42 42//42 71//42
f  60//40 72//40 83//32
f  85//23 84//23 61//30
f  43//42 73//42 66//42
f  73//30 61//30 84//23
f  45//42 62//42 48//42
f  75//26 35//26 74//26
f  62//2 45//2 74//2
f  75//42 74//42 63//42
f  76//2 74//2 45//2
f  76//42 63//42 74//42
f  64//31 77//31 86//38
f  95//18 64//18 85//18
f  85//42 64//42 95//42
f  77//42 87//42 78//42
f  78//18 87//18 77//18
f  78//8 65//8 87//17
f  65//18 88//18 79//18
f  79//42 88//42 65//42
f  79//8 66//8 88//17
f  71//34 80//34 89//35
f  90//35 89//35 80//34
f  68//18 90//18 83//18
f  83//42 90//42 68//42
f  82//32 81//32 69//40
f  81//32 82//32 70//44
f  68//18 83//18 82//18
f  82//42 83//42 68//42
f  83//18 69//18 82//18
f  82//42 69//42 83//42
f  89//42 72//42 71//42
f  91//32 83//32 72//40
f  84//23 85//23 92//38
f  66//42 73//42 93//42
f  73//42 84//42 93//42
f  94//38 86//38 77//31
f  95//18 86//18 64//18
f  64//42 86//42 95//42
f  95//38 92//38 85//23
f  94//42 87//42 77//42
f  77//18 87//18 94//18
f  96//17 87//17 65//8
f  96//18 88//18 65//18
f  65//42 88//42 96//42
f  93//17 88//17 66//8
f  89//35 90//35 91//32
f  83//32 91//32 90//35
f  91//42 72//42 89//42
f  84//42 92//42 97//42
f  93//42 84//42 97//42
f  86//38 94//38 98//26
f  103//18 86//18 95//18
f  95//42 86//42 103//42
f  92//38 95//38 99//26
f  94//42 100//42 87//42
f  87//18 100//18 94//18
f  87//17 96//17 100//45
f  96//18 101//18 88//18
f  88//42 101//42 96//42
f  88//17 93//17 101//25
f  99//42 97//42 92//42
f  97//25 101//25 93//17
f  102//26 98//26 94//38
f  86//18 103//18 98//18
f  98//42 103//42 86//42
f  103//26 99//26 95//38
f  100//42 94//42 102//42
f  102//18 94//18 100//18
f  104//45 100//45 96//17
f  104//18 101//18 96//18
f  96//42 101//42 104//42
f  99//26 103//26 97//25
f  101//25 97//25 103//26
f  98//26 102//26 104//46
f  103//18 104//18 98//18
f  98//42 104//42 103//42
f  100//46 104//46 102//26
f  104//18 103//18 101//18
f  101//42 103//42 104//42

# Mesh 'mesh2_mesh2-geometry' with 6 faces
g mesh2_mesh2-geometry
usemtl material_1_0
l  81 70
l  58 81
l  70 57
l  32 58
l  57 31
l  31 21

# Mesh 'mesh3_mesh3-geometry' with 1 faces
g mesh3_mesh3-geometry
usemtl material_1_0
l  69 82

