# File produced by Open Asset Import Library (http://www.assimp.sf.net)
# (assimp v3.2.202087883)

mtllib model_normalized.mtl

# 91 vertex positions
v 0.115978 -0.384595 -0.078568
v 0.220235 0.301643 -0.061988
v 0.194489 0.301643 -0.123989
v 0.132643 -0.384595 -0.038435
v 0.210461 0.301643 -0.059360
v 0.089493 -0.384595 -0.113021
v 0.224646 0.301643 -0.028711
v 0.218936 0.301643 0.004573
v 0.185730 0.301643 -0.118921
v 0.174031 0.301643 -0.150601
v 0.101802 -0.384595 -0.097008
v 0.135498 -0.384595 -0.016895
v 0.220351 0.301643 0.071132
v 0.153574 0.301643 -0.177213
v 0.102736 -0.384595 -0.095794
v 0.229055 0.301643 0.004564
v 0.210574 0.301643 0.068521
v 0.166076 0.301643 -0.144486
v 0.077622 -0.384595 -0.122113
v 0.138353 -0.384595 0.004644
v 0.194716 0.301643 0.133178
v 0.146424 0.301643 -0.170052
v 0.059301 -0.384595 -0.136146
v 0.132719 -0.384595 0.047734
v 0.185948 0.301643 0.128126
v 0.116125 -0.384595 0.087896
v 0.100276 0.301643 -0.218035
v 0.054994 -0.384595 -0.139444
v 0.070754 -0.384595 -0.129244
v 0.075211 -0.384595 0.133535
v 0.153895 0.301643 0.186475
v 0.097887 -0.384595 0.111693
v 0.095224 0.301643 -0.209267
v 0.057052 -0.384595 0.147493
v 0.146731 0.301643 0.179326
v 0.089701 -0.384595 0.122395
v 0.051282 -0.384595 -0.140978
v 0.038230 0.301643 -0.243672
v 0.100669 0.301643 0.227391
v 0.065652 -0.384595 0.142741
v 0.014831 -0.384595 -0.156039
v 0.035619 0.301643 -0.233895
v 0.120988 -0.384595 0.073359
v 0.055248 -0.384595 0.148880
v 0.052410 -0.384595 0.150059
v 0.095601 0.301643 0.218631
v 0.015115 -0.384595 0.165546
v -0.028258 -0.384595 -0.161673
v -0.028338 0.301643 -0.252376
v 0.123449 -0.384595 -0.057836
v 0.038668 0.301643 0.253136
v -0.027964 -0.384595 0.171256
v -0.028329 0.301643 -0.242256
v 0.133380 -0.384595 0.030353
v 0.036040 0.301643 0.243364
v -0.027884 0.301643 0.261958
v -0.071337 -0.384595 -0.155963
v -0.071053 -0.384595 0.165621
v -0.092262 0.301643 -0.233782
v 0.134221 -0.384595 -0.014395
v -0.094452 0.301643 0.253255
v -0.094890 0.301643 -0.243554
v -0.027893 0.301643 0.251839
v -0.111470 -0.384595 -0.139298
v -0.111216 -0.384595 0.149027
v -0.156498 0.301643 0.227617
v -0.151823 0.301643 -0.209049
v -0.091841 0.301643 0.243477
v -0.156891 0.301643 -0.217808
v -0.151446 0.301643 0.218849
v -0.145923 -0.384595 -0.112813
v -0.145715 -0.384595 0.122603
v -0.209796 0.301643 0.186796
v -0.202646 0.301643 0.179635
v -0.202954 0.301643 -0.169743
v -0.210117 0.301643 -0.176893
v -0.250938 0.301643 -0.123596
v -0.172200 -0.384595 0.088151
v -0.250712 0.301643 0.133571
v -0.241952 0.301643 0.128504
v -0.242170 0.301643 -0.118544
v -0.172347 -0.384595 -0.078314
v -0.276573 0.301643 -0.061549
v -0.266796 0.301643 -0.058939
v -0.276457 0.301643 0.071570
v -0.188865 -0.384595 0.048017
v -0.266683 0.301643 0.068942
v -0.188941 -0.384595 -0.038151
v -0.285277 0.301643 0.005018
v -0.275158 0.301643 0.005009
v -0.194575 -0.384595 0.004938

# 0 UV coordinates

# 64 vertex normals
vn -0.0217963 0.00332826 0.0126097
vn -0.0243172 0.00332826 0.00653877
vn 0.0217963 -0.00332826 -0.0126097
vn 0.0243172 -0.00332826 -0.00653877
vn 0 0.0254 0
vn -0 -0.0254 0
vn -0.0177899 0.00332826 0.0178214
vn 0.0177899 -0.00332826 -0.0178214
vn -0.0249663 0.00330027 0.00330929
vn 0.0249663 -0.00330027 -0.00330929
vn -0.0199668 0.00330027 0.0153491
vn 0.0199668 -0.00330027 -0.0153491
vn -0.025181 0.00332826 2.2225e-05
vn 0.025181 -0.00332826 -2.2225e-05
vn -0.0153138 0.00330027 0.0199939
vn 0.0153138 -0.00330027 -0.0199939
vn -0.0243287 0.00332826 -0.00649587
vn 0.0243287 -0.00332826 0.00649587
vn -0.0218184 0.00332831 -0.0125714
vn 0.0218184 -0.00332831 0.0125714
vn -0.0125713 0.00332826 0.0218185
vn 0.0125713 -0.00332826 -0.0218185
vn -0.0199936 0.00330037 -0.0153141
vn 0.0199936 -0.00330037 0.0153141
vn -0.0178212 0.00332831 -0.0177901
vn 0.0178212 -0.00332831 0.0177901
vn -0.00961723 0.00330027 0.0232761
vn 0.00961723 -0.00330027 -0.0232761
vn -0.0153491 0.00330027 -0.0199668
vn -0.0126097 0.00332826 -0.0217963
vn 0.0153491 -0.00330027 0.0199668
vn 0.0126097 -0.00332826 0.0217963
vn -0.00649587 0.00332826 0.0243287
vn 0.00649587 -0.00332826 -0.0243287
vn 2.2225e-05 0.00332826 0.025181
vn -2.2225e-05 -0.00332826 -0.025181
vn -0.00653877 0.00332826 -0.0243172
vn 0.00653877 -0.00332826 0.0243172
vn -0.00965828 0.00330027 -0.0232591
vn 0.00965828 -0.00330027 0.0232591
vn -2.2225e-05 0.00332826 -0.025181
vn 2.2225e-05 -0.00332826 0.025181
vn 0.00653877 0.00332826 0.0243172
vn -0.00653877 -0.00332826 -0.0243172
vn 0.00649587 0.00332826 -0.0243287
vn -0.00649587 -0.00332826 0.0243287
vn 0.0126097 0.00332826 0.0217963
vn -0.0126097 -0.00332826 -0.0217963
vn 0.0125713 0.00332826 -0.0218185
vn -0.0125713 -0.00332826 0.0218185
vn 0.0178214 0.00332826 0.0177899
vn -0.0178214 -0.00332826 -0.0177899
vn 0.0177899 0.00332826 -0.0178214
vn -0.0177899 -0.00332826 0.0178214
vn 0.0218185 0.00332826 0.0125712
vn -0.0218185 -0.00332826 -0.0125712
vn 0.0217963 0.00332826 -0.0126097
vn -0.0217963 -0.00332826 0.0126097
vn 0.0243287 0.00332826 0.00649587
vn -0.0243287 -0.00332826 -0.00649587
vn 0.0243172 0.00332826 -0.00653877
vn -0.0243172 -0.00332826 0.00653877
vn 0.025181 0.00332826 -2.2225e-05
vn -0.025181 -0.00332826 2.2225e-05

# Mesh 'mesh1_mesh1-geometry' with 276 faces
g mesh1_mesh1-geometry
usemtl material_0_24
f  1//1 2//2 3//1
f  2//2 1//1 4//2
f  3//3 2//4 1//3
f  4//4 1//3 2//4
f  5//5 2//5 3//5
f  3//6 2//6 5//6
f  3//1 6//7 1//1
f  1//3 6//8 3//3
f  4//2 7//9 2//2
f  2//4 7//10 4//4
f  2//5 5//5 8//5
f  8//6 5//6 2//6
f  5//5 3//5 9//5
f  9//6 3//6 5//6
f  10//11 6//7 3//1
f  3//3 6//8 10//12
f  1//1 6//7 11//11
f  11//12 6//8 1//3
f  7//9 4//2 12//9
f  12//10 4//4 7//10
f  13//5 7//5 2//5
f  2//6 7//6 13//6
f  13//5 2//5 8//5
f  8//6 2//6 13//6
f  9//5 3//5 10//5
f  10//6 3//6 9//6
f  6//7 10//11 14//7
f  14//8 10//12 6//8
f  1//1 11//11 15//11
f  15//12 11//12 1//3
f  12//9 16//13 7//9
f  7//10 16//14 12//10
f  7//5 13//5 16//5
f  16//6 13//6 7//6
f  13//5 8//5 17//5
f  17//6 8//6 13//6
f  9//5 10//5 18//5
f  18//6 10//6 9//6
f  18//5 10//5 14//5
f  14//6 10//6 18//6
f  14//7 19//15 6//7
f  6//8 19//16 14//8
f  16//13 12//9 20//13
f  20//14 12//10 16//14
f  20//13 13//17 16//13
f  16//14 13//18 20//14
f  13//5 17//5 21//5
f  21//6 17//6 13//6
f  18//5 14//5 22//5
f  22//6 14//6 18//6
f  19//15 14//7 23//15
f  23//16 14//8 19//16
f  13//17 20//13 24//17
f  24//18 20//14 13//18
f  21//5 17//5 25//5
f  25//6 17//6 21//6
f  13//17 26//19 21//19
f  21//20 26//20 13//18
f  22//5 14//5 27//5
f  27//6 14//6 22//6
f  23//15 14//7 28//21
f  28//22 14//8 23//16
f  23//6 29//6 19//6
f  19//5 29//5 23//5
f  19//6 30//6 23//6
f  23//5 30//5 19//5
f  26//19 13//17 24//17
f  24//18 13//18 26//20
f  21//5 25//5 31//5
f  31//6 25//6 21//6
f  32//23 21//19 26//19
f  26//20 21//20 32//24
f  28//21 14//7 27//21
f  27//22 14//8 28//22
f  22//5 27//5 33//5
f  33//6 27//6 22//6
f  19//6 32//6 30//6
f  30//5 32//5 19//5
f  23//6 30//6 34//6
f  34//5 30//5 23//5
f  31//5 25//5 35//5
f  35//6 25//6 31//6
f  21//19 36//25 31//25
f  31//26 36//26 21//20
f  21//19 32//23 36//25
f  36//26 32//24 21//20
f  27//21 37//27 28//21
f  28//22 37//28 27//22
f  33//5 27//5 38//5
f  38//6 27//6 33//6
f  11//6 32//6 19//6
f  19//5 32//5 11//5
f  34//29 39//30 30//29
f  30//31 39//32 34//31
f  34//6 30//6 40//6
f  40//5 30//5 34//5
f  23//6 34//6 37//6
f  37//5 34//5 23//5
f  31//5 35//5 39//5
f  39//6 35//6 31//6
f  36//25 39//30 31//25
f  31//26 39//32 36//26
f  37//27 27//21 41//33
f  41//34 27//22 37//28
f  41//33 27//21 38//33
f  38//34 27//22 41//34
f  33//5 38//5 42//5
f  42//6 38//6 33//6
f  11//6 43//6 32//6
f  32//5 43//5 11//5
f  39//30 34//29 44//30
f  44//32 34//31 39//32
f  30//29 39//30 36//25
f  36//26 39//32 30//31
f  37//6 34//6 45//6
f  45//5 34//5 37//5
f  39//5 35//5 46//5
f  46//6 35//6 39//6
f  37//6 47//6 41//6
f  41//5 47//5 37//5
f  38//33 48//35 41//33
f  41//34 48//36 38//34
f  42//5 38//5 49//5
f  49//6 38//6 42//6
f  50//6 43//6 11//6
f  11//5 43//5 50//5
f  44//30 51//37 39//30
f  39//32 51//38 44//32
f  37//6 45//6 47//6
f  47//5 45//5 37//5
f  39//5 46//5 51//5
f  51//6 46//6 39//6
f  41//6 47//6 52//6
f  52//5 47//5 41//5
f  48//35 38//33 49//35
f  49//36 38//34 48//36
f  41//6 52//6 48//6
f  48//5 52//5 41//5
f  42//5 49//5 53//5
f  53//6 49//6 42//6
f  50//6 54//6 43//6
f  43//5 54//5 50//5
f  45//39 51//37 44//30
f  44//32 51//38 45//40
f  51//37 45//39 47//37
f  47//38 45//40 51//38
f  51//5 46//5 55//5
f  55//6 46//6 51//6
f  56//41 47//37 52//41
f  52//42 47//38 56//42
f  49//35 57//43 48//35
f  48//36 57//44 49//36
f  48//6 52//6 58//6
f  58//5 52//5 48//5
f  53//5 49//5 59//5
f  59//6 49//6 53//6
f  54//6 50//6 60//6
f  60//5 50//5 54//5
f  47//37 56//41 51//37
f  51//38 56//42 47//38
f  51//5 55//5 56//5
f  56//6 55//6 51//6
f  52//41 61//45 56//41
f  56//42 61//46 52//42
f  57//43 49//35 62//43
f  62//44 49//36 57//44
f  48//6 58//6 57//6
f  57//5 58//5 48//5
f  61//45 52//41 58//45
f  58//46 52//42 61//46
f  59//5 49//5 62//5
f  62//6 49//6 59//6
f  56//5 55//5 63//5
f  63//6 55//6 56//6
f  56//5 63//5 61//5
f  61//6 63//6 56//6
f  62//43 64//47 57//43
f  57//44 64//48 62//44
f  57//6 58//6 65//6
f  65//5 58//5 57//5
f  58//45 66//49 61//45
f  61//46 66//50 58//46
f  59//5 62//5 67//5
f  67//6 62//6 59//6
f  61//5 63//5 68//5
f  68//6 63//6 61//6
f  64//47 62//43 69//47
f  69//48 62//44 64//48
f  57//6 65//6 64//6
f  64//5 65//5 57//5
f  66//49 58//45 65//49
f  65//50 58//46 66//50
f  61//5 70//5 66//5
f  66//6 70//6 61//6
f  67//5 62//5 69//5
f  69//6 62//6 67//6
f  61//5 68//5 70//5
f  70//6 68//6 61//6
f  69//47 71//51 64//47
f  64//48 71//52 69//48
f  64//6 65//6 72//6
f  72//5 65//5 64//5
f  65//49 73//53 66//49
f  66//50 73//54 65//50
f  66//5 70//5 74//5
f  74//6 70//6 66//6
f  67//5 69//5 75//5
f  75//6 69//6 67//6
f  71//51 69//47 76//51
f  76//52 69//48 71//52
f  64//6 72//6 71//6
f  71//5 72//5 64//5
f  73//53 65//49 72//53
f  72//54 65//50 73//54
f  66//5 74//5 73//5
f  73//6 74//6 66//6
f  75//5 69//5 76//5
f  76//6 69//6 75//6
f  77//55 71//51 76//51
f  76//52 71//52 77//56
f  71//6 72//6 78//6
f  78//5 72//5 71//5
f  72//53 79//57 73//53
f  73//54 79//58 72//54
f  73//5 74//5 80//5
f  80//6 74//6 73//6
f  75//5 76//5 81//5
f  81//6 76//6 75//6
f  71//51 77//55 82//55
f  82//56 77//56 71//52
f  81//5 76//5 77//5
f  77//6 76//6 81//6
f  79//57 72//53 78//57
f  78//58 72//54 79//58
f  71//6 78//6 82//6
f  82//5 78//5 71//5
f  73//5 80//5 79//5
f  79//6 80//6 73//6
f  83//59 82//55 77//55
f  77//56 82//56 83//60
f  81//5 77//5 84//5
f  84//6 77//6 81//6
f  78//57 85//61 79//57
f  79//58 85//62 78//58
f  82//6 78//6 86//6
f  86//5 78//5 82//5
f  79//5 80//5 87//5
f  87//6 80//6 79//6
f  82//55 83//59 88//59
f  88//60 83//60 82//56
f  84//5 77//5 83//5
f  83//6 77//6 84//6
f  85//61 78//57 86//61
f  86//62 78//58 85//62
f  79//5 87//5 85//5
f  85//6 87//6 79//6
f  82//6 86//6 88//6
f  88//5 86//5 82//5
f  89//63 88//59 83//59
f  83//60 88//60 89//64
f  84//5 83//5 90//5
f  90//6 83//6 84//6
f  86//61 89//63 85//61
f  85//62 89//64 86//62
f  85//5 87//5 90//5
f  90//6 87//6 85//6
f  88//6 86//6 91//6
f  91//5 86//5 88//5
f  88//59 89//63 91//63
f  91//64 89//64 88//60
f  85//5 83//5 89//5
f  89//6 83//6 85//6
f  90//5 83//5 85//5
f  85//6 83//6 90//6
f  89//63 86//61 91//63
f  91//64 86//62 89//64

# Mesh 'mesh2_mesh2-geometry' with 27 faces
g mesh2_mesh2-geometry
usemtl material_0_0
l  2 3
l  7 2
l  3 10
l  16 7
l  7 12
l  14 10
l  13 16
l  27 14
l  21 13
l  38 27
l  31 21
l  49 38
l  39 31
l  62 49
l  51 39
l  69 62
l  51 56
l  76 69
l  56 61
l  77 76
l  66 61
l  83 77
l  66 73
l  89 83
l  73 79
l  85 89
l  79 85

# Mesh 'mesh3_mesh3-geometry' with 16 faces
g mesh3_mesh3-geometry
usemtl material_0_0
l  47 45
l  52 47
l  58 52
l  65 58
l  72 65
l  78 72
l  86 78
l  91 86
l  88 91
l  82 88
l  71 82
l  64 71
l  57 64
l  48 57
l  41 48
l  37 41

# Mesh 'mesh4_mesh4-geometry' with 1 faces
g mesh4_mesh4-geometry
usemtl material_0_0
l  34 30

# Mesh 'mesh5_mesh5-geometry' with 1 faces
g mesh5_mesh5-geometry
usemtl material_0_0
l  19 23

