# File produced by Open Asset Import Library (http://www.assimp.sf.net)
# (assimp v3.2.202087883)

mtllib model_normalized.mtl

# 85 vertex positions
v -0.240162 -0.482360 -0.062988
v -0.240162 -0.482360 0.065701
v -0.248633 -0.482360 0.001357
v -0.215326 -0.482360 0.125660
v -0.248633 0.164019 0.001357
v -0.240162 0.164019 -0.062988
v -0.215326 -0.482360 -0.122947
v -0.240162 0.164019 0.065701
v -0.215326 0.164019 -0.122947
v -0.175818 -0.482360 0.177149
v -0.215326 0.164019 0.125660
v -0.113879 0.203804 0.001357
v -0.109999 0.203804 -0.028110
v -0.175818 0.164019 -0.174435
v -0.175818 -0.482360 -0.174435
v -0.109999 0.203804 0.030824
v -0.098626 0.203804 -0.055569
v -0.124330 -0.482360 0.216657
v -0.175818 0.164019 0.177149
v -0.098626 0.203804 0.058283
v -0.124330 -0.482360 -0.213943
v -0.080532 0.203804 -0.079149
v -0.124330 0.164019 0.216657
v -0.080532 0.203804 0.081863
v -0.124330 0.164019 -0.213943
v -0.064371 -0.482360 0.241492
v -0.064371 0.164019 0.241492
v -0.064371 -0.482360 -0.238779
v -0.056952 0.203804 0.099956
v -0.056952 0.203804 -0.097243
v -0.064371 0.164019 -0.238779
v -0.067060 0.203804 -0.059597
v -0.000026 -0.482360 0.249964
v -0.000026 0.164019 0.249964
v -0.029493 0.203804 0.111330
v -0.000026 -0.482360 -0.247250
v -0.042189 0.203804 -0.028554
v -0.044553 0.203804 -0.077628
v -0.029493 0.203804 -0.108616
v -0.000026 0.164019 -0.247250
v 0.064318 -0.482360 0.241492
v 0.064318 0.164019 0.241492
v -0.000026 0.203804 0.115210
v -0.019683 0.203804 -0.046585
v 0.064318 -0.482360 -0.238779
v -0.000026 0.203804 -0.112496
v -0.037528 0.228665 -0.025916
v 0.064318 0.164019 -0.238779
v 0.000063 0.203804 -0.112507
v 0.124277 -0.482360 0.216657
v 0.124277 0.164019 0.216657
v 0.029441 0.203804 0.111330
v -0.018126 0.228665 -0.041460
v 0.124277 -0.482360 -0.213943
v 0.029441 0.203804 -0.108616
v 0.056900 0.203804 0.099956
v 0.019987 0.203804 0.049055
v 0.018430 0.228665 0.043931
v 0.124277 0.164019 -0.213943
v 0.056900 0.203804 -0.097243
v 0.175766 -0.482360 0.177149
v 0.175766 0.164019 0.177149
v 0.080480 0.203804 0.081863
v 0.044857 0.203804 0.080098
v 0.037833 0.228665 0.028387
v 0.175766 -0.482360 -0.174435
v 0.042494 0.203804 0.031024
v 0.067363 0.203804 0.062067
v 0.080480 0.203804 -0.079149
v 0.175766 0.164019 -0.174435
v 0.215274 -0.482360 0.125660
v 0.098573 0.203804 0.058283
v 0.215274 0.164019 -0.122947
v 0.215274 -0.482360 -0.122947
v 0.215274 0.164019 0.125660
v 0.098573 0.203804 -0.055569
v 0.240109 -0.482360 0.065701
v 0.109947 0.203804 0.030824
v 0.109947 0.203804 -0.028110
v 0.240109 0.164019 -0.062988
v 0.240109 -0.482360 -0.062988
v 0.240109 0.164019 0.065701
v 0.248581 -0.482360 0.001357
v 0.113827 0.203804 0.001357
v 0.248581 0.164019 0.001357

# 108 UV coordinates
vt 0 0 0
vt 1.53874 0 0
vt 1.33354 1 0
vt 1.33354 0 0
vt 1.12833 1 0
vt 1.12833 0 0
vt 1.74395 0 0
vt 1.53874 1 0
vt 0.92313 1 0
vt 0.92313 0 0
vt 1.74395 1 0
vt 0.717925 1 0
vt 1.94915 0 0
vt 0.717925 0 0
vt 1.94915 1 0
vt 0.51272 0 0
vt 2.15436 1 0
vt 2.15436 0 0
vt 0.51272 1 0
vt 2.35956 1 0
vt 0.307515 0 0
vt 2.35956 0 0
vt 0.307515 1 0
vt 2.56477 1 0
vt 0.10231 0 0
vt 2.56477 0 0
vt 0.10231 1 0
vt 2.76997 1 0
vt 5.02723 1 0
vt 4.82202 0 0
vt 5.02723 0 0
vt 2.76997 0 0
vt 4.82202 1 0
vt 2.97518 1 0
vt 4.61682 0 0
vt 2.97518 0 0
vt 4.61682 1 0
vt 3.18038 1 0
vt 4.41161 0 0
vt 3.18038 0 0
vt 4.41161 1 0
vt 3.38559 0 0
vt 4.20641 1 0
vt 3.38559 1 0
vt 4.20641 0 0
vt 3.59079 0 0
vt 4.0012 1 0
vt 3.59079 1 0
vt 4.0012 0 0
vt 3.796 0 0
vt 3.796 1 0
vt 0.539842 -0.969948 0
vt 0.426106 -0.646223 0
vt 0.383821 -0.969948 0
vt 0.564378 -0.628776 0
vt 0.68575 -0.931851 0
vt 0.497557 -0.646223 0
vt 0.237913 -0.931851 0
vt 0.278821 0.440735 0
vt 0.278821 0.559265 0
vt 0.271019 0.5 0
vt 0.301696 0.385509 0
vt 0.301696 0.614491 0
vt 0.359285 -0.628776 0
vt 0.338086 0.338086 0
vt 0.338086 0.661914 0
vt 0.385509 0.301696 0
vt 0.365182 0.62259 0
vt 0.385509 0.698304 0
vt 0.415202 0.560156 0
vt 0.410447 0.658854 0
vt 0.440735 0.278821 0
vt 0.440735 0.721179 0
vt 0.460467 0.59642 0
vt 0.5 0.271019 0
vt 0.5 0.728981 0
vt 0.564195 -0.628877 0
vt 0.50018 0.729005 0
vt 0.54025 0.40407 0
vt 0.559265 0.278821 0
vt 0.559265 0.721179 0
vt 0.59027 0.341635 0
vt 0.614491 0.301696 0
vt 0.585515 0.440334 0
vt 0.614491 0.698304 0
vt 0.635535 0.377899 0
vt 0.661914 0.338086 0
vt 0.661914 0.661914 0
vt 0.698304 0.614491 0
vt 0.698304 0.385509 0
vt 0.721179 0.559265 0
vt 0.721179 0.440735 0
vt 0.728981 0.5 0
vt 0.185016 0.688863 0
vt 0.16743 1 0
vt 0 0.885681 0
vt 0.352445 0.803182 0
vt 0.635975 0.229304 0
vt 0.364025 0.770696 0
vt 0.219689 0.672145 0
vt 0.780311 0.327855 0
vt 0.83257 -0 0
vt 0.814984 0.311137 0
vt 0.647555 0.196818 0
vt 1 0.114319 0
vt 0.931034 1 0
vt 1 0 0
vt 0.068966 1 0

# 78 vertex normals
vn 0 -1 0
vn 0 1 0
vn 1 0 0
vn 0.965926 0 -0.258819
vn 0.965926 0 0.258819
vn 0.866025 0 -0.5
vn 0.866025 0 0.5
vn 0.282959 -0.958408 -0.037252
vn 0.282959 -0.958408 0.037252
vn 0.263676 -0.958408 0.109218
vn 0.707107 0 0.707107
vn 0.707107 0 -0.707107
vn 0.263676 -0.958408 -0.109218
vn 0.226423 -0.958408 0.173741
vn 0.5 0 0.866025
vn 0.5 0 -0.866025
vn 0.226423 -0.958408 -0.173741
vn 0.173741 -0.958408 0.226423
vn 0.258819 0 -0.965926
vn 0.173741 -0.958408 -0.226423
vn 0.258819 0 0.965926
vn 0.109218 -0.958408 -0.263676
vn 0.109218 -0.958408 0.263676
vn 0 0 -1
vn -0 -0 1
vn 0.037252 -0.958408 -0.282959
vn 0.037252 -0.958408 0.282959
vn -0.258819 0 -0.965926
vn -0.258819 -0 0.965926
vn -0.037252 -0.958408 -0.282959
vn 0.613101 -0.196116 0.765275
vn -0.037252 -0.958408 0.282959
vn -0.5 0 -0.866025
vn -0.5 -0 0.866025
vn -0.109218 -0.958408 -0.263676
vn -0.109218 -0.958408 0.263676
vn -0.707107 0 -0.707107
vn -0.173741 -0.958408 -0.226423
vn -0.707107 -0 0.707107
vn -0.613101 -0.196116 -0.765275
vn -0.173741 -0.958408 0.226423
vn -0.866025 0 -0.5
vn -0.226423 -0.958408 -0.173741
vn -0.866025 -0 0.5
vn -0.226423 -0.958408 0.173741
vn -0.965926 0 -0.258819
vn -0.263676 -0.958408 -0.109218
vn -0.965926 -0 0.258819
vn -0.263676 -0.958408 0.109218
vn -1 0 -0
vn -0.282959 -0.958408 -0.037252
vn -0.282959 -0.958408 0.037252
vn -0.282959 0.958408 0.037252
vn -0.282959 0.958408 -0.037252
vn -0.263676 0.958408 -0.109218
vn -0.263676 0.958408 0.109218
vn -0.226423 0.958408 -0.173741
vn -0.226423 0.958408 0.173741
vn -0.173741 0.958408 -0.226423
vn -0.173741 0.958408 0.226423
vn -0.109218 0.958408 0.263676
vn -0.109218 0.958408 -0.263676
vn -0.037252 0.958408 0.282959
vn -0.037252 0.958408 -0.282959
vn 0.037252 0.958408 0.282959
vn 0.037252 0.958408 -0.282959
vn 0.109218 0.958408 0.263676
vn 0.109218 0.958408 -0.263676
vn 0.173741 0.958408 0.226423
vn 0.173741 0.958408 -0.226423
vn 0.226423 0.958408 0.173741
vn 0.226423 0.958408 -0.173741
vn 0.263676 0.958408 0.109218
vn 0.263676 0.958408 -0.109218
vn 0.282959 0.958408 0.037252
vn 0.282959 0.958408 -0.037252
vn -0.613101 0.196116 -0.765275
vn 0.613101 0.196116 0.765275

# Mesh 'mesh1_mesh1-geometry' with 186 faces
g mesh1_mesh1-geometry
usemtl material_0_24
f  1/1/1 2/1/1 3/1/1
f  2/1/1 1/1/1 4/1/1
f  3/1/2 2/1/2 1/1/2
f  4/1/2 1/1/2 2/1/2
f  3/1/3 5/1/3 2/1/4
f  1/1/5 6/1/5 3/1/3
f  4/1/1 1/1/1 7/1/1
f  7/1/2 1/1/2 4/1/2
f  2/1/4 8/1/4 4/1/6
f  8/1/4 2/1/4 5/1/3
f  5/1/3 3/1/3 6/1/5
f  6/1/5 1/1/5 9/1/7
f  7/1/7 9/1/7 1/1/5
f  4/1/1 7/1/1 10/1/1
f  10/1/2 7/1/2 4/1/2
f  11/1/6 4/1/6 8/1/4
f  5/1/8 12/1/8 8/1/8
f  5/1/9 6/1/9 12/1/9
f  6/1/10 9/1/10 13/1/10
f  9/1/7 7/1/7 14/1/11
f  10/1/1 7/1/1 15/1/1
f  15/1/2 7/1/2 10/1/2
f  4/1/6 11/1/6 10/1/12
f  8/1/13 16/1/13 11/1/13
f  16/1/8 8/1/8 12/1/8
f  13/1/9 12/1/9 6/1/9
f  17/1/10 13/1/10 9/1/10
f  15/1/11 14/1/11 7/1/7
f  9/1/14 14/1/14 17/1/14
f  10/1/1 15/1/1 18/1/1
f  18/1/2 15/1/2 10/1/2
f  19/1/12 10/1/12 11/1/6
f  20/1/13 11/1/13 16/1/13
f  12/1/1 13/1/1 16/1/1
f  17/1/1 20/1/1 13/1/1
f  15/1/11 21/1/15 14/1/11
f  22/1/14 17/1/14 14/1/14
f  18/1/1 15/1/1 21/1/1
f  21/1/2 15/1/2 18/1/2
f  18/1/16 10/1/12 23/1/16
f  19/1/12 23/1/16 10/1/12
f  11/1/17 20/1/17 19/1/17
f  20/1/1 16/1/1 13/1/1
f  24/1/1 20/1/1 17/1/1
f  25/1/15 14/1/11 21/1/15
f  22/1/1 24/1/1 17/1/1
f  14/1/18 25/1/18 22/1/18
f  18/1/1 21/1/1 26/1/1
f  26/1/2 21/1/2 18/1/2
f  23/1/16 27/1/19 18/1/16
f  19/1/20 24/1/20 23/1/20
f  24/1/17 19/1/17 20/1/17
f  21/1/15 28/1/21 25/1/15
f  29/1/1 24/1/1 22/1/1
f  30/1/18 22/1/18 25/1/18
f  26/1/1 21/1/1 28/1/1
f  28/1/2 21/1/2 26/1/2
f  26/1/19 18/1/16 27/1/19
f  23/1/22 29/1/22 27/1/22
f  29/1/20 23/1/20 24/1/20
f  31/1/21 25/1/15 28/1/21
f  32/1/1 29/1/1 22/1/1
f  22/1/1 30/1/1 32/1/1
f  25/1/23 31/1/23 30/1/23
f  26/1/1 28/1/1 33/1/1
f  33/1/2 28/1/2 26/1/2
f  27/1/19 34/1/24 26/1/19
f  35/1/22 27/1/22 29/1/22
f  28/1/21 36/1/25 31/1/21
f  37/1/1 29/1/1 32/1/1
f  38/1/1 32/1/1 30/1/1
f  39/1/23 30/1/23 31/1/23
f  33/1/1 28/1/1 36/1/1
f  36/1/2 28/1/2 33/1/2
f  33/1/24 26/1/19 34/1/24
f  27/1/26 35/1/26 34/1/26
f  35/1/1 29/1/1 37/1/1
f  40/1/25 31/1/21 36/1/25
f  32/1/1 38/1/1 37/1/1
f  39/1/1 38/1/1 30/1/1
f  31/1/27 40/1/27 39/1/27
f  33/1/1 36/1/1 41/1/1
f  41/1/2 36/1/2 33/1/2
f  34/1/24 42/1/28 33/1/24
f  43/1/26 34/1/26 35/1/26
f  44/1/1 35/1/1 37/1/1
f  36/1/25 45/1/29 40/1/25
f  44/1/1 37/1/1 38/1/1
f  44/1/1 38/1/1 39/1/1
f  46/1/27 39/1/27 40/1/27
f  41/1/1 36/1/1 45/1/1
f  45/1/2 36/1/2 41/1/2
f  41/1/28 33/1/24 42/1/28
f  34/1/30 43/1/30 42/1/30
f  43/1/1 35/1/1 44/1/1
f  37/1/31 44/1/31 47/1/31
f  48/1/29 40/1/25 45/1/29
f  46/1/1 44/1/1 39/1/1
f  46/1/32 40/1/32 49/1/32
f  48/1/32 49/1/32 40/1/32
f  41/1/1 45/1/1 50/1/1
f  50/1/2 45/1/2 41/1/2
f  42/1/28 51/1/33 41/1/28
f  52/1/30 42/1/30 43/1/30
f  46/1/1 43/1/1 44/1/1
f  53/1/31 47/1/31 44/1/31
f  45/1/29 54/1/34 48/1/29
f  49/1/1 43/1/1 46/1/1
f  55/1/32 49/1/32 48/1/32
f  50/1/1 45/1/1 54/1/1
f  54/1/2 45/1/2 50/1/2
f  50/1/33 41/1/28 51/1/33
f  51/1/35 42/1/35 56/1/35
f  52/1/35 56/1/35 42/1/35
f  52/1/1 43/1/1 57/1/1
f  57/1/1 43/1/1 49/1/1
f  47/1/1 53/1/1 58/1/1
f  59/1/34 48/1/29 54/1/34
f  49/1/1 55/1/1 57/1/1
f  55/1/36 48/1/36 60/1/36
f  50/1/1 54/1/1 61/1/1
f  61/1/2 54/1/2 50/1/2
f  51/1/33 62/1/37 50/1/33
f  56/1/38 63/1/38 51/1/38
f  56/1/1 52/1/1 64/1/1
f  64/1/1 52/1/1 57/1/1
f  65/1/1 58/1/1 53/1/1
f  59/1/36 60/1/36 48/1/36
f  54/1/34 66/1/39 59/1/34
f  67/1/1 57/1/1 55/1/1
f  60/1/1 67/1/1 55/1/1
f  61/1/1 54/1/1 66/1/1
f  66/1/2 54/1/2 61/1/2
f  61/1/37 50/1/33 62/1/37
f  62/1/38 51/1/38 63/1/38
f  63/1/1 56/1/1 68/1/1
f  68/1/1 56/1/1 64/1/1
f  57/1/1 67/1/1 64/1/1
f  58/1/40 65/1/40 57/1/40
f  60/1/41 59/1/41 69/1/41
f  70/1/39 59/1/34 66/1/39
f  67/1/40 57/1/40 65/1/40
f  68/1/1 67/1/1 60/1/1
f  61/1/1 66/1/1 71/1/1
f  71/1/2 66/1/2 61/1/2
f  61/1/37 62/1/37 71/1/42
f  63/1/43 72/1/43 62/1/43
f  69/1/1 63/1/1 68/1/1
f  68/1/1 64/1/1 67/1/1
f  70/1/41 69/1/41 59/1/41
f  69/1/1 68/1/1 60/1/1
f  70/1/39 66/1/39 73/1/44
f  71/1/1 66/1/1 74/1/1
f  74/1/2 66/1/2 71/1/2
f  75/1/42 71/1/42 62/1/37
f  75/1/43 62/1/43 72/1/43
f  72/1/1 63/1/1 76/1/1
f  76/1/1 63/1/1 69/1/1
f  69/1/45 70/1/45 76/1/45
f  74/1/44 73/1/44 66/1/39
f  73/1/45 76/1/45 70/1/45
f  71/1/1 74/1/1 77/1/1
f  77/1/2 74/1/2 71/1/2
f  71/1/42 75/1/42 77/1/46
f  72/1/47 78/1/47 75/1/47
f  79/1/1 72/1/1 76/1/1
f  73/1/44 74/1/44 80/1/48
f  76/1/49 73/1/49 79/1/49
f  77/1/1 74/1/1 81/1/1
f  81/1/2 74/1/2 77/1/2
f  82/1/46 77/1/46 75/1/42
f  82/1/47 75/1/47 78/1/47
f  78/1/1 72/1/1 79/1/1
f  81/1/48 80/1/48 74/1/44
f  80/1/49 79/1/49 73/1/49
f  77/1/1 81/1/1 83/1/1
f  83/1/2 81/1/2 77/1/2
f  77/1/46 82/1/46 83/1/50
f  78/1/51 84/1/51 82/1/51
f  84/1/1 78/1/1 79/1/1
f  80/1/48 81/1/48 85/1/50
f  79/1/52 80/1/52 84/1/52
f  83/1/50 85/1/50 81/1/48
f  85/1/50 83/1/50 82/1/46
f  85/1/51 82/1/51 84/1/51
f  85/1/52 84/1/52 80/1/52

# Mesh 'mesh1_mesh1-geometry' with 48 faces
g mesh1_mesh1-geometry
usemtl material_1_1_8
f  2/2/48 5/3/50 3/4/50
f  3/4/50 6/5/46 1/6/46
f  4/7/44 8/8/48 2/2/48
f  5/3/50 2/2/48 8/8/48
f  6/5/46 3/4/50 5/3/50
f  9/9/42 1/6/46 6/5/46
f  1/6/46 9/9/42 7/10/42
f  8/8/48 4/7/44 11/11/44
f  14/12/37 7/10/42 9/9/42
f  10/13/39 11/11/44 4/7/44
f  7/10/42 14/12/37 15/14/37
f  11/11/44 10/13/39 19/15/39
f  14/12/37 21/16/33 15/14/37
f  23/17/34 10/13/39 18/18/34
f  10/13/39 23/17/34 19/15/39
f  21/16/33 14/12/37 25/19/33
f  18/18/34 27/20/29 23/17/34
f  25/19/33 28/21/28 21/16/33
f  27/20/29 18/18/34 26/22/29
f  28/21/28 25/19/33 31/23/28
f  26/22/29 34/24/25 27/20/29
f  31/23/28 36/25/24 28/21/28
f  34/24/25 26/22/29 33/26/25
f  36/25/24 31/23/28 40/27/24
f  33/26/25 42/28/21 34/24/25
f  40/29/24 45/30/19 36/31/24
f  42/28/21 33/26/25 41/32/21
f  45/30/19 40/29/24 48/33/19
f  41/32/21 51/34/15 42/28/21
f  48/33/19 54/35/16 45/30/19
f  51/34/15 41/32/21 50/36/15
f  54/35/16 48/33/19 59/37/16
f  50/36/15 62/38/11 51/34/15
f  59/37/16 66/39/12 54/35/16
f  62/38/11 50/36/15 61/40/11
f  66/39/12 59/37/16 70/41/12
f  71/42/7 62/38/11 61/40/11
f  73/43/6 66/39/12 70/41/12
f  62/38/11 71/42/7 75/44/7
f  66/39/12 73/43/6 74/45/6
f  77/46/5 75/44/7 71/42/7
f  80/47/4 74/45/6 73/43/6
f  75/44/7 77/46/5 82/48/5
f  74/45/6 80/47/4 81/49/4
f  83/50/3 82/48/5 77/46/5
f  85/51/3 81/49/4 80/47/4
f  81/49/4 85/51/3 83/50/3
f  82/48/5 83/50/3 85/51/3

# Mesh 'mesh1_mesh1-geometry' with 84 faces
g mesh1_mesh1-geometry
usemtl material_2_2_8
f  8/52/53 12/53/53 5/54/53
f  12/55/54 6/52/54 5/56/54
f  13/57/55 9/54/55 6/52/55
f  11/56/56 16/57/56 8/52/56
f  12/53/53 8/52/53 16/57/53
f  6/52/54 12/55/54 13/57/54
f  9/54/55 13/57/55 17/53/55
f  17/53/57 14/58/57 9/54/57
f  16/57/56 11/56/56 20/55/56
f  16/59/2 13/60/2 12/61/2
f  13/60/2 20/62/2 17/63/2
f  14/58/57 17/53/57 22/64/57
f  19/52/58 20/53/58 11/54/58
f  13/60/2 16/59/2 20/62/2
f  17/63/2 20/62/2 24/65/2
f  17/63/2 24/65/2 22/66/2
f  22/57/59 25/54/59 14/52/59
f  23/56/60 24/57/60 19/52/60
f  20/53/58 19/52/58 24/57/58
f  22/66/2 24/65/2 29/67/2
f  25/54/59 22/57/59 30/53/59
f  27/52/61 29/53/61 23/54/61
f  24/57/60 23/56/60 29/55/60
f  22/66/2 29/67/2 32/68/2
f  32/68/2 30/69/2 22/66/2
f  30/55/62 31/52/62 25/56/62
f  29/53/61 27/52/61 35/57/61
f  32/68/2 29/67/2 37/70/2
f  30/69/2 32/68/2 38/71/2
f  31/52/62 30/55/62 39/57/62
f  34/56/63 35/57/63 27/52/63
f  37/70/2 29/67/2 35/72/2
f  30/69/2 38/71/2 39/73/2
f  39/57/64 40/54/64 31/52/64
f  35/57/63 34/56/63 43/55/63
f  37/70/2 35/72/2 44/74/2
f  39/73/2 38/71/2 44/74/2
f  40/54/64 39/57/64 46/53/64
f  42/52/65 43/53/65 34/54/65
f  44/74/2 35/72/2 43/75/2
f  39/73/2 44/74/2 46/76/2
f  49/77/66 40/56/66 46/55/66
f  40/56/66 49/77/66 48/52/66
f  43/53/65 42/52/65 52/57/65
f  44/74/2 43/75/2 46/76/2
f  46/76/2 43/75/2 49/78/2
f  48/52/66 49/77/66 55/57/66
f  56/55/67 42/52/67 51/56/67
f  42/52/67 56/55/67 52/57/67
f  57/79/2 43/75/2 52/80/2
f  49/78/2 43/75/2 57/79/2
f  57/79/2 55/81/2 49/78/2
f  60/53/68 48/52/68 55/57/68
f  51/54/69 63/57/69 56/53/69
f  64/82/2 52/80/2 56/83/2
f  57/79/2 52/80/2 64/82/2
f  48/52/68 60/53/68 59/54/68
f  55/81/2 57/79/2 67/84/2
f  55/81/2 67/84/2 60/85/2
f  63/57/69 51/54/69 62/52/69
f  68/86/2 56/83/2 63/87/2
f  64/82/2 56/83/2 68/86/2
f  69/57/70 59/56/70 60/55/70
f  60/85/2 67/84/2 68/86/2
f  62/52/71 72/55/71 63/57/71
f  68/86/2 63/87/2 69/88/2
f  59/56/70 69/57/70 70/52/70
f  60/85/2 68/86/2 69/88/2
f  72/55/71 62/52/71 75/56/71
f  76/89/2 63/87/2 72/90/2
f  69/88/2 63/87/2 76/89/2
f  76/53/72 70/52/72 69/57/72
f  70/52/72 76/53/72 73/54/72
f  75/54/73 78/57/73 72/53/73
f  76/89/2 72/90/2 79/91/2
f  79/57/74 73/56/74 76/55/74
f  78/57/73 75/54/73 82/52/73
f  79/91/2 72/90/2 78/92/2
f  73/56/74 79/57/74 80/52/74
f  82/52/75 84/55/75 78/57/75
f  79/91/2 78/92/2 84/93/2
f  84/53/76 80/52/76 79/57/76
f  84/55/75 82/52/75 85/56/75
f  80/52/76 84/53/76 85/54/76

# Mesh 'mesh1_mesh1-geometry' with 6 faces
g mesh1_mesh1-geometry
usemtl material_2_3_8
f  37/94/2 38/95/2 32/96/2
f  38/95/2 37/94/2 44/97/2
f  58/98/2 53/99/2 47/100/2
f  53/99/2 58/98/2 65/101/2
f  64/102/2 67/103/2 57/104/2
f  67/103/2 64/102/2 68/105/2

# Mesh 'mesh1_mesh1-geometry' with 2 faces
g mesh1_mesh1-geometry
usemtl material_2_5_8
f  47/106/77 44/1/77 37/107/77
f  44/1/77 47/106/77 53/108/77

# Mesh 'mesh1_mesh1-geometry' with 2 faces
g mesh1_mesh1-geometry
usemtl material_2_4_8
f  57/1/78 65/106/78 58/108/78
f  65/106/78 57/1/78 67/107/78

# Mesh 'mesh2_mesh2-geometry' with 24 faces
g mesh2_mesh2-geometry
usemtl material_0_0
l  36 28
l  45 36
l  28 21
l  54 45
l  21 15
l  66 54
l  15 7
l  74 66
l  7 1
l  81 74
l  1 3
l  83 81
l  3 2
l  77 83
l  2 4
l  71 77
l  4 10
l  61 71
l  10 18
l  50 61
l  18 26
l  41 50
l  26 33
l  33 41

